%TF.GenerationSoftware,KiCad,Pcbnew,7.0.8*%
%TF.CreationDate,2023-10-23T09:59:57+02:00*%
%TF.ProjectId,dual-psu,6475616c-2d70-4737-952e-6b696361645f,rev?*%
%TF.SameCoordinates,Original*%
%TF.FileFunction,Drillmap*%
%TF.FilePolarity,Positive*%
%FSLAX45Y45*%
G04 Gerber Fmt 4.5, Leading zero omitted, Abs format (unit mm)*
G04 Created by KiCad (PCBNEW 7.0.8) date 2023-10-23 09:59:57*
%MOMM*%
%LPD*%
G01*
G04 APERTURE LIST*
%ADD10C,0.100000*%
%ADD11C,0.200000*%
%ADD12C,0.030000*%
%ADD13C,0.040000*%
%ADD14C,0.060000*%
%ADD15C,0.130000*%
G04 APERTURE END LIST*
D10*
X1900000Y-1500000D02*
X9600000Y-1500000D01*
X9600000Y-1500000D02*
X9600000Y-4700000D01*
X1900000Y-4700000D02*
X1900000Y-1500000D01*
X1900000Y-4700000D02*
X9600000Y-4700000D01*
D11*
D12*
X6761500Y-2320600D02*
X6791500Y-2350600D01*
X6791500Y-2320600D02*
X6761500Y-2350600D01*
X6761500Y-2405600D02*
X6791500Y-2435600D01*
X6791500Y-2405600D02*
X6761500Y-2435600D01*
X6761500Y-2490600D02*
X6791500Y-2520600D01*
X6791500Y-2490600D02*
X6761500Y-2520600D01*
X6846500Y-2320600D02*
X6876500Y-2350600D01*
X6876500Y-2320600D02*
X6846500Y-2350600D01*
X6846500Y-2405600D02*
X6876500Y-2435600D01*
X6876500Y-2405600D02*
X6846500Y-2435600D01*
X6846500Y-2490600D02*
X6876500Y-2520600D01*
X6876500Y-2490600D02*
X6846500Y-2520600D01*
X6921500Y-2730600D02*
X6951500Y-2760600D01*
X6951500Y-2730600D02*
X6921500Y-2760600D01*
X6931500Y-2320600D02*
X6961500Y-2350600D01*
X6961500Y-2320600D02*
X6931500Y-2350600D01*
X6931500Y-2405600D02*
X6961500Y-2435600D01*
X6961500Y-2405600D02*
X6931500Y-2435600D01*
X6931500Y-2490600D02*
X6961500Y-2520600D01*
X6961500Y-2490600D02*
X6931500Y-2520600D01*
X7151500Y-2360600D02*
X7181500Y-2390600D01*
X7181500Y-2360600D02*
X7151500Y-2390600D01*
X7151500Y-2440600D02*
X7181500Y-2470600D01*
X7181500Y-2440600D02*
X7151500Y-2470600D01*
D13*
X2046500Y-2175600D02*
G75*
G03*
X2046500Y-2175600I-20000J0D01*
G01*
X2046500Y-2425600D02*
G75*
G03*
X2046500Y-2425600I-20000J0D01*
G01*
X2046500Y-2675600D02*
G75*
G03*
X2046500Y-2675600I-20000J0D01*
G01*
X2046500Y-2925600D02*
G75*
G03*
X2046500Y-2925600I-20000J0D01*
G01*
X2046500Y-3425600D02*
G75*
G03*
X2046500Y-3425600I-20000J0D01*
G01*
X2046500Y-3675600D02*
G75*
G03*
X2046500Y-3675600I-20000J0D01*
G01*
X2046500Y-3925600D02*
G75*
G03*
X2046500Y-3925600I-20000J0D01*
G01*
X2046500Y-4175600D02*
G75*
G03*
X2046500Y-4175600I-20000J0D01*
G01*
X2266500Y-2175600D02*
G75*
G03*
X2266500Y-2175600I-20000J0D01*
G01*
X2266500Y-2425600D02*
G75*
G03*
X2266500Y-2425600I-20000J0D01*
G01*
X2266500Y-3675600D02*
G75*
G03*
X2266500Y-3675600I-20000J0D01*
G01*
X2266500Y-3925600D02*
G75*
G03*
X2266500Y-3925600I-20000J0D01*
G01*
X2496500Y-1625600D02*
G75*
G03*
X2496500Y-1625600I-20000J0D01*
G01*
X2496500Y-2175600D02*
G75*
G03*
X2496500Y-2175600I-20000J0D01*
G01*
X2496500Y-2425600D02*
G75*
G03*
X2496500Y-2425600I-20000J0D01*
G01*
X2496500Y-3675600D02*
G75*
G03*
X2496500Y-3675600I-20000J0D01*
G01*
X2496500Y-3925600D02*
G75*
G03*
X2496500Y-3925600I-20000J0D01*
G01*
X2496500Y-4175600D02*
G75*
G03*
X2496500Y-4175600I-20000J0D01*
G01*
X2496500Y-4575600D02*
G75*
G03*
X2496500Y-4575600I-20000J0D01*
G01*
X2746500Y-1625600D02*
G75*
G03*
X2746500Y-1625600I-20000J0D01*
G01*
X2746500Y-1925600D02*
G75*
G03*
X2746500Y-1925600I-20000J0D01*
G01*
X2746500Y-2175600D02*
G75*
G03*
X2746500Y-2175600I-20000J0D01*
G01*
X2746500Y-2425600D02*
G75*
G03*
X2746500Y-2425600I-20000J0D01*
G01*
X2746500Y-4575600D02*
G75*
G03*
X2746500Y-4575600I-20000J0D01*
G01*
X2996500Y-1625600D02*
G75*
G03*
X2996500Y-1625600I-20000J0D01*
G01*
X2996500Y-1925600D02*
G75*
G03*
X2996500Y-1925600I-20000J0D01*
G01*
X2996500Y-2175600D02*
G75*
G03*
X2996500Y-2175600I-20000J0D01*
G01*
X2996500Y-2425600D02*
G75*
G03*
X2996500Y-2425600I-20000J0D01*
G01*
X2996500Y-4575600D02*
G75*
G03*
X2996500Y-4575600I-20000J0D01*
G01*
X3029000Y-4333100D02*
G75*
G03*
X3029000Y-4333100I-20000J0D01*
G01*
X3246500Y-1625600D02*
G75*
G03*
X3246500Y-1625600I-20000J0D01*
G01*
X3246500Y-3175600D02*
G75*
G03*
X3246500Y-3175600I-20000J0D01*
G01*
X3246500Y-3675600D02*
G75*
G03*
X3246500Y-3675600I-20000J0D01*
G01*
X3246500Y-4575600D02*
G75*
G03*
X3246500Y-4575600I-20000J0D01*
G01*
X3371500Y-2075600D02*
G75*
G03*
X3371500Y-2075600I-20000J0D01*
G01*
X3496500Y-1625600D02*
G75*
G03*
X3496500Y-1625600I-20000J0D01*
G01*
X3496500Y-4575600D02*
G75*
G03*
X3496500Y-4575600I-20000J0D01*
G01*
X3601500Y-2830600D02*
G75*
G03*
X3601500Y-2830600I-20000J0D01*
G01*
X3606500Y-2155600D02*
G75*
G03*
X3606500Y-2155600I-20000J0D01*
G01*
X3636500Y-2435600D02*
G75*
G03*
X3636500Y-2435600I-20000J0D01*
G01*
X3726500Y-2245600D02*
G75*
G03*
X3726500Y-2245600I-20000J0D01*
G01*
X3726500Y-2610600D02*
G75*
G03*
X3726500Y-2610600I-20000J0D01*
G01*
X3726500Y-3050600D02*
G75*
G03*
X3726500Y-3050600I-20000J0D01*
G01*
X3746500Y-1625600D02*
G75*
G03*
X3746500Y-1625600I-20000J0D01*
G01*
X3746500Y-4575600D02*
G75*
G03*
X3746500Y-4575600I-20000J0D01*
G01*
X3816500Y-2435600D02*
G75*
G03*
X3816500Y-2435600I-20000J0D01*
G01*
X3851500Y-2830600D02*
G75*
G03*
X3851500Y-2830600I-20000J0D01*
G01*
X3996500Y-1625600D02*
G75*
G03*
X3996500Y-1625600I-20000J0D01*
G01*
X3996500Y-4575600D02*
G75*
G03*
X3996500Y-4575600I-20000J0D01*
G01*
X4166500Y-1770600D02*
G75*
G03*
X4166500Y-1770600I-20000J0D01*
G01*
X4166500Y-1980600D02*
G75*
G03*
X4166500Y-1980600I-20000J0D01*
G01*
X4246500Y-4575600D02*
G75*
G03*
X4246500Y-4575600I-20000J0D01*
G01*
X4296500Y-1875600D02*
G75*
G03*
X4296500Y-1875600I-20000J0D01*
G01*
X4401500Y-1950600D02*
G75*
G03*
X4401500Y-1950600I-20000J0D01*
G01*
X4496500Y-4575600D02*
G75*
G03*
X4496500Y-4575600I-20000J0D01*
G01*
X4661500Y-4405600D02*
G75*
G03*
X4661500Y-4405600I-20000J0D01*
G01*
X4676500Y-1830600D02*
G75*
G03*
X4676500Y-1830600I-20000J0D01*
G01*
X4676500Y-1950600D02*
G75*
G03*
X4676500Y-1950600I-20000J0D01*
G01*
X4676500Y-2080600D02*
G75*
G03*
X4676500Y-2080600I-20000J0D01*
G01*
X4676500Y-2205600D02*
G75*
G03*
X4676500Y-2205600I-20000J0D01*
G01*
X4746500Y-4575600D02*
G75*
G03*
X4746500Y-4575600I-20000J0D01*
G01*
X4831500Y-4405600D02*
G75*
G03*
X4831500Y-4405600I-20000J0D01*
G01*
X4886500Y-1830600D02*
G75*
G03*
X4886500Y-1830600I-20000J0D01*
G01*
X4886500Y-1950600D02*
G75*
G03*
X4886500Y-1950600I-20000J0D01*
G01*
X4886500Y-2080600D02*
G75*
G03*
X4886500Y-2080600I-20000J0D01*
G01*
X4886500Y-2205600D02*
G75*
G03*
X4886500Y-2205600I-20000J0D01*
G01*
X4906500Y-1660600D02*
G75*
G03*
X4906500Y-1660600I-20000J0D01*
G01*
X4996500Y-4575600D02*
G75*
G03*
X4996500Y-4575600I-20000J0D01*
G01*
X5021500Y-1660600D02*
G75*
G03*
X5021500Y-1660600I-20000J0D01*
G01*
X5246500Y-4575600D02*
G75*
G03*
X5246500Y-4575600I-20000J0D01*
G01*
X5254000Y-4318100D02*
G75*
G03*
X5254000Y-4318100I-20000J0D01*
G01*
X5496500Y-1625600D02*
G75*
G03*
X5496500Y-1625600I-20000J0D01*
G01*
X5496500Y-4575600D02*
G75*
G03*
X5496500Y-4575600I-20000J0D01*
G01*
X5691500Y-2550600D02*
G75*
G03*
X5691500Y-2550600I-20000J0D01*
G01*
X5691500Y-2670600D02*
G75*
G03*
X5691500Y-2670600I-20000J0D01*
G01*
X5709000Y-2420600D02*
G75*
G03*
X5709000Y-2420600I-20000J0D01*
G01*
X5746500Y-1625600D02*
G75*
G03*
X5746500Y-1625600I-20000J0D01*
G01*
X5746500Y-1925600D02*
G75*
G03*
X5746500Y-1925600I-20000J0D01*
G01*
X5746500Y-2175600D02*
G75*
G03*
X5746500Y-2175600I-20000J0D01*
G01*
X5746500Y-4575600D02*
G75*
G03*
X5746500Y-4575600I-20000J0D01*
G01*
X5996500Y-1625600D02*
G75*
G03*
X5996500Y-1625600I-20000J0D01*
G01*
X5996500Y-1925600D02*
G75*
G03*
X5996500Y-1925600I-20000J0D01*
G01*
X5996500Y-2175600D02*
G75*
G03*
X5996500Y-2175600I-20000J0D01*
G01*
X5996500Y-4575600D02*
G75*
G03*
X5996500Y-4575600I-20000J0D01*
G01*
X6039000Y-2295600D02*
G75*
G03*
X6039000Y-2295600I-20000J0D01*
G01*
X6101500Y-3925600D02*
G75*
G03*
X6101500Y-3925600I-20000J0D01*
G01*
X6246500Y-1625600D02*
G75*
G03*
X6246500Y-1625600I-20000J0D01*
G01*
X6246500Y-4575600D02*
G75*
G03*
X6246500Y-4575600I-20000J0D01*
G01*
X6279000Y-1935600D02*
G75*
G03*
X6279000Y-1935600I-20000J0D01*
G01*
X6384000Y-2178100D02*
G75*
G03*
X6384000Y-2178100I-20000J0D01*
G01*
X6496500Y-1625600D02*
G75*
G03*
X6496500Y-1625600I-20000J0D01*
G01*
X6496500Y-4575600D02*
G75*
G03*
X6496500Y-4575600I-20000J0D01*
G01*
X6511500Y-3925600D02*
G75*
G03*
X6511500Y-3925600I-20000J0D01*
G01*
X6679000Y-1733100D02*
G75*
G03*
X6679000Y-1733100I-20000J0D01*
G01*
X6711500Y-2870600D02*
G75*
G03*
X6711500Y-2870600I-20000J0D01*
G01*
X6711500Y-2975600D02*
G75*
G03*
X6711500Y-2975600I-20000J0D01*
G01*
X6711500Y-3080600D02*
G75*
G03*
X6711500Y-3080600I-20000J0D01*
G01*
X6746500Y-1625600D02*
G75*
G03*
X6746500Y-1625600I-20000J0D01*
G01*
X6746500Y-3925600D02*
G75*
G03*
X6746500Y-3925600I-20000J0D01*
G01*
X6746500Y-4575600D02*
G75*
G03*
X6746500Y-4575600I-20000J0D01*
G01*
X6821500Y-2870600D02*
G75*
G03*
X6821500Y-2870600I-20000J0D01*
G01*
X6821500Y-2975600D02*
G75*
G03*
X6821500Y-2975600I-20000J0D01*
G01*
X6821500Y-3080600D02*
G75*
G03*
X6821500Y-3080600I-20000J0D01*
G01*
X6891500Y-3290600D02*
G75*
G03*
X6891500Y-3290600I-20000J0D01*
G01*
X6901500Y-3175600D02*
G75*
G03*
X6901500Y-3175600I-20000J0D01*
G01*
X6996500Y-1625600D02*
G75*
G03*
X6996500Y-1625600I-20000J0D01*
G01*
X6996500Y-3925600D02*
G75*
G03*
X6996500Y-3925600I-20000J0D01*
G01*
X6996500Y-4175600D02*
G75*
G03*
X6996500Y-4175600I-20000J0D01*
G01*
X6996500Y-4370600D02*
G75*
G03*
X6996500Y-4370600I-20000J0D01*
G01*
X6996500Y-4575600D02*
G75*
G03*
X6996500Y-4575600I-20000J0D01*
G01*
X7111500Y-3175600D02*
G75*
G03*
X7111500Y-3175600I-20000J0D01*
G01*
X7239000Y-2918100D02*
G75*
G03*
X7239000Y-2918100I-20000J0D01*
G01*
X7239000Y-3020600D02*
G75*
G03*
X7239000Y-3020600I-20000J0D01*
G01*
X7246500Y-1625600D02*
G75*
G03*
X7246500Y-1625600I-20000J0D01*
G01*
X7246500Y-4575600D02*
G75*
G03*
X7246500Y-4575600I-20000J0D01*
G01*
X7256500Y-1979350D02*
G75*
G03*
X7256500Y-1979350I-20000J0D01*
G01*
X7279000Y-4338100D02*
G75*
G03*
X7279000Y-4338100I-20000J0D01*
G01*
X7341500Y-2918100D02*
G75*
G03*
X7341500Y-2918100I-20000J0D01*
G01*
X7341500Y-3020600D02*
G75*
G03*
X7341500Y-3020600I-20000J0D01*
G01*
X7496500Y-1625600D02*
G75*
G03*
X7496500Y-1625600I-20000J0D01*
G01*
X7496500Y-4575600D02*
G75*
G03*
X7496500Y-4575600I-20000J0D01*
G01*
X7516500Y-2445600D02*
G75*
G03*
X7516500Y-2445600I-20000J0D01*
G01*
X7646500Y-3925600D02*
G75*
G03*
X7646500Y-3925600I-20000J0D01*
G01*
X7746500Y-1625600D02*
G75*
G03*
X7746500Y-1625600I-20000J0D01*
G01*
X7746500Y-4575600D02*
G75*
G03*
X7746500Y-4575600I-20000J0D01*
G01*
X7771500Y-2425600D02*
G75*
G03*
X7771500Y-2425600I-20000J0D01*
G01*
X7771500Y-2515600D02*
G75*
G03*
X7771500Y-2515600I-20000J0D01*
G01*
X7786500Y-3090600D02*
G75*
G03*
X7786500Y-3090600I-20000J0D01*
G01*
X7786500Y-3425600D02*
G75*
G03*
X7786500Y-3425600I-20000J0D01*
G01*
X7786500Y-3610600D02*
G75*
G03*
X7786500Y-3610600I-20000J0D01*
G01*
X7901500Y-2735600D02*
G75*
G03*
X7901500Y-2735600I-20000J0D01*
G01*
X7996500Y-1625600D02*
G75*
G03*
X7996500Y-1625600I-20000J0D01*
G01*
X7996500Y-4575600D02*
G75*
G03*
X7996500Y-4575600I-20000J0D01*
G01*
X8099000Y-2788100D02*
G75*
G03*
X8099000Y-2788100I-20000J0D01*
G01*
X8114000Y-2425600D02*
G75*
G03*
X8114000Y-2425600I-20000J0D01*
G01*
X8114000Y-2515600D02*
G75*
G03*
X8114000Y-2515600I-20000J0D01*
G01*
X8246500Y-1625600D02*
G75*
G03*
X8246500Y-1625600I-20000J0D01*
G01*
X8246500Y-2675600D02*
G75*
G03*
X8246500Y-2675600I-20000J0D01*
G01*
X8246500Y-4575600D02*
G75*
G03*
X8246500Y-4575600I-20000J0D01*
G01*
X8251500Y-1856000D02*
G75*
G03*
X8251500Y-1856000I-20000J0D01*
G01*
X8251500Y-2922800D02*
G75*
G03*
X8251500Y-2922800I-20000J0D01*
G01*
X8251500Y-3176800D02*
G75*
G03*
X8251500Y-3176800I-20000J0D01*
G01*
X8251500Y-3430800D02*
G75*
G03*
X8251500Y-3430800I-20000J0D01*
G01*
X8302300Y-2186200D02*
G75*
G03*
X8302300Y-2186200I-20000J0D01*
G01*
X8302300Y-2414800D02*
G75*
G03*
X8302300Y-2414800I-20000J0D01*
G01*
X8496500Y-1625600D02*
G75*
G03*
X8496500Y-1625600I-20000J0D01*
G01*
X8496500Y-1925600D02*
G75*
G03*
X8496500Y-1925600I-20000J0D01*
G01*
X8496500Y-2675600D02*
G75*
G03*
X8496500Y-2675600I-20000J0D01*
G01*
X8496500Y-2925600D02*
G75*
G03*
X8496500Y-2925600I-20000J0D01*
G01*
X8496500Y-3425600D02*
G75*
G03*
X8496500Y-3425600I-20000J0D01*
G01*
X8496500Y-3675600D02*
G75*
G03*
X8496500Y-3675600I-20000J0D01*
G01*
X8496500Y-4575600D02*
G75*
G03*
X8496500Y-4575600I-20000J0D01*
G01*
X8505500Y-2186200D02*
G75*
G03*
X8505500Y-2186200I-20000J0D01*
G01*
X8505500Y-2414800D02*
G75*
G03*
X8505500Y-2414800I-20000J0D01*
G01*
X8505500Y-3176800D02*
G75*
G03*
X8505500Y-3176800I-20000J0D01*
G01*
X8746500Y-1625600D02*
G75*
G03*
X8746500Y-1625600I-20000J0D01*
G01*
X8746500Y-1925600D02*
G75*
G03*
X8746500Y-1925600I-20000J0D01*
G01*
X8746500Y-2175600D02*
G75*
G03*
X8746500Y-2175600I-20000J0D01*
G01*
X8746500Y-3425600D02*
G75*
G03*
X8746500Y-3425600I-20000J0D01*
G01*
X8746500Y-3675600D02*
G75*
G03*
X8746500Y-3675600I-20000J0D01*
G01*
X8746500Y-4575600D02*
G75*
G03*
X8746500Y-4575600I-20000J0D01*
G01*
X8759500Y-2414800D02*
G75*
G03*
X8759500Y-2414800I-20000J0D01*
G01*
X8759500Y-2668800D02*
G75*
G03*
X8759500Y-2668800I-20000J0D01*
G01*
X8759500Y-2922800D02*
G75*
G03*
X8759500Y-2922800I-20000J0D01*
G01*
X8759500Y-3176800D02*
G75*
G03*
X8759500Y-3176800I-20000J0D01*
G01*
X8996500Y-1625600D02*
G75*
G03*
X8996500Y-1625600I-20000J0D01*
G01*
X8996500Y-1925600D02*
G75*
G03*
X8996500Y-1925600I-20000J0D01*
G01*
X8996500Y-2175600D02*
G75*
G03*
X8996500Y-2175600I-20000J0D01*
G01*
X8996500Y-3425600D02*
G75*
G03*
X8996500Y-3425600I-20000J0D01*
G01*
X8996500Y-3675600D02*
G75*
G03*
X8996500Y-3675600I-20000J0D01*
G01*
X8996500Y-3925600D02*
G75*
G03*
X8996500Y-3925600I-20000J0D01*
G01*
X8996500Y-4575600D02*
G75*
G03*
X8996500Y-4575600I-20000J0D01*
G01*
X9013500Y-2414800D02*
G75*
G03*
X9013500Y-2414800I-20000J0D01*
G01*
X9013500Y-2668800D02*
G75*
G03*
X9013500Y-2668800I-20000J0D01*
G01*
X9013500Y-2922800D02*
G75*
G03*
X9013500Y-2922800I-20000J0D01*
G01*
X9013500Y-3176800D02*
G75*
G03*
X9013500Y-3176800I-20000J0D01*
G01*
X9242100Y-2414800D02*
G75*
G03*
X9242100Y-2414800I-20000J0D01*
G01*
X9242100Y-2922800D02*
G75*
G03*
X9242100Y-2922800I-20000J0D01*
G01*
X9246500Y-2175600D02*
G75*
G03*
X9246500Y-2175600I-20000J0D01*
G01*
X9246500Y-2675600D02*
G75*
G03*
X9246500Y-2675600I-20000J0D01*
G01*
X9246500Y-3175600D02*
G75*
G03*
X9246500Y-3175600I-20000J0D01*
G01*
X9246500Y-3425600D02*
G75*
G03*
X9246500Y-3425600I-20000J0D01*
G01*
X9246500Y-3675600D02*
G75*
G03*
X9246500Y-3675600I-20000J0D01*
G01*
X9246500Y-3925600D02*
G75*
G03*
X9246500Y-3925600I-20000J0D01*
G01*
X9496500Y-2175600D02*
G75*
G03*
X9496500Y-2175600I-20000J0D01*
G01*
X9496500Y-2425600D02*
G75*
G03*
X9496500Y-2425600I-20000J0D01*
G01*
X9496500Y-2675600D02*
G75*
G03*
X9496500Y-2675600I-20000J0D01*
G01*
X9496500Y-2925600D02*
G75*
G03*
X9496500Y-2925600I-20000J0D01*
G01*
X9496500Y-3175600D02*
G75*
G03*
X9496500Y-3175600I-20000J0D01*
G01*
X9496500Y-3425600D02*
G75*
G03*
X9496500Y-3425600I-20000J0D01*
G01*
X9496500Y-3675600D02*
G75*
G03*
X9496500Y-3675600I-20000J0D01*
G01*
X9496500Y-3925600D02*
G75*
G03*
X9496500Y-3925600I-20000J0D01*
G01*
X9496500Y-4175600D02*
G75*
G03*
X9496500Y-4175600I-20000J0D01*
G01*
D14*
X5201500Y-3395600D02*
X5201500Y-3455600D01*
X5171500Y-3425600D02*
X5231500Y-3425600D01*
X5201500Y-3545600D02*
X5201500Y-3605600D01*
X5171500Y-3575600D02*
X5231500Y-3575600D01*
X5351500Y-3395600D02*
X5351500Y-3455600D01*
X5321500Y-3425600D02*
X5381500Y-3425600D01*
X5351500Y-3545600D02*
X5351500Y-3605600D01*
X5321500Y-3575600D02*
X5381500Y-3575600D01*
D15*
X2522462Y-2901562D02*
X2522462Y-2809638D01*
X2430538Y-2809638D01*
X2430538Y-2901562D01*
X2522462Y-2901562D01*
X2522462Y-3401562D02*
X2522462Y-3309638D01*
X2430538Y-3309638D01*
X2430538Y-3401562D01*
X2522462Y-3401562D01*
X3609962Y-4196562D02*
X3609962Y-4104638D01*
X3518038Y-4104638D01*
X3518038Y-4196562D01*
X3609962Y-4196562D01*
X4109962Y-4196562D02*
X4109962Y-4104638D01*
X4018038Y-4104638D01*
X4018038Y-4196562D01*
X4109962Y-4196562D01*
X5832462Y-4196562D02*
X5832462Y-4104638D01*
X5740538Y-4104638D01*
X5740538Y-4196562D01*
X5832462Y-4196562D01*
X6332462Y-4196562D02*
X6332462Y-4104638D01*
X6240538Y-4104638D01*
X6240538Y-4196562D01*
X6332462Y-4196562D01*
X8054962Y-4196562D02*
X8054962Y-4104638D01*
X7963038Y-4104638D01*
X7963038Y-4196562D01*
X8054962Y-4196562D01*
X8554962Y-4196562D02*
X8554962Y-4104638D01*
X8463038Y-4104638D01*
X8463038Y-4196562D01*
X8554962Y-4196562D01*
D11*
X2155777Y-5016484D02*
X2155777Y-4816484D01*
X2155777Y-4816484D02*
X2203396Y-4816484D01*
X2203396Y-4816484D02*
X2231967Y-4826008D01*
X2231967Y-4826008D02*
X2251015Y-4845055D01*
X2251015Y-4845055D02*
X2260539Y-4864103D01*
X2260539Y-4864103D02*
X2270063Y-4902198D01*
X2270063Y-4902198D02*
X2270063Y-4930770D01*
X2270063Y-4930770D02*
X2260539Y-4968865D01*
X2260539Y-4968865D02*
X2251015Y-4987912D01*
X2251015Y-4987912D02*
X2231967Y-5006960D01*
X2231967Y-5006960D02*
X2203396Y-5016484D01*
X2203396Y-5016484D02*
X2155777Y-5016484D01*
X2355777Y-5016484D02*
X2355777Y-4883150D01*
X2355777Y-4921246D02*
X2365301Y-4902198D01*
X2365301Y-4902198D02*
X2374824Y-4892674D01*
X2374824Y-4892674D02*
X2393872Y-4883150D01*
X2393872Y-4883150D02*
X2412920Y-4883150D01*
X2479586Y-5016484D02*
X2479586Y-4883150D01*
X2479586Y-4816484D02*
X2470063Y-4826008D01*
X2470063Y-4826008D02*
X2479586Y-4835531D01*
X2479586Y-4835531D02*
X2489110Y-4826008D01*
X2489110Y-4826008D02*
X2479586Y-4816484D01*
X2479586Y-4816484D02*
X2479586Y-4835531D01*
X2603396Y-5016484D02*
X2584348Y-5006960D01*
X2584348Y-5006960D02*
X2574824Y-4987912D01*
X2574824Y-4987912D02*
X2574824Y-4816484D01*
X2708158Y-5016484D02*
X2689110Y-5006960D01*
X2689110Y-5006960D02*
X2679586Y-4987912D01*
X2679586Y-4987912D02*
X2679586Y-4816484D01*
X2936729Y-5016484D02*
X2936729Y-4816484D01*
X2936729Y-4816484D02*
X3003396Y-4959341D01*
X3003396Y-4959341D02*
X3070062Y-4816484D01*
X3070062Y-4816484D02*
X3070062Y-5016484D01*
X3251015Y-5016484D02*
X3251015Y-4911722D01*
X3251015Y-4911722D02*
X3241491Y-4892674D01*
X3241491Y-4892674D02*
X3222443Y-4883150D01*
X3222443Y-4883150D02*
X3184348Y-4883150D01*
X3184348Y-4883150D02*
X3165301Y-4892674D01*
X3251015Y-5006960D02*
X3231967Y-5016484D01*
X3231967Y-5016484D02*
X3184348Y-5016484D01*
X3184348Y-5016484D02*
X3165301Y-5006960D01*
X3165301Y-5006960D02*
X3155777Y-4987912D01*
X3155777Y-4987912D02*
X3155777Y-4968865D01*
X3155777Y-4968865D02*
X3165301Y-4949817D01*
X3165301Y-4949817D02*
X3184348Y-4940293D01*
X3184348Y-4940293D02*
X3231967Y-4940293D01*
X3231967Y-4940293D02*
X3251015Y-4930770D01*
X3346253Y-4883150D02*
X3346253Y-5083150D01*
X3346253Y-4892674D02*
X3365301Y-4883150D01*
X3365301Y-4883150D02*
X3403396Y-4883150D01*
X3403396Y-4883150D02*
X3422443Y-4892674D01*
X3422443Y-4892674D02*
X3431967Y-4902198D01*
X3431967Y-4902198D02*
X3441491Y-4921246D01*
X3441491Y-4921246D02*
X3441491Y-4978389D01*
X3441491Y-4978389D02*
X3431967Y-4997436D01*
X3431967Y-4997436D02*
X3422443Y-5006960D01*
X3422443Y-5006960D02*
X3403396Y-5016484D01*
X3403396Y-5016484D02*
X3365301Y-5016484D01*
X3365301Y-5016484D02*
X3346253Y-5006960D01*
X3527205Y-4997436D02*
X3536729Y-5006960D01*
X3536729Y-5006960D02*
X3527205Y-5016484D01*
X3527205Y-5016484D02*
X3517682Y-5006960D01*
X3517682Y-5006960D02*
X3527205Y-4997436D01*
X3527205Y-4997436D02*
X3527205Y-5016484D01*
X3527205Y-4892674D02*
X3536729Y-4902198D01*
X3536729Y-4902198D02*
X3527205Y-4911722D01*
X3527205Y-4911722D02*
X3517682Y-4902198D01*
X3517682Y-4902198D02*
X3527205Y-4892674D01*
X3527205Y-4892674D02*
X3527205Y-4911722D01*
D12*
X1865000Y-5330000D02*
X1895000Y-5360000D01*
X1895000Y-5330000D02*
X1865000Y-5360000D01*
D11*
X2193872Y-5236484D02*
X2212920Y-5236484D01*
X2212920Y-5236484D02*
X2231967Y-5246008D01*
X2231967Y-5246008D02*
X2241491Y-5255531D01*
X2241491Y-5255531D02*
X2251015Y-5274579D01*
X2251015Y-5274579D02*
X2260539Y-5312674D01*
X2260539Y-5312674D02*
X2260539Y-5360293D01*
X2260539Y-5360293D02*
X2251015Y-5398389D01*
X2251015Y-5398389D02*
X2241491Y-5417436D01*
X2241491Y-5417436D02*
X2231967Y-5426960D01*
X2231967Y-5426960D02*
X2212920Y-5436484D01*
X2212920Y-5436484D02*
X2193872Y-5436484D01*
X2193872Y-5436484D02*
X2174824Y-5426960D01*
X2174824Y-5426960D02*
X2165301Y-5417436D01*
X2165301Y-5417436D02*
X2155777Y-5398389D01*
X2155777Y-5398389D02*
X2146253Y-5360293D01*
X2146253Y-5360293D02*
X2146253Y-5312674D01*
X2146253Y-5312674D02*
X2155777Y-5274579D01*
X2155777Y-5274579D02*
X2165301Y-5255531D01*
X2165301Y-5255531D02*
X2174824Y-5246008D01*
X2174824Y-5246008D02*
X2193872Y-5236484D01*
X2346253Y-5417436D02*
X2355777Y-5426960D01*
X2355777Y-5426960D02*
X2346253Y-5436484D01*
X2346253Y-5436484D02*
X2336729Y-5426960D01*
X2336729Y-5426960D02*
X2346253Y-5417436D01*
X2346253Y-5417436D02*
X2346253Y-5436484D01*
X2422444Y-5236484D02*
X2546253Y-5236484D01*
X2546253Y-5236484D02*
X2479586Y-5312674D01*
X2479586Y-5312674D02*
X2508158Y-5312674D01*
X2508158Y-5312674D02*
X2527205Y-5322198D01*
X2527205Y-5322198D02*
X2536729Y-5331722D01*
X2536729Y-5331722D02*
X2546253Y-5350770D01*
X2546253Y-5350770D02*
X2546253Y-5398389D01*
X2546253Y-5398389D02*
X2536729Y-5417436D01*
X2536729Y-5417436D02*
X2527205Y-5426960D01*
X2527205Y-5426960D02*
X2508158Y-5436484D01*
X2508158Y-5436484D02*
X2451015Y-5436484D01*
X2451015Y-5436484D02*
X2431967Y-5426960D01*
X2431967Y-5426960D02*
X2422444Y-5417436D01*
X2670063Y-5236484D02*
X2689110Y-5236484D01*
X2689110Y-5236484D02*
X2708158Y-5246008D01*
X2708158Y-5246008D02*
X2717682Y-5255531D01*
X2717682Y-5255531D02*
X2727205Y-5274579D01*
X2727205Y-5274579D02*
X2736729Y-5312674D01*
X2736729Y-5312674D02*
X2736729Y-5360293D01*
X2736729Y-5360293D02*
X2727205Y-5398389D01*
X2727205Y-5398389D02*
X2717682Y-5417436D01*
X2717682Y-5417436D02*
X2708158Y-5426960D01*
X2708158Y-5426960D02*
X2689110Y-5436484D01*
X2689110Y-5436484D02*
X2670063Y-5436484D01*
X2670063Y-5436484D02*
X2651015Y-5426960D01*
X2651015Y-5426960D02*
X2641491Y-5417436D01*
X2641491Y-5417436D02*
X2631967Y-5398389D01*
X2631967Y-5398389D02*
X2622444Y-5360293D01*
X2622444Y-5360293D02*
X2622444Y-5312674D01*
X2622444Y-5312674D02*
X2631967Y-5274579D01*
X2631967Y-5274579D02*
X2641491Y-5255531D01*
X2641491Y-5255531D02*
X2651015Y-5246008D01*
X2651015Y-5246008D02*
X2670063Y-5236484D01*
X2860539Y-5236484D02*
X2879586Y-5236484D01*
X2879586Y-5236484D02*
X2898634Y-5246008D01*
X2898634Y-5246008D02*
X2908158Y-5255531D01*
X2908158Y-5255531D02*
X2917682Y-5274579D01*
X2917682Y-5274579D02*
X2927205Y-5312674D01*
X2927205Y-5312674D02*
X2927205Y-5360293D01*
X2927205Y-5360293D02*
X2917682Y-5398389D01*
X2917682Y-5398389D02*
X2908158Y-5417436D01*
X2908158Y-5417436D02*
X2898634Y-5426960D01*
X2898634Y-5426960D02*
X2879586Y-5436484D01*
X2879586Y-5436484D02*
X2860539Y-5436484D01*
X2860539Y-5436484D02*
X2841491Y-5426960D01*
X2841491Y-5426960D02*
X2831967Y-5417436D01*
X2831967Y-5417436D02*
X2822443Y-5398389D01*
X2822443Y-5398389D02*
X2812920Y-5360293D01*
X2812920Y-5360293D02*
X2812920Y-5312674D01*
X2812920Y-5312674D02*
X2822443Y-5274579D01*
X2822443Y-5274579D02*
X2831967Y-5255531D01*
X2831967Y-5255531D02*
X2841491Y-5246008D01*
X2841491Y-5246008D02*
X2860539Y-5236484D01*
X3012920Y-5436484D02*
X3012920Y-5303150D01*
X3012920Y-5322198D02*
X3022443Y-5312674D01*
X3022443Y-5312674D02*
X3041491Y-5303150D01*
X3041491Y-5303150D02*
X3070063Y-5303150D01*
X3070063Y-5303150D02*
X3089110Y-5312674D01*
X3089110Y-5312674D02*
X3098634Y-5331722D01*
X3098634Y-5331722D02*
X3098634Y-5436484D01*
X3098634Y-5331722D02*
X3108158Y-5312674D01*
X3108158Y-5312674D02*
X3127205Y-5303150D01*
X3127205Y-5303150D02*
X3155777Y-5303150D01*
X3155777Y-5303150D02*
X3174824Y-5312674D01*
X3174824Y-5312674D02*
X3184348Y-5331722D01*
X3184348Y-5331722D02*
X3184348Y-5436484D01*
X3279586Y-5436484D02*
X3279586Y-5303150D01*
X3279586Y-5322198D02*
X3289110Y-5312674D01*
X3289110Y-5312674D02*
X3308158Y-5303150D01*
X3308158Y-5303150D02*
X3336729Y-5303150D01*
X3336729Y-5303150D02*
X3355777Y-5312674D01*
X3355777Y-5312674D02*
X3365301Y-5331722D01*
X3365301Y-5331722D02*
X3365301Y-5436484D01*
X3365301Y-5331722D02*
X3374824Y-5312674D01*
X3374824Y-5312674D02*
X3393872Y-5303150D01*
X3393872Y-5303150D02*
X3422443Y-5303150D01*
X3422443Y-5303150D02*
X3441491Y-5312674D01*
X3441491Y-5312674D02*
X3451015Y-5331722D01*
X3451015Y-5331722D02*
X3451015Y-5436484D01*
X3841491Y-5226960D02*
X3670063Y-5484103D01*
X4098634Y-5236484D02*
X4117682Y-5236484D01*
X4117682Y-5236484D02*
X4136729Y-5246008D01*
X4136729Y-5246008D02*
X4146253Y-5255531D01*
X4146253Y-5255531D02*
X4155777Y-5274579D01*
X4155777Y-5274579D02*
X4165301Y-5312674D01*
X4165301Y-5312674D02*
X4165301Y-5360293D01*
X4165301Y-5360293D02*
X4155777Y-5398389D01*
X4155777Y-5398389D02*
X4146253Y-5417436D01*
X4146253Y-5417436D02*
X4136729Y-5426960D01*
X4136729Y-5426960D02*
X4117682Y-5436484D01*
X4117682Y-5436484D02*
X4098634Y-5436484D01*
X4098634Y-5436484D02*
X4079586Y-5426960D01*
X4079586Y-5426960D02*
X4070063Y-5417436D01*
X4070063Y-5417436D02*
X4060539Y-5398389D01*
X4060539Y-5398389D02*
X4051015Y-5360293D01*
X4051015Y-5360293D02*
X4051015Y-5312674D01*
X4051015Y-5312674D02*
X4060539Y-5274579D01*
X4060539Y-5274579D02*
X4070063Y-5255531D01*
X4070063Y-5255531D02*
X4079586Y-5246008D01*
X4079586Y-5246008D02*
X4098634Y-5236484D01*
X4251015Y-5417436D02*
X4260539Y-5426960D01*
X4260539Y-5426960D02*
X4251015Y-5436484D01*
X4251015Y-5436484D02*
X4241491Y-5426960D01*
X4241491Y-5426960D02*
X4251015Y-5417436D01*
X4251015Y-5417436D02*
X4251015Y-5436484D01*
X4384348Y-5236484D02*
X4403396Y-5236484D01*
X4403396Y-5236484D02*
X4422444Y-5246008D01*
X4422444Y-5246008D02*
X4431968Y-5255531D01*
X4431968Y-5255531D02*
X4441491Y-5274579D01*
X4441491Y-5274579D02*
X4451015Y-5312674D01*
X4451015Y-5312674D02*
X4451015Y-5360293D01*
X4451015Y-5360293D02*
X4441491Y-5398389D01*
X4441491Y-5398389D02*
X4431968Y-5417436D01*
X4431968Y-5417436D02*
X4422444Y-5426960D01*
X4422444Y-5426960D02*
X4403396Y-5436484D01*
X4403396Y-5436484D02*
X4384348Y-5436484D01*
X4384348Y-5436484D02*
X4365301Y-5426960D01*
X4365301Y-5426960D02*
X4355777Y-5417436D01*
X4355777Y-5417436D02*
X4346253Y-5398389D01*
X4346253Y-5398389D02*
X4336729Y-5360293D01*
X4336729Y-5360293D02*
X4336729Y-5312674D01*
X4336729Y-5312674D02*
X4346253Y-5274579D01*
X4346253Y-5274579D02*
X4355777Y-5255531D01*
X4355777Y-5255531D02*
X4365301Y-5246008D01*
X4365301Y-5246008D02*
X4384348Y-5236484D01*
X4641491Y-5436484D02*
X4527206Y-5436484D01*
X4584348Y-5436484D02*
X4584348Y-5236484D01*
X4584348Y-5236484D02*
X4565301Y-5265055D01*
X4565301Y-5265055D02*
X4546253Y-5284103D01*
X4546253Y-5284103D02*
X4527206Y-5293627D01*
X4831968Y-5436484D02*
X4717682Y-5436484D01*
X4774825Y-5436484D02*
X4774825Y-5236484D01*
X4774825Y-5236484D02*
X4755777Y-5265055D01*
X4755777Y-5265055D02*
X4736729Y-5284103D01*
X4736729Y-5284103D02*
X4717682Y-5293627D01*
X4946253Y-5322198D02*
X4927206Y-5312674D01*
X4927206Y-5312674D02*
X4917682Y-5303150D01*
X4917682Y-5303150D02*
X4908158Y-5284103D01*
X4908158Y-5284103D02*
X4908158Y-5274579D01*
X4908158Y-5274579D02*
X4917682Y-5255531D01*
X4917682Y-5255531D02*
X4927206Y-5246008D01*
X4927206Y-5246008D02*
X4946253Y-5236484D01*
X4946253Y-5236484D02*
X4984349Y-5236484D01*
X4984349Y-5236484D02*
X5003396Y-5246008D01*
X5003396Y-5246008D02*
X5012920Y-5255531D01*
X5012920Y-5255531D02*
X5022444Y-5274579D01*
X5022444Y-5274579D02*
X5022444Y-5284103D01*
X5022444Y-5284103D02*
X5012920Y-5303150D01*
X5012920Y-5303150D02*
X5003396Y-5312674D01*
X5003396Y-5312674D02*
X4984349Y-5322198D01*
X4984349Y-5322198D02*
X4946253Y-5322198D01*
X4946253Y-5322198D02*
X4927206Y-5331722D01*
X4927206Y-5331722D02*
X4917682Y-5341246D01*
X4917682Y-5341246D02*
X4908158Y-5360293D01*
X4908158Y-5360293D02*
X4908158Y-5398389D01*
X4908158Y-5398389D02*
X4917682Y-5417436D01*
X4917682Y-5417436D02*
X4927206Y-5426960D01*
X4927206Y-5426960D02*
X4946253Y-5436484D01*
X4946253Y-5436484D02*
X4984349Y-5436484D01*
X4984349Y-5436484D02*
X5003396Y-5426960D01*
X5003396Y-5426960D02*
X5012920Y-5417436D01*
X5012920Y-5417436D02*
X5022444Y-5398389D01*
X5022444Y-5398389D02*
X5022444Y-5360293D01*
X5022444Y-5360293D02*
X5012920Y-5341246D01*
X5012920Y-5341246D02*
X5003396Y-5331722D01*
X5003396Y-5331722D02*
X4984349Y-5322198D01*
X5098634Y-5236484D02*
X5098634Y-5274579D01*
X5174825Y-5236484D02*
X5174825Y-5274579D01*
X5470063Y-5512674D02*
X5460539Y-5503150D01*
X5460539Y-5503150D02*
X5441491Y-5474579D01*
X5441491Y-5474579D02*
X5431968Y-5455531D01*
X5431968Y-5455531D02*
X5422444Y-5426960D01*
X5422444Y-5426960D02*
X5412920Y-5379341D01*
X5412920Y-5379341D02*
X5412920Y-5341246D01*
X5412920Y-5341246D02*
X5422444Y-5293627D01*
X5422444Y-5293627D02*
X5431968Y-5265055D01*
X5431968Y-5265055D02*
X5441491Y-5246008D01*
X5441491Y-5246008D02*
X5460539Y-5217436D01*
X5460539Y-5217436D02*
X5470063Y-5207912D01*
X5651015Y-5436484D02*
X5536730Y-5436484D01*
X5593872Y-5436484D02*
X5593872Y-5236484D01*
X5593872Y-5236484D02*
X5574825Y-5265055D01*
X5574825Y-5265055D02*
X5555777Y-5284103D01*
X5555777Y-5284103D02*
X5536730Y-5293627D01*
X5727206Y-5255531D02*
X5736729Y-5246008D01*
X5736729Y-5246008D02*
X5755777Y-5236484D01*
X5755777Y-5236484D02*
X5803396Y-5236484D01*
X5803396Y-5236484D02*
X5822444Y-5246008D01*
X5822444Y-5246008D02*
X5831968Y-5255531D01*
X5831968Y-5255531D02*
X5841491Y-5274579D01*
X5841491Y-5274579D02*
X5841491Y-5293627D01*
X5841491Y-5293627D02*
X5831968Y-5322198D01*
X5831968Y-5322198D02*
X5717682Y-5436484D01*
X5717682Y-5436484D02*
X5841491Y-5436484D01*
X6079587Y-5436484D02*
X6079587Y-5236484D01*
X6165301Y-5436484D02*
X6165301Y-5331722D01*
X6165301Y-5331722D02*
X6155777Y-5312674D01*
X6155777Y-5312674D02*
X6136730Y-5303150D01*
X6136730Y-5303150D02*
X6108158Y-5303150D01*
X6108158Y-5303150D02*
X6089110Y-5312674D01*
X6089110Y-5312674D02*
X6079587Y-5322198D01*
X6289110Y-5436484D02*
X6270063Y-5426960D01*
X6270063Y-5426960D02*
X6260539Y-5417436D01*
X6260539Y-5417436D02*
X6251015Y-5398389D01*
X6251015Y-5398389D02*
X6251015Y-5341246D01*
X6251015Y-5341246D02*
X6260539Y-5322198D01*
X6260539Y-5322198D02*
X6270063Y-5312674D01*
X6270063Y-5312674D02*
X6289110Y-5303150D01*
X6289110Y-5303150D02*
X6317682Y-5303150D01*
X6317682Y-5303150D02*
X6336730Y-5312674D01*
X6336730Y-5312674D02*
X6346253Y-5322198D01*
X6346253Y-5322198D02*
X6355777Y-5341246D01*
X6355777Y-5341246D02*
X6355777Y-5398389D01*
X6355777Y-5398389D02*
X6346253Y-5417436D01*
X6346253Y-5417436D02*
X6336730Y-5426960D01*
X6336730Y-5426960D02*
X6317682Y-5436484D01*
X6317682Y-5436484D02*
X6289110Y-5436484D01*
X6470063Y-5436484D02*
X6451015Y-5426960D01*
X6451015Y-5426960D02*
X6441491Y-5407912D01*
X6441491Y-5407912D02*
X6441491Y-5236484D01*
X6622444Y-5426960D02*
X6603396Y-5436484D01*
X6603396Y-5436484D02*
X6565301Y-5436484D01*
X6565301Y-5436484D02*
X6546253Y-5426960D01*
X6546253Y-5426960D02*
X6536730Y-5407912D01*
X6536730Y-5407912D02*
X6536730Y-5331722D01*
X6536730Y-5331722D02*
X6546253Y-5312674D01*
X6546253Y-5312674D02*
X6565301Y-5303150D01*
X6565301Y-5303150D02*
X6603396Y-5303150D01*
X6603396Y-5303150D02*
X6622444Y-5312674D01*
X6622444Y-5312674D02*
X6631968Y-5331722D01*
X6631968Y-5331722D02*
X6631968Y-5350770D01*
X6631968Y-5350770D02*
X6536730Y-5369817D01*
X6708158Y-5426960D02*
X6727206Y-5436484D01*
X6727206Y-5436484D02*
X6765301Y-5436484D01*
X6765301Y-5436484D02*
X6784349Y-5426960D01*
X6784349Y-5426960D02*
X6793872Y-5407912D01*
X6793872Y-5407912D02*
X6793872Y-5398389D01*
X6793872Y-5398389D02*
X6784349Y-5379341D01*
X6784349Y-5379341D02*
X6765301Y-5369817D01*
X6765301Y-5369817D02*
X6736730Y-5369817D01*
X6736730Y-5369817D02*
X6717682Y-5360293D01*
X6717682Y-5360293D02*
X6708158Y-5341246D01*
X6708158Y-5341246D02*
X6708158Y-5331722D01*
X6708158Y-5331722D02*
X6717682Y-5312674D01*
X6717682Y-5312674D02*
X6736730Y-5303150D01*
X6736730Y-5303150D02*
X6765301Y-5303150D01*
X6765301Y-5303150D02*
X6784349Y-5312674D01*
X6860539Y-5512674D02*
X6870063Y-5503150D01*
X6870063Y-5503150D02*
X6889111Y-5474579D01*
X6889111Y-5474579D02*
X6898634Y-5455531D01*
X6898634Y-5455531D02*
X6908158Y-5426960D01*
X6908158Y-5426960D02*
X6917682Y-5379341D01*
X6917682Y-5379341D02*
X6917682Y-5341246D01*
X6917682Y-5341246D02*
X6908158Y-5293627D01*
X6908158Y-5293627D02*
X6898634Y-5265055D01*
X6898634Y-5265055D02*
X6889111Y-5246008D01*
X6889111Y-5246008D02*
X6870063Y-5217436D01*
X6870063Y-5217436D02*
X6860539Y-5207912D01*
D13*
X1895000Y-5609000D02*
G75*
G03*
X1895000Y-5609000I-20000J0D01*
G01*
D11*
X2193872Y-5500484D02*
X2212920Y-5500484D01*
X2212920Y-5500484D02*
X2231967Y-5510008D01*
X2231967Y-5510008D02*
X2241491Y-5519531D01*
X2241491Y-5519531D02*
X2251015Y-5538579D01*
X2251015Y-5538579D02*
X2260539Y-5576674D01*
X2260539Y-5576674D02*
X2260539Y-5624293D01*
X2260539Y-5624293D02*
X2251015Y-5662388D01*
X2251015Y-5662388D02*
X2241491Y-5681436D01*
X2241491Y-5681436D02*
X2231967Y-5690960D01*
X2231967Y-5690960D02*
X2212920Y-5700484D01*
X2212920Y-5700484D02*
X2193872Y-5700484D01*
X2193872Y-5700484D02*
X2174824Y-5690960D01*
X2174824Y-5690960D02*
X2165301Y-5681436D01*
X2165301Y-5681436D02*
X2155777Y-5662388D01*
X2155777Y-5662388D02*
X2146253Y-5624293D01*
X2146253Y-5624293D02*
X2146253Y-5576674D01*
X2146253Y-5576674D02*
X2155777Y-5538579D01*
X2155777Y-5538579D02*
X2165301Y-5519531D01*
X2165301Y-5519531D02*
X2174824Y-5510008D01*
X2174824Y-5510008D02*
X2193872Y-5500484D01*
X2346253Y-5681436D02*
X2355777Y-5690960D01*
X2355777Y-5690960D02*
X2346253Y-5700484D01*
X2346253Y-5700484D02*
X2336729Y-5690960D01*
X2336729Y-5690960D02*
X2346253Y-5681436D01*
X2346253Y-5681436D02*
X2346253Y-5700484D01*
X2527205Y-5567150D02*
X2527205Y-5700484D01*
X2479586Y-5490960D02*
X2431967Y-5633817D01*
X2431967Y-5633817D02*
X2555777Y-5633817D01*
X2670063Y-5500484D02*
X2689110Y-5500484D01*
X2689110Y-5500484D02*
X2708158Y-5510008D01*
X2708158Y-5510008D02*
X2717682Y-5519531D01*
X2717682Y-5519531D02*
X2727205Y-5538579D01*
X2727205Y-5538579D02*
X2736729Y-5576674D01*
X2736729Y-5576674D02*
X2736729Y-5624293D01*
X2736729Y-5624293D02*
X2727205Y-5662388D01*
X2727205Y-5662388D02*
X2717682Y-5681436D01*
X2717682Y-5681436D02*
X2708158Y-5690960D01*
X2708158Y-5690960D02*
X2689110Y-5700484D01*
X2689110Y-5700484D02*
X2670063Y-5700484D01*
X2670063Y-5700484D02*
X2651015Y-5690960D01*
X2651015Y-5690960D02*
X2641491Y-5681436D01*
X2641491Y-5681436D02*
X2631967Y-5662388D01*
X2631967Y-5662388D02*
X2622444Y-5624293D01*
X2622444Y-5624293D02*
X2622444Y-5576674D01*
X2622444Y-5576674D02*
X2631967Y-5538579D01*
X2631967Y-5538579D02*
X2641491Y-5519531D01*
X2641491Y-5519531D02*
X2651015Y-5510008D01*
X2651015Y-5510008D02*
X2670063Y-5500484D01*
X2860539Y-5500484D02*
X2879586Y-5500484D01*
X2879586Y-5500484D02*
X2898634Y-5510008D01*
X2898634Y-5510008D02*
X2908158Y-5519531D01*
X2908158Y-5519531D02*
X2917682Y-5538579D01*
X2917682Y-5538579D02*
X2927205Y-5576674D01*
X2927205Y-5576674D02*
X2927205Y-5624293D01*
X2927205Y-5624293D02*
X2917682Y-5662388D01*
X2917682Y-5662388D02*
X2908158Y-5681436D01*
X2908158Y-5681436D02*
X2898634Y-5690960D01*
X2898634Y-5690960D02*
X2879586Y-5700484D01*
X2879586Y-5700484D02*
X2860539Y-5700484D01*
X2860539Y-5700484D02*
X2841491Y-5690960D01*
X2841491Y-5690960D02*
X2831967Y-5681436D01*
X2831967Y-5681436D02*
X2822443Y-5662388D01*
X2822443Y-5662388D02*
X2812920Y-5624293D01*
X2812920Y-5624293D02*
X2812920Y-5576674D01*
X2812920Y-5576674D02*
X2822443Y-5538579D01*
X2822443Y-5538579D02*
X2831967Y-5519531D01*
X2831967Y-5519531D02*
X2841491Y-5510008D01*
X2841491Y-5510008D02*
X2860539Y-5500484D01*
X3012920Y-5700484D02*
X3012920Y-5567150D01*
X3012920Y-5586198D02*
X3022443Y-5576674D01*
X3022443Y-5576674D02*
X3041491Y-5567150D01*
X3041491Y-5567150D02*
X3070063Y-5567150D01*
X3070063Y-5567150D02*
X3089110Y-5576674D01*
X3089110Y-5576674D02*
X3098634Y-5595722D01*
X3098634Y-5595722D02*
X3098634Y-5700484D01*
X3098634Y-5595722D02*
X3108158Y-5576674D01*
X3108158Y-5576674D02*
X3127205Y-5567150D01*
X3127205Y-5567150D02*
X3155777Y-5567150D01*
X3155777Y-5567150D02*
X3174824Y-5576674D01*
X3174824Y-5576674D02*
X3184348Y-5595722D01*
X3184348Y-5595722D02*
X3184348Y-5700484D01*
X3279586Y-5700484D02*
X3279586Y-5567150D01*
X3279586Y-5586198D02*
X3289110Y-5576674D01*
X3289110Y-5576674D02*
X3308158Y-5567150D01*
X3308158Y-5567150D02*
X3336729Y-5567150D01*
X3336729Y-5567150D02*
X3355777Y-5576674D01*
X3355777Y-5576674D02*
X3365301Y-5595722D01*
X3365301Y-5595722D02*
X3365301Y-5700484D01*
X3365301Y-5595722D02*
X3374824Y-5576674D01*
X3374824Y-5576674D02*
X3393872Y-5567150D01*
X3393872Y-5567150D02*
X3422443Y-5567150D01*
X3422443Y-5567150D02*
X3441491Y-5576674D01*
X3441491Y-5576674D02*
X3451015Y-5595722D01*
X3451015Y-5595722D02*
X3451015Y-5700484D01*
X3841491Y-5490960D02*
X3670063Y-5748103D01*
X4098634Y-5500484D02*
X4117682Y-5500484D01*
X4117682Y-5500484D02*
X4136729Y-5510008D01*
X4136729Y-5510008D02*
X4146253Y-5519531D01*
X4146253Y-5519531D02*
X4155777Y-5538579D01*
X4155777Y-5538579D02*
X4165301Y-5576674D01*
X4165301Y-5576674D02*
X4165301Y-5624293D01*
X4165301Y-5624293D02*
X4155777Y-5662388D01*
X4155777Y-5662388D02*
X4146253Y-5681436D01*
X4146253Y-5681436D02*
X4136729Y-5690960D01*
X4136729Y-5690960D02*
X4117682Y-5700484D01*
X4117682Y-5700484D02*
X4098634Y-5700484D01*
X4098634Y-5700484D02*
X4079586Y-5690960D01*
X4079586Y-5690960D02*
X4070063Y-5681436D01*
X4070063Y-5681436D02*
X4060539Y-5662388D01*
X4060539Y-5662388D02*
X4051015Y-5624293D01*
X4051015Y-5624293D02*
X4051015Y-5576674D01*
X4051015Y-5576674D02*
X4060539Y-5538579D01*
X4060539Y-5538579D02*
X4070063Y-5519531D01*
X4070063Y-5519531D02*
X4079586Y-5510008D01*
X4079586Y-5510008D02*
X4098634Y-5500484D01*
X4251015Y-5681436D02*
X4260539Y-5690960D01*
X4260539Y-5690960D02*
X4251015Y-5700484D01*
X4251015Y-5700484D02*
X4241491Y-5690960D01*
X4241491Y-5690960D02*
X4251015Y-5681436D01*
X4251015Y-5681436D02*
X4251015Y-5700484D01*
X4384348Y-5500484D02*
X4403396Y-5500484D01*
X4403396Y-5500484D02*
X4422444Y-5510008D01*
X4422444Y-5510008D02*
X4431968Y-5519531D01*
X4431968Y-5519531D02*
X4441491Y-5538579D01*
X4441491Y-5538579D02*
X4451015Y-5576674D01*
X4451015Y-5576674D02*
X4451015Y-5624293D01*
X4451015Y-5624293D02*
X4441491Y-5662388D01*
X4441491Y-5662388D02*
X4431968Y-5681436D01*
X4431968Y-5681436D02*
X4422444Y-5690960D01*
X4422444Y-5690960D02*
X4403396Y-5700484D01*
X4403396Y-5700484D02*
X4384348Y-5700484D01*
X4384348Y-5700484D02*
X4365301Y-5690960D01*
X4365301Y-5690960D02*
X4355777Y-5681436D01*
X4355777Y-5681436D02*
X4346253Y-5662388D01*
X4346253Y-5662388D02*
X4336729Y-5624293D01*
X4336729Y-5624293D02*
X4336729Y-5576674D01*
X4336729Y-5576674D02*
X4346253Y-5538579D01*
X4346253Y-5538579D02*
X4355777Y-5519531D01*
X4355777Y-5519531D02*
X4365301Y-5510008D01*
X4365301Y-5510008D02*
X4384348Y-5500484D01*
X4641491Y-5700484D02*
X4527206Y-5700484D01*
X4584348Y-5700484D02*
X4584348Y-5500484D01*
X4584348Y-5500484D02*
X4565301Y-5529055D01*
X4565301Y-5529055D02*
X4546253Y-5548103D01*
X4546253Y-5548103D02*
X4527206Y-5557627D01*
X4822444Y-5500484D02*
X4727206Y-5500484D01*
X4727206Y-5500484D02*
X4717682Y-5595722D01*
X4717682Y-5595722D02*
X4727206Y-5586198D01*
X4727206Y-5586198D02*
X4746253Y-5576674D01*
X4746253Y-5576674D02*
X4793872Y-5576674D01*
X4793872Y-5576674D02*
X4812920Y-5586198D01*
X4812920Y-5586198D02*
X4822444Y-5595722D01*
X4822444Y-5595722D02*
X4831968Y-5614769D01*
X4831968Y-5614769D02*
X4831968Y-5662388D01*
X4831968Y-5662388D02*
X4822444Y-5681436D01*
X4822444Y-5681436D02*
X4812920Y-5690960D01*
X4812920Y-5690960D02*
X4793872Y-5700484D01*
X4793872Y-5700484D02*
X4746253Y-5700484D01*
X4746253Y-5700484D02*
X4727206Y-5690960D01*
X4727206Y-5690960D02*
X4717682Y-5681436D01*
X4898634Y-5500484D02*
X5031968Y-5500484D01*
X5031968Y-5500484D02*
X4946253Y-5700484D01*
X5098634Y-5500484D02*
X5098634Y-5538579D01*
X5174825Y-5500484D02*
X5174825Y-5538579D01*
X5470063Y-5776674D02*
X5460539Y-5767150D01*
X5460539Y-5767150D02*
X5441491Y-5738579D01*
X5441491Y-5738579D02*
X5431968Y-5719531D01*
X5431968Y-5719531D02*
X5422444Y-5690960D01*
X5422444Y-5690960D02*
X5412920Y-5643341D01*
X5412920Y-5643341D02*
X5412920Y-5605246D01*
X5412920Y-5605246D02*
X5422444Y-5557627D01*
X5422444Y-5557627D02*
X5431968Y-5529055D01*
X5431968Y-5529055D02*
X5441491Y-5510008D01*
X5441491Y-5510008D02*
X5460539Y-5481436D01*
X5460539Y-5481436D02*
X5470063Y-5471912D01*
X5651015Y-5700484D02*
X5536730Y-5700484D01*
X5593872Y-5700484D02*
X5593872Y-5500484D01*
X5593872Y-5500484D02*
X5574825Y-5529055D01*
X5574825Y-5529055D02*
X5555777Y-5548103D01*
X5555777Y-5548103D02*
X5536730Y-5557627D01*
X5746253Y-5700484D02*
X5784348Y-5700484D01*
X5784348Y-5700484D02*
X5803396Y-5690960D01*
X5803396Y-5690960D02*
X5812920Y-5681436D01*
X5812920Y-5681436D02*
X5831968Y-5652865D01*
X5831968Y-5652865D02*
X5841491Y-5614769D01*
X5841491Y-5614769D02*
X5841491Y-5538579D01*
X5841491Y-5538579D02*
X5831968Y-5519531D01*
X5831968Y-5519531D02*
X5822444Y-5510008D01*
X5822444Y-5510008D02*
X5803396Y-5500484D01*
X5803396Y-5500484D02*
X5765301Y-5500484D01*
X5765301Y-5500484D02*
X5746253Y-5510008D01*
X5746253Y-5510008D02*
X5736729Y-5519531D01*
X5736729Y-5519531D02*
X5727206Y-5538579D01*
X5727206Y-5538579D02*
X5727206Y-5586198D01*
X5727206Y-5586198D02*
X5736729Y-5605246D01*
X5736729Y-5605246D02*
X5746253Y-5614769D01*
X5746253Y-5614769D02*
X5765301Y-5624293D01*
X5765301Y-5624293D02*
X5803396Y-5624293D01*
X5803396Y-5624293D02*
X5822444Y-5614769D01*
X5822444Y-5614769D02*
X5831968Y-5605246D01*
X5831968Y-5605246D02*
X5841491Y-5586198D01*
X5908158Y-5500484D02*
X6031968Y-5500484D01*
X6031968Y-5500484D02*
X5965301Y-5576674D01*
X5965301Y-5576674D02*
X5993872Y-5576674D01*
X5993872Y-5576674D02*
X6012920Y-5586198D01*
X6012920Y-5586198D02*
X6022444Y-5595722D01*
X6022444Y-5595722D02*
X6031968Y-5614769D01*
X6031968Y-5614769D02*
X6031968Y-5662388D01*
X6031968Y-5662388D02*
X6022444Y-5681436D01*
X6022444Y-5681436D02*
X6012920Y-5690960D01*
X6012920Y-5690960D02*
X5993872Y-5700484D01*
X5993872Y-5700484D02*
X5936729Y-5700484D01*
X5936729Y-5700484D02*
X5917682Y-5690960D01*
X5917682Y-5690960D02*
X5908158Y-5681436D01*
X6270063Y-5700484D02*
X6270063Y-5500484D01*
X6355777Y-5700484D02*
X6355777Y-5595722D01*
X6355777Y-5595722D02*
X6346253Y-5576674D01*
X6346253Y-5576674D02*
X6327206Y-5567150D01*
X6327206Y-5567150D02*
X6298634Y-5567150D01*
X6298634Y-5567150D02*
X6279587Y-5576674D01*
X6279587Y-5576674D02*
X6270063Y-5586198D01*
X6479587Y-5700484D02*
X6460539Y-5690960D01*
X6460539Y-5690960D02*
X6451015Y-5681436D01*
X6451015Y-5681436D02*
X6441491Y-5662388D01*
X6441491Y-5662388D02*
X6441491Y-5605246D01*
X6441491Y-5605246D02*
X6451015Y-5586198D01*
X6451015Y-5586198D02*
X6460539Y-5576674D01*
X6460539Y-5576674D02*
X6479587Y-5567150D01*
X6479587Y-5567150D02*
X6508158Y-5567150D01*
X6508158Y-5567150D02*
X6527206Y-5576674D01*
X6527206Y-5576674D02*
X6536730Y-5586198D01*
X6536730Y-5586198D02*
X6546253Y-5605246D01*
X6546253Y-5605246D02*
X6546253Y-5662388D01*
X6546253Y-5662388D02*
X6536730Y-5681436D01*
X6536730Y-5681436D02*
X6527206Y-5690960D01*
X6527206Y-5690960D02*
X6508158Y-5700484D01*
X6508158Y-5700484D02*
X6479587Y-5700484D01*
X6660539Y-5700484D02*
X6641491Y-5690960D01*
X6641491Y-5690960D02*
X6631968Y-5671912D01*
X6631968Y-5671912D02*
X6631968Y-5500484D01*
X6812920Y-5690960D02*
X6793872Y-5700484D01*
X6793872Y-5700484D02*
X6755777Y-5700484D01*
X6755777Y-5700484D02*
X6736730Y-5690960D01*
X6736730Y-5690960D02*
X6727206Y-5671912D01*
X6727206Y-5671912D02*
X6727206Y-5595722D01*
X6727206Y-5595722D02*
X6736730Y-5576674D01*
X6736730Y-5576674D02*
X6755777Y-5567150D01*
X6755777Y-5567150D02*
X6793872Y-5567150D01*
X6793872Y-5567150D02*
X6812920Y-5576674D01*
X6812920Y-5576674D02*
X6822444Y-5595722D01*
X6822444Y-5595722D02*
X6822444Y-5614769D01*
X6822444Y-5614769D02*
X6727206Y-5633817D01*
X6898634Y-5690960D02*
X6917682Y-5700484D01*
X6917682Y-5700484D02*
X6955777Y-5700484D01*
X6955777Y-5700484D02*
X6974825Y-5690960D01*
X6974825Y-5690960D02*
X6984349Y-5671912D01*
X6984349Y-5671912D02*
X6984349Y-5662388D01*
X6984349Y-5662388D02*
X6974825Y-5643341D01*
X6974825Y-5643341D02*
X6955777Y-5633817D01*
X6955777Y-5633817D02*
X6927206Y-5633817D01*
X6927206Y-5633817D02*
X6908158Y-5624293D01*
X6908158Y-5624293D02*
X6898634Y-5605246D01*
X6898634Y-5605246D02*
X6898634Y-5595722D01*
X6898634Y-5595722D02*
X6908158Y-5576674D01*
X6908158Y-5576674D02*
X6927206Y-5567150D01*
X6927206Y-5567150D02*
X6955777Y-5567150D01*
X6955777Y-5567150D02*
X6974825Y-5576674D01*
X7051015Y-5776674D02*
X7060539Y-5767150D01*
X7060539Y-5767150D02*
X7079587Y-5738579D01*
X7079587Y-5738579D02*
X7089111Y-5719531D01*
X7089111Y-5719531D02*
X7098634Y-5690960D01*
X7098634Y-5690960D02*
X7108158Y-5643341D01*
X7108158Y-5643341D02*
X7108158Y-5605246D01*
X7108158Y-5605246D02*
X7098634Y-5557627D01*
X7098634Y-5557627D02*
X7089111Y-5529055D01*
X7089111Y-5529055D02*
X7079587Y-5510008D01*
X7079587Y-5510008D02*
X7060539Y-5481436D01*
X7060539Y-5481436D02*
X7051015Y-5471912D01*
D14*
X1865000Y-5843000D02*
X1865000Y-5903000D01*
X1835000Y-5873000D02*
X1895000Y-5873000D01*
D11*
X2193872Y-5764484D02*
X2212920Y-5764484D01*
X2212920Y-5764484D02*
X2231967Y-5774008D01*
X2231967Y-5774008D02*
X2241491Y-5783531D01*
X2241491Y-5783531D02*
X2251015Y-5802579D01*
X2251015Y-5802579D02*
X2260539Y-5840674D01*
X2260539Y-5840674D02*
X2260539Y-5888293D01*
X2260539Y-5888293D02*
X2251015Y-5926388D01*
X2251015Y-5926388D02*
X2241491Y-5945436D01*
X2241491Y-5945436D02*
X2231967Y-5954960D01*
X2231967Y-5954960D02*
X2212920Y-5964484D01*
X2212920Y-5964484D02*
X2193872Y-5964484D01*
X2193872Y-5964484D02*
X2174824Y-5954960D01*
X2174824Y-5954960D02*
X2165301Y-5945436D01*
X2165301Y-5945436D02*
X2155777Y-5926388D01*
X2155777Y-5926388D02*
X2146253Y-5888293D01*
X2146253Y-5888293D02*
X2146253Y-5840674D01*
X2146253Y-5840674D02*
X2155777Y-5802579D01*
X2155777Y-5802579D02*
X2165301Y-5783531D01*
X2165301Y-5783531D02*
X2174824Y-5774008D01*
X2174824Y-5774008D02*
X2193872Y-5764484D01*
X2346253Y-5945436D02*
X2355777Y-5954960D01*
X2355777Y-5954960D02*
X2346253Y-5964484D01*
X2346253Y-5964484D02*
X2336729Y-5954960D01*
X2336729Y-5954960D02*
X2346253Y-5945436D01*
X2346253Y-5945436D02*
X2346253Y-5964484D01*
X2527205Y-5764484D02*
X2489110Y-5764484D01*
X2489110Y-5764484D02*
X2470063Y-5774008D01*
X2470063Y-5774008D02*
X2460539Y-5783531D01*
X2460539Y-5783531D02*
X2441491Y-5812103D01*
X2441491Y-5812103D02*
X2431967Y-5850198D01*
X2431967Y-5850198D02*
X2431967Y-5926388D01*
X2431967Y-5926388D02*
X2441491Y-5945436D01*
X2441491Y-5945436D02*
X2451015Y-5954960D01*
X2451015Y-5954960D02*
X2470063Y-5964484D01*
X2470063Y-5964484D02*
X2508158Y-5964484D01*
X2508158Y-5964484D02*
X2527205Y-5954960D01*
X2527205Y-5954960D02*
X2536729Y-5945436D01*
X2536729Y-5945436D02*
X2546253Y-5926388D01*
X2546253Y-5926388D02*
X2546253Y-5878769D01*
X2546253Y-5878769D02*
X2536729Y-5859722D01*
X2536729Y-5859722D02*
X2527205Y-5850198D01*
X2527205Y-5850198D02*
X2508158Y-5840674D01*
X2508158Y-5840674D02*
X2470063Y-5840674D01*
X2470063Y-5840674D02*
X2451015Y-5850198D01*
X2451015Y-5850198D02*
X2441491Y-5859722D01*
X2441491Y-5859722D02*
X2431967Y-5878769D01*
X2670063Y-5764484D02*
X2689110Y-5764484D01*
X2689110Y-5764484D02*
X2708158Y-5774008D01*
X2708158Y-5774008D02*
X2717682Y-5783531D01*
X2717682Y-5783531D02*
X2727205Y-5802579D01*
X2727205Y-5802579D02*
X2736729Y-5840674D01*
X2736729Y-5840674D02*
X2736729Y-5888293D01*
X2736729Y-5888293D02*
X2727205Y-5926388D01*
X2727205Y-5926388D02*
X2717682Y-5945436D01*
X2717682Y-5945436D02*
X2708158Y-5954960D01*
X2708158Y-5954960D02*
X2689110Y-5964484D01*
X2689110Y-5964484D02*
X2670063Y-5964484D01*
X2670063Y-5964484D02*
X2651015Y-5954960D01*
X2651015Y-5954960D02*
X2641491Y-5945436D01*
X2641491Y-5945436D02*
X2631967Y-5926388D01*
X2631967Y-5926388D02*
X2622444Y-5888293D01*
X2622444Y-5888293D02*
X2622444Y-5840674D01*
X2622444Y-5840674D02*
X2631967Y-5802579D01*
X2631967Y-5802579D02*
X2641491Y-5783531D01*
X2641491Y-5783531D02*
X2651015Y-5774008D01*
X2651015Y-5774008D02*
X2670063Y-5764484D01*
X2860539Y-5764484D02*
X2879586Y-5764484D01*
X2879586Y-5764484D02*
X2898634Y-5774008D01*
X2898634Y-5774008D02*
X2908158Y-5783531D01*
X2908158Y-5783531D02*
X2917682Y-5802579D01*
X2917682Y-5802579D02*
X2927205Y-5840674D01*
X2927205Y-5840674D02*
X2927205Y-5888293D01*
X2927205Y-5888293D02*
X2917682Y-5926388D01*
X2917682Y-5926388D02*
X2908158Y-5945436D01*
X2908158Y-5945436D02*
X2898634Y-5954960D01*
X2898634Y-5954960D02*
X2879586Y-5964484D01*
X2879586Y-5964484D02*
X2860539Y-5964484D01*
X2860539Y-5964484D02*
X2841491Y-5954960D01*
X2841491Y-5954960D02*
X2831967Y-5945436D01*
X2831967Y-5945436D02*
X2822443Y-5926388D01*
X2822443Y-5926388D02*
X2812920Y-5888293D01*
X2812920Y-5888293D02*
X2812920Y-5840674D01*
X2812920Y-5840674D02*
X2822443Y-5802579D01*
X2822443Y-5802579D02*
X2831967Y-5783531D01*
X2831967Y-5783531D02*
X2841491Y-5774008D01*
X2841491Y-5774008D02*
X2860539Y-5764484D01*
X3012920Y-5964484D02*
X3012920Y-5831150D01*
X3012920Y-5850198D02*
X3022443Y-5840674D01*
X3022443Y-5840674D02*
X3041491Y-5831150D01*
X3041491Y-5831150D02*
X3070063Y-5831150D01*
X3070063Y-5831150D02*
X3089110Y-5840674D01*
X3089110Y-5840674D02*
X3098634Y-5859722D01*
X3098634Y-5859722D02*
X3098634Y-5964484D01*
X3098634Y-5859722D02*
X3108158Y-5840674D01*
X3108158Y-5840674D02*
X3127205Y-5831150D01*
X3127205Y-5831150D02*
X3155777Y-5831150D01*
X3155777Y-5831150D02*
X3174824Y-5840674D01*
X3174824Y-5840674D02*
X3184348Y-5859722D01*
X3184348Y-5859722D02*
X3184348Y-5964484D01*
X3279586Y-5964484D02*
X3279586Y-5831150D01*
X3279586Y-5850198D02*
X3289110Y-5840674D01*
X3289110Y-5840674D02*
X3308158Y-5831150D01*
X3308158Y-5831150D02*
X3336729Y-5831150D01*
X3336729Y-5831150D02*
X3355777Y-5840674D01*
X3355777Y-5840674D02*
X3365301Y-5859722D01*
X3365301Y-5859722D02*
X3365301Y-5964484D01*
X3365301Y-5859722D02*
X3374824Y-5840674D01*
X3374824Y-5840674D02*
X3393872Y-5831150D01*
X3393872Y-5831150D02*
X3422443Y-5831150D01*
X3422443Y-5831150D02*
X3441491Y-5840674D01*
X3441491Y-5840674D02*
X3451015Y-5859722D01*
X3451015Y-5859722D02*
X3451015Y-5964484D01*
X3841491Y-5754960D02*
X3670063Y-6012103D01*
X4098634Y-5764484D02*
X4117682Y-5764484D01*
X4117682Y-5764484D02*
X4136729Y-5774008D01*
X4136729Y-5774008D02*
X4146253Y-5783531D01*
X4146253Y-5783531D02*
X4155777Y-5802579D01*
X4155777Y-5802579D02*
X4165301Y-5840674D01*
X4165301Y-5840674D02*
X4165301Y-5888293D01*
X4165301Y-5888293D02*
X4155777Y-5926388D01*
X4155777Y-5926388D02*
X4146253Y-5945436D01*
X4146253Y-5945436D02*
X4136729Y-5954960D01*
X4136729Y-5954960D02*
X4117682Y-5964484D01*
X4117682Y-5964484D02*
X4098634Y-5964484D01*
X4098634Y-5964484D02*
X4079586Y-5954960D01*
X4079586Y-5954960D02*
X4070063Y-5945436D01*
X4070063Y-5945436D02*
X4060539Y-5926388D01*
X4060539Y-5926388D02*
X4051015Y-5888293D01*
X4051015Y-5888293D02*
X4051015Y-5840674D01*
X4051015Y-5840674D02*
X4060539Y-5802579D01*
X4060539Y-5802579D02*
X4070063Y-5783531D01*
X4070063Y-5783531D02*
X4079586Y-5774008D01*
X4079586Y-5774008D02*
X4098634Y-5764484D01*
X4251015Y-5945436D02*
X4260539Y-5954960D01*
X4260539Y-5954960D02*
X4251015Y-5964484D01*
X4251015Y-5964484D02*
X4241491Y-5954960D01*
X4241491Y-5954960D02*
X4251015Y-5945436D01*
X4251015Y-5945436D02*
X4251015Y-5964484D01*
X4384348Y-5764484D02*
X4403396Y-5764484D01*
X4403396Y-5764484D02*
X4422444Y-5774008D01*
X4422444Y-5774008D02*
X4431968Y-5783531D01*
X4431968Y-5783531D02*
X4441491Y-5802579D01*
X4441491Y-5802579D02*
X4451015Y-5840674D01*
X4451015Y-5840674D02*
X4451015Y-5888293D01*
X4451015Y-5888293D02*
X4441491Y-5926388D01*
X4441491Y-5926388D02*
X4431968Y-5945436D01*
X4431968Y-5945436D02*
X4422444Y-5954960D01*
X4422444Y-5954960D02*
X4403396Y-5964484D01*
X4403396Y-5964484D02*
X4384348Y-5964484D01*
X4384348Y-5964484D02*
X4365301Y-5954960D01*
X4365301Y-5954960D02*
X4355777Y-5945436D01*
X4355777Y-5945436D02*
X4346253Y-5926388D01*
X4346253Y-5926388D02*
X4336729Y-5888293D01*
X4336729Y-5888293D02*
X4336729Y-5840674D01*
X4336729Y-5840674D02*
X4346253Y-5802579D01*
X4346253Y-5802579D02*
X4355777Y-5783531D01*
X4355777Y-5783531D02*
X4365301Y-5774008D01*
X4365301Y-5774008D02*
X4384348Y-5764484D01*
X4527206Y-5783531D02*
X4536729Y-5774008D01*
X4536729Y-5774008D02*
X4555777Y-5764484D01*
X4555777Y-5764484D02*
X4603396Y-5764484D01*
X4603396Y-5764484D02*
X4622444Y-5774008D01*
X4622444Y-5774008D02*
X4631968Y-5783531D01*
X4631968Y-5783531D02*
X4641491Y-5802579D01*
X4641491Y-5802579D02*
X4641491Y-5821627D01*
X4641491Y-5821627D02*
X4631968Y-5850198D01*
X4631968Y-5850198D02*
X4517682Y-5964484D01*
X4517682Y-5964484D02*
X4641491Y-5964484D01*
X4708158Y-5764484D02*
X4831968Y-5764484D01*
X4831968Y-5764484D02*
X4765301Y-5840674D01*
X4765301Y-5840674D02*
X4793872Y-5840674D01*
X4793872Y-5840674D02*
X4812920Y-5850198D01*
X4812920Y-5850198D02*
X4822444Y-5859722D01*
X4822444Y-5859722D02*
X4831968Y-5878769D01*
X4831968Y-5878769D02*
X4831968Y-5926388D01*
X4831968Y-5926388D02*
X4822444Y-5945436D01*
X4822444Y-5945436D02*
X4812920Y-5954960D01*
X4812920Y-5954960D02*
X4793872Y-5964484D01*
X4793872Y-5964484D02*
X4736729Y-5964484D01*
X4736729Y-5964484D02*
X4717682Y-5954960D01*
X4717682Y-5954960D02*
X4708158Y-5945436D01*
X5003396Y-5764484D02*
X4965301Y-5764484D01*
X4965301Y-5764484D02*
X4946253Y-5774008D01*
X4946253Y-5774008D02*
X4936729Y-5783531D01*
X4936729Y-5783531D02*
X4917682Y-5812103D01*
X4917682Y-5812103D02*
X4908158Y-5850198D01*
X4908158Y-5850198D02*
X4908158Y-5926388D01*
X4908158Y-5926388D02*
X4917682Y-5945436D01*
X4917682Y-5945436D02*
X4927206Y-5954960D01*
X4927206Y-5954960D02*
X4946253Y-5964484D01*
X4946253Y-5964484D02*
X4984349Y-5964484D01*
X4984349Y-5964484D02*
X5003396Y-5954960D01*
X5003396Y-5954960D02*
X5012920Y-5945436D01*
X5012920Y-5945436D02*
X5022444Y-5926388D01*
X5022444Y-5926388D02*
X5022444Y-5878769D01*
X5022444Y-5878769D02*
X5012920Y-5859722D01*
X5012920Y-5859722D02*
X5003396Y-5850198D01*
X5003396Y-5850198D02*
X4984349Y-5840674D01*
X4984349Y-5840674D02*
X4946253Y-5840674D01*
X4946253Y-5840674D02*
X4927206Y-5850198D01*
X4927206Y-5850198D02*
X4917682Y-5859722D01*
X4917682Y-5859722D02*
X4908158Y-5878769D01*
X5098634Y-5764484D02*
X5098634Y-5802579D01*
X5174825Y-5764484D02*
X5174825Y-5802579D01*
X5470063Y-6040674D02*
X5460539Y-6031150D01*
X5460539Y-6031150D02*
X5441491Y-6002579D01*
X5441491Y-6002579D02*
X5431968Y-5983531D01*
X5431968Y-5983531D02*
X5422444Y-5954960D01*
X5422444Y-5954960D02*
X5412920Y-5907341D01*
X5412920Y-5907341D02*
X5412920Y-5869246D01*
X5412920Y-5869246D02*
X5422444Y-5821627D01*
X5422444Y-5821627D02*
X5431968Y-5793055D01*
X5431968Y-5793055D02*
X5441491Y-5774008D01*
X5441491Y-5774008D02*
X5460539Y-5745436D01*
X5460539Y-5745436D02*
X5470063Y-5735912D01*
X5631968Y-5831150D02*
X5631968Y-5964484D01*
X5584349Y-5754960D02*
X5536730Y-5897817D01*
X5536730Y-5897817D02*
X5660539Y-5897817D01*
X5889110Y-5964484D02*
X5889110Y-5764484D01*
X5974825Y-5964484D02*
X5974825Y-5859722D01*
X5974825Y-5859722D02*
X5965301Y-5840674D01*
X5965301Y-5840674D02*
X5946253Y-5831150D01*
X5946253Y-5831150D02*
X5917682Y-5831150D01*
X5917682Y-5831150D02*
X5898634Y-5840674D01*
X5898634Y-5840674D02*
X5889110Y-5850198D01*
X6098634Y-5964484D02*
X6079587Y-5954960D01*
X6079587Y-5954960D02*
X6070063Y-5945436D01*
X6070063Y-5945436D02*
X6060539Y-5926388D01*
X6060539Y-5926388D02*
X6060539Y-5869246D01*
X6060539Y-5869246D02*
X6070063Y-5850198D01*
X6070063Y-5850198D02*
X6079587Y-5840674D01*
X6079587Y-5840674D02*
X6098634Y-5831150D01*
X6098634Y-5831150D02*
X6127206Y-5831150D01*
X6127206Y-5831150D02*
X6146253Y-5840674D01*
X6146253Y-5840674D02*
X6155777Y-5850198D01*
X6155777Y-5850198D02*
X6165301Y-5869246D01*
X6165301Y-5869246D02*
X6165301Y-5926388D01*
X6165301Y-5926388D02*
X6155777Y-5945436D01*
X6155777Y-5945436D02*
X6146253Y-5954960D01*
X6146253Y-5954960D02*
X6127206Y-5964484D01*
X6127206Y-5964484D02*
X6098634Y-5964484D01*
X6279587Y-5964484D02*
X6260539Y-5954960D01*
X6260539Y-5954960D02*
X6251015Y-5935912D01*
X6251015Y-5935912D02*
X6251015Y-5764484D01*
X6431968Y-5954960D02*
X6412920Y-5964484D01*
X6412920Y-5964484D02*
X6374825Y-5964484D01*
X6374825Y-5964484D02*
X6355777Y-5954960D01*
X6355777Y-5954960D02*
X6346253Y-5935912D01*
X6346253Y-5935912D02*
X6346253Y-5859722D01*
X6346253Y-5859722D02*
X6355777Y-5840674D01*
X6355777Y-5840674D02*
X6374825Y-5831150D01*
X6374825Y-5831150D02*
X6412920Y-5831150D01*
X6412920Y-5831150D02*
X6431968Y-5840674D01*
X6431968Y-5840674D02*
X6441491Y-5859722D01*
X6441491Y-5859722D02*
X6441491Y-5878769D01*
X6441491Y-5878769D02*
X6346253Y-5897817D01*
X6517682Y-5954960D02*
X6536730Y-5964484D01*
X6536730Y-5964484D02*
X6574825Y-5964484D01*
X6574825Y-5964484D02*
X6593872Y-5954960D01*
X6593872Y-5954960D02*
X6603396Y-5935912D01*
X6603396Y-5935912D02*
X6603396Y-5926388D01*
X6603396Y-5926388D02*
X6593872Y-5907341D01*
X6593872Y-5907341D02*
X6574825Y-5897817D01*
X6574825Y-5897817D02*
X6546253Y-5897817D01*
X6546253Y-5897817D02*
X6527206Y-5888293D01*
X6527206Y-5888293D02*
X6517682Y-5869246D01*
X6517682Y-5869246D02*
X6517682Y-5859722D01*
X6517682Y-5859722D02*
X6527206Y-5840674D01*
X6527206Y-5840674D02*
X6546253Y-5831150D01*
X6546253Y-5831150D02*
X6574825Y-5831150D01*
X6574825Y-5831150D02*
X6593872Y-5840674D01*
X6670063Y-6040674D02*
X6679587Y-6031150D01*
X6679587Y-6031150D02*
X6698634Y-6002579D01*
X6698634Y-6002579D02*
X6708158Y-5983531D01*
X6708158Y-5983531D02*
X6717682Y-5954960D01*
X6717682Y-5954960D02*
X6727206Y-5907341D01*
X6727206Y-5907341D02*
X6727206Y-5869246D01*
X6727206Y-5869246D02*
X6717682Y-5821627D01*
X6717682Y-5821627D02*
X6708158Y-5793055D01*
X6708158Y-5793055D02*
X6698634Y-5774008D01*
X6698634Y-5774008D02*
X6679587Y-5745436D01*
X6679587Y-5745436D02*
X6670063Y-5735912D01*
D15*
X1875962Y-6182962D02*
X1875962Y-6091038D01*
X1784038Y-6091038D01*
X1784038Y-6182962D01*
X1875962Y-6182962D01*
D11*
X2260539Y-6228484D02*
X2146253Y-6228484D01*
X2203396Y-6228484D02*
X2203396Y-6028484D01*
X2203396Y-6028484D02*
X2184348Y-6057055D01*
X2184348Y-6057055D02*
X2165301Y-6076103D01*
X2165301Y-6076103D02*
X2146253Y-6085627D01*
X2346253Y-6209436D02*
X2355777Y-6218960D01*
X2355777Y-6218960D02*
X2346253Y-6228484D01*
X2346253Y-6228484D02*
X2336729Y-6218960D01*
X2336729Y-6218960D02*
X2346253Y-6209436D01*
X2346253Y-6209436D02*
X2346253Y-6228484D01*
X2422444Y-6028484D02*
X2546253Y-6028484D01*
X2546253Y-6028484D02*
X2479586Y-6104674D01*
X2479586Y-6104674D02*
X2508158Y-6104674D01*
X2508158Y-6104674D02*
X2527205Y-6114198D01*
X2527205Y-6114198D02*
X2536729Y-6123722D01*
X2536729Y-6123722D02*
X2546253Y-6142769D01*
X2546253Y-6142769D02*
X2546253Y-6190388D01*
X2546253Y-6190388D02*
X2536729Y-6209436D01*
X2536729Y-6209436D02*
X2527205Y-6218960D01*
X2527205Y-6218960D02*
X2508158Y-6228484D01*
X2508158Y-6228484D02*
X2451015Y-6228484D01*
X2451015Y-6228484D02*
X2431967Y-6218960D01*
X2431967Y-6218960D02*
X2422444Y-6209436D01*
X2670063Y-6028484D02*
X2689110Y-6028484D01*
X2689110Y-6028484D02*
X2708158Y-6038008D01*
X2708158Y-6038008D02*
X2717682Y-6047531D01*
X2717682Y-6047531D02*
X2727205Y-6066579D01*
X2727205Y-6066579D02*
X2736729Y-6104674D01*
X2736729Y-6104674D02*
X2736729Y-6152293D01*
X2736729Y-6152293D02*
X2727205Y-6190388D01*
X2727205Y-6190388D02*
X2717682Y-6209436D01*
X2717682Y-6209436D02*
X2708158Y-6218960D01*
X2708158Y-6218960D02*
X2689110Y-6228484D01*
X2689110Y-6228484D02*
X2670063Y-6228484D01*
X2670063Y-6228484D02*
X2651015Y-6218960D01*
X2651015Y-6218960D02*
X2641491Y-6209436D01*
X2641491Y-6209436D02*
X2631967Y-6190388D01*
X2631967Y-6190388D02*
X2622444Y-6152293D01*
X2622444Y-6152293D02*
X2622444Y-6104674D01*
X2622444Y-6104674D02*
X2631967Y-6066579D01*
X2631967Y-6066579D02*
X2641491Y-6047531D01*
X2641491Y-6047531D02*
X2651015Y-6038008D01*
X2651015Y-6038008D02*
X2670063Y-6028484D01*
X2860539Y-6028484D02*
X2879586Y-6028484D01*
X2879586Y-6028484D02*
X2898634Y-6038008D01*
X2898634Y-6038008D02*
X2908158Y-6047531D01*
X2908158Y-6047531D02*
X2917682Y-6066579D01*
X2917682Y-6066579D02*
X2927205Y-6104674D01*
X2927205Y-6104674D02*
X2927205Y-6152293D01*
X2927205Y-6152293D02*
X2917682Y-6190388D01*
X2917682Y-6190388D02*
X2908158Y-6209436D01*
X2908158Y-6209436D02*
X2898634Y-6218960D01*
X2898634Y-6218960D02*
X2879586Y-6228484D01*
X2879586Y-6228484D02*
X2860539Y-6228484D01*
X2860539Y-6228484D02*
X2841491Y-6218960D01*
X2841491Y-6218960D02*
X2831967Y-6209436D01*
X2831967Y-6209436D02*
X2822443Y-6190388D01*
X2822443Y-6190388D02*
X2812920Y-6152293D01*
X2812920Y-6152293D02*
X2812920Y-6104674D01*
X2812920Y-6104674D02*
X2822443Y-6066579D01*
X2822443Y-6066579D02*
X2831967Y-6047531D01*
X2831967Y-6047531D02*
X2841491Y-6038008D01*
X2841491Y-6038008D02*
X2860539Y-6028484D01*
X3012920Y-6228484D02*
X3012920Y-6095150D01*
X3012920Y-6114198D02*
X3022443Y-6104674D01*
X3022443Y-6104674D02*
X3041491Y-6095150D01*
X3041491Y-6095150D02*
X3070063Y-6095150D01*
X3070063Y-6095150D02*
X3089110Y-6104674D01*
X3089110Y-6104674D02*
X3098634Y-6123722D01*
X3098634Y-6123722D02*
X3098634Y-6228484D01*
X3098634Y-6123722D02*
X3108158Y-6104674D01*
X3108158Y-6104674D02*
X3127205Y-6095150D01*
X3127205Y-6095150D02*
X3155777Y-6095150D01*
X3155777Y-6095150D02*
X3174824Y-6104674D01*
X3174824Y-6104674D02*
X3184348Y-6123722D01*
X3184348Y-6123722D02*
X3184348Y-6228484D01*
X3279586Y-6228484D02*
X3279586Y-6095150D01*
X3279586Y-6114198D02*
X3289110Y-6104674D01*
X3289110Y-6104674D02*
X3308158Y-6095150D01*
X3308158Y-6095150D02*
X3336729Y-6095150D01*
X3336729Y-6095150D02*
X3355777Y-6104674D01*
X3355777Y-6104674D02*
X3365301Y-6123722D01*
X3365301Y-6123722D02*
X3365301Y-6228484D01*
X3365301Y-6123722D02*
X3374824Y-6104674D01*
X3374824Y-6104674D02*
X3393872Y-6095150D01*
X3393872Y-6095150D02*
X3422443Y-6095150D01*
X3422443Y-6095150D02*
X3441491Y-6104674D01*
X3441491Y-6104674D02*
X3451015Y-6123722D01*
X3451015Y-6123722D02*
X3451015Y-6228484D01*
X3841491Y-6018960D02*
X3670063Y-6276103D01*
X4098634Y-6028484D02*
X4117682Y-6028484D01*
X4117682Y-6028484D02*
X4136729Y-6038008D01*
X4136729Y-6038008D02*
X4146253Y-6047531D01*
X4146253Y-6047531D02*
X4155777Y-6066579D01*
X4155777Y-6066579D02*
X4165301Y-6104674D01*
X4165301Y-6104674D02*
X4165301Y-6152293D01*
X4165301Y-6152293D02*
X4155777Y-6190388D01*
X4155777Y-6190388D02*
X4146253Y-6209436D01*
X4146253Y-6209436D02*
X4136729Y-6218960D01*
X4136729Y-6218960D02*
X4117682Y-6228484D01*
X4117682Y-6228484D02*
X4098634Y-6228484D01*
X4098634Y-6228484D02*
X4079586Y-6218960D01*
X4079586Y-6218960D02*
X4070063Y-6209436D01*
X4070063Y-6209436D02*
X4060539Y-6190388D01*
X4060539Y-6190388D02*
X4051015Y-6152293D01*
X4051015Y-6152293D02*
X4051015Y-6104674D01*
X4051015Y-6104674D02*
X4060539Y-6066579D01*
X4060539Y-6066579D02*
X4070063Y-6047531D01*
X4070063Y-6047531D02*
X4079586Y-6038008D01*
X4079586Y-6038008D02*
X4098634Y-6028484D01*
X4251015Y-6209436D02*
X4260539Y-6218960D01*
X4260539Y-6218960D02*
X4251015Y-6228484D01*
X4251015Y-6228484D02*
X4241491Y-6218960D01*
X4241491Y-6218960D02*
X4251015Y-6209436D01*
X4251015Y-6209436D02*
X4251015Y-6228484D01*
X4384348Y-6028484D02*
X4403396Y-6028484D01*
X4403396Y-6028484D02*
X4422444Y-6038008D01*
X4422444Y-6038008D02*
X4431968Y-6047531D01*
X4431968Y-6047531D02*
X4441491Y-6066579D01*
X4441491Y-6066579D02*
X4451015Y-6104674D01*
X4451015Y-6104674D02*
X4451015Y-6152293D01*
X4451015Y-6152293D02*
X4441491Y-6190388D01*
X4441491Y-6190388D02*
X4431968Y-6209436D01*
X4431968Y-6209436D02*
X4422444Y-6218960D01*
X4422444Y-6218960D02*
X4403396Y-6228484D01*
X4403396Y-6228484D02*
X4384348Y-6228484D01*
X4384348Y-6228484D02*
X4365301Y-6218960D01*
X4365301Y-6218960D02*
X4355777Y-6209436D01*
X4355777Y-6209436D02*
X4346253Y-6190388D01*
X4346253Y-6190388D02*
X4336729Y-6152293D01*
X4336729Y-6152293D02*
X4336729Y-6104674D01*
X4336729Y-6104674D02*
X4346253Y-6066579D01*
X4346253Y-6066579D02*
X4355777Y-6047531D01*
X4355777Y-6047531D02*
X4365301Y-6038008D01*
X4365301Y-6038008D02*
X4384348Y-6028484D01*
X4631968Y-6028484D02*
X4536729Y-6028484D01*
X4536729Y-6028484D02*
X4527206Y-6123722D01*
X4527206Y-6123722D02*
X4536729Y-6114198D01*
X4536729Y-6114198D02*
X4555777Y-6104674D01*
X4555777Y-6104674D02*
X4603396Y-6104674D01*
X4603396Y-6104674D02*
X4622444Y-6114198D01*
X4622444Y-6114198D02*
X4631968Y-6123722D01*
X4631968Y-6123722D02*
X4641491Y-6142769D01*
X4641491Y-6142769D02*
X4641491Y-6190388D01*
X4641491Y-6190388D02*
X4631968Y-6209436D01*
X4631968Y-6209436D02*
X4622444Y-6218960D01*
X4622444Y-6218960D02*
X4603396Y-6228484D01*
X4603396Y-6228484D02*
X4555777Y-6228484D01*
X4555777Y-6228484D02*
X4536729Y-6218960D01*
X4536729Y-6218960D02*
X4527206Y-6209436D01*
X4831968Y-6228484D02*
X4717682Y-6228484D01*
X4774825Y-6228484D02*
X4774825Y-6028484D01*
X4774825Y-6028484D02*
X4755777Y-6057055D01*
X4755777Y-6057055D02*
X4736729Y-6076103D01*
X4736729Y-6076103D02*
X4717682Y-6085627D01*
X4908158Y-6047531D02*
X4917682Y-6038008D01*
X4917682Y-6038008D02*
X4936729Y-6028484D01*
X4936729Y-6028484D02*
X4984349Y-6028484D01*
X4984349Y-6028484D02*
X5003396Y-6038008D01*
X5003396Y-6038008D02*
X5012920Y-6047531D01*
X5012920Y-6047531D02*
X5022444Y-6066579D01*
X5022444Y-6066579D02*
X5022444Y-6085627D01*
X5022444Y-6085627D02*
X5012920Y-6114198D01*
X5012920Y-6114198D02*
X4898634Y-6228484D01*
X4898634Y-6228484D02*
X5022444Y-6228484D01*
X5098634Y-6028484D02*
X5098634Y-6066579D01*
X5174825Y-6028484D02*
X5174825Y-6066579D01*
X5470063Y-6304674D02*
X5460539Y-6295150D01*
X5460539Y-6295150D02*
X5441491Y-6266579D01*
X5441491Y-6266579D02*
X5431968Y-6247531D01*
X5431968Y-6247531D02*
X5422444Y-6218960D01*
X5422444Y-6218960D02*
X5412920Y-6171341D01*
X5412920Y-6171341D02*
X5412920Y-6133246D01*
X5412920Y-6133246D02*
X5422444Y-6085627D01*
X5422444Y-6085627D02*
X5431968Y-6057055D01*
X5431968Y-6057055D02*
X5441491Y-6038008D01*
X5441491Y-6038008D02*
X5460539Y-6009436D01*
X5460539Y-6009436D02*
X5470063Y-5999912D01*
X5574825Y-6114198D02*
X5555777Y-6104674D01*
X5555777Y-6104674D02*
X5546253Y-6095150D01*
X5546253Y-6095150D02*
X5536730Y-6076103D01*
X5536730Y-6076103D02*
X5536730Y-6066579D01*
X5536730Y-6066579D02*
X5546253Y-6047531D01*
X5546253Y-6047531D02*
X5555777Y-6038008D01*
X5555777Y-6038008D02*
X5574825Y-6028484D01*
X5574825Y-6028484D02*
X5612920Y-6028484D01*
X5612920Y-6028484D02*
X5631968Y-6038008D01*
X5631968Y-6038008D02*
X5641491Y-6047531D01*
X5641491Y-6047531D02*
X5651015Y-6066579D01*
X5651015Y-6066579D02*
X5651015Y-6076103D01*
X5651015Y-6076103D02*
X5641491Y-6095150D01*
X5641491Y-6095150D02*
X5631968Y-6104674D01*
X5631968Y-6104674D02*
X5612920Y-6114198D01*
X5612920Y-6114198D02*
X5574825Y-6114198D01*
X5574825Y-6114198D02*
X5555777Y-6123722D01*
X5555777Y-6123722D02*
X5546253Y-6133246D01*
X5546253Y-6133246D02*
X5536730Y-6152293D01*
X5536730Y-6152293D02*
X5536730Y-6190388D01*
X5536730Y-6190388D02*
X5546253Y-6209436D01*
X5546253Y-6209436D02*
X5555777Y-6218960D01*
X5555777Y-6218960D02*
X5574825Y-6228484D01*
X5574825Y-6228484D02*
X5612920Y-6228484D01*
X5612920Y-6228484D02*
X5631968Y-6218960D01*
X5631968Y-6218960D02*
X5641491Y-6209436D01*
X5641491Y-6209436D02*
X5651015Y-6190388D01*
X5651015Y-6190388D02*
X5651015Y-6152293D01*
X5651015Y-6152293D02*
X5641491Y-6133246D01*
X5641491Y-6133246D02*
X5631968Y-6123722D01*
X5631968Y-6123722D02*
X5612920Y-6114198D01*
X5889110Y-6228484D02*
X5889110Y-6028484D01*
X5974825Y-6228484D02*
X5974825Y-6123722D01*
X5974825Y-6123722D02*
X5965301Y-6104674D01*
X5965301Y-6104674D02*
X5946253Y-6095150D01*
X5946253Y-6095150D02*
X5917682Y-6095150D01*
X5917682Y-6095150D02*
X5898634Y-6104674D01*
X5898634Y-6104674D02*
X5889110Y-6114198D01*
X6098634Y-6228484D02*
X6079587Y-6218960D01*
X6079587Y-6218960D02*
X6070063Y-6209436D01*
X6070063Y-6209436D02*
X6060539Y-6190388D01*
X6060539Y-6190388D02*
X6060539Y-6133246D01*
X6060539Y-6133246D02*
X6070063Y-6114198D01*
X6070063Y-6114198D02*
X6079587Y-6104674D01*
X6079587Y-6104674D02*
X6098634Y-6095150D01*
X6098634Y-6095150D02*
X6127206Y-6095150D01*
X6127206Y-6095150D02*
X6146253Y-6104674D01*
X6146253Y-6104674D02*
X6155777Y-6114198D01*
X6155777Y-6114198D02*
X6165301Y-6133246D01*
X6165301Y-6133246D02*
X6165301Y-6190388D01*
X6165301Y-6190388D02*
X6155777Y-6209436D01*
X6155777Y-6209436D02*
X6146253Y-6218960D01*
X6146253Y-6218960D02*
X6127206Y-6228484D01*
X6127206Y-6228484D02*
X6098634Y-6228484D01*
X6279587Y-6228484D02*
X6260539Y-6218960D01*
X6260539Y-6218960D02*
X6251015Y-6199912D01*
X6251015Y-6199912D02*
X6251015Y-6028484D01*
X6431968Y-6218960D02*
X6412920Y-6228484D01*
X6412920Y-6228484D02*
X6374825Y-6228484D01*
X6374825Y-6228484D02*
X6355777Y-6218960D01*
X6355777Y-6218960D02*
X6346253Y-6199912D01*
X6346253Y-6199912D02*
X6346253Y-6123722D01*
X6346253Y-6123722D02*
X6355777Y-6104674D01*
X6355777Y-6104674D02*
X6374825Y-6095150D01*
X6374825Y-6095150D02*
X6412920Y-6095150D01*
X6412920Y-6095150D02*
X6431968Y-6104674D01*
X6431968Y-6104674D02*
X6441491Y-6123722D01*
X6441491Y-6123722D02*
X6441491Y-6142769D01*
X6441491Y-6142769D02*
X6346253Y-6161817D01*
X6517682Y-6218960D02*
X6536730Y-6228484D01*
X6536730Y-6228484D02*
X6574825Y-6228484D01*
X6574825Y-6228484D02*
X6593872Y-6218960D01*
X6593872Y-6218960D02*
X6603396Y-6199912D01*
X6603396Y-6199912D02*
X6603396Y-6190388D01*
X6603396Y-6190388D02*
X6593872Y-6171341D01*
X6593872Y-6171341D02*
X6574825Y-6161817D01*
X6574825Y-6161817D02*
X6546253Y-6161817D01*
X6546253Y-6161817D02*
X6527206Y-6152293D01*
X6527206Y-6152293D02*
X6517682Y-6133246D01*
X6517682Y-6133246D02*
X6517682Y-6123722D01*
X6517682Y-6123722D02*
X6527206Y-6104674D01*
X6527206Y-6104674D02*
X6546253Y-6095150D01*
X6546253Y-6095150D02*
X6574825Y-6095150D01*
X6574825Y-6095150D02*
X6593872Y-6104674D01*
X6670063Y-6304674D02*
X6679587Y-6295150D01*
X6679587Y-6295150D02*
X6698634Y-6266579D01*
X6698634Y-6266579D02*
X6708158Y-6247531D01*
X6708158Y-6247531D02*
X6717682Y-6218960D01*
X6717682Y-6218960D02*
X6727206Y-6171341D01*
X6727206Y-6171341D02*
X6727206Y-6133246D01*
X6727206Y-6133246D02*
X6717682Y-6085627D01*
X6717682Y-6085627D02*
X6708158Y-6057055D01*
X6708158Y-6057055D02*
X6698634Y-6038008D01*
X6698634Y-6038008D02*
X6679587Y-6009436D01*
X6679587Y-6009436D02*
X6670063Y-5999912D01*
M02*
