G04 #@! TF.GenerationSoftware,KiCad,Pcbnew,7.0.8*
G04 #@! TF.CreationDate,2023-10-23T09:59:53+02:00*
G04 #@! TF.ProjectId,dual-psu,6475616c-2d70-4737-952e-6b696361645f,rev?*
G04 #@! TF.SameCoordinates,Original*
G04 #@! TF.FileFunction,Legend,Top*
G04 #@! TF.FilePolarity,Positive*
%FSLAX46Y46*%
G04 Gerber Fmt 4.6, Leading zero omitted, Abs format (unit mm)*
G04 Created by KiCad (PCBNEW 7.0.8) date 2023-10-23 09:59:53*
%MOMM*%
%LPD*%
G01*
G04 APERTURE LIST*
G04 Aperture macros list*
%AMRoundRect*
0 Rectangle with rounded corners*
0 $1 Rounding radius*
0 $2 $3 $4 $5 $6 $7 $8 $9 X,Y pos of 4 corners*
0 Add a 4 corners polygon primitive as box body*
4,1,4,$2,$3,$4,$5,$6,$7,$8,$9,$2,$3,0*
0 Add four circle primitives for the rounded corners*
1,1,$1+$1,$2,$3*
1,1,$1+$1,$4,$5*
1,1,$1+$1,$6,$7*
1,1,$1+$1,$8,$9*
0 Add four rect primitives between the rounded corners*
20,1,$1+$1,$2,$3,$4,$5,0*
20,1,$1+$1,$4,$5,$6,$7,0*
20,1,$1+$1,$6,$7,$8,$9,0*
20,1,$1+$1,$8,$9,$2,$3,0*%
G04 Aperture macros list end*
%ADD10C,0.120000*%
%ADD11C,0.150000*%
%ADD12C,1.152000*%
%ADD13RoundRect,0.200000X-0.275000X0.200000X-0.275000X-0.200000X0.275000X-0.200000X0.275000X0.200000X0*%
%ADD14RoundRect,0.250000X0.325000X0.650000X-0.325000X0.650000X-0.325000X-0.650000X0.325000X-0.650000X0*%
%ADD15C,3.200000*%
%ADD16R,2.500000X1.900000*%
%ADD17RoundRect,0.200000X-0.200000X0.250000X-0.200000X-0.250000X0.200000X-0.250000X0.200000X0.250000X0*%
%ADD18R,1.550000X0.600000*%
%ADD19RoundRect,0.200000X-0.200000X-0.275000X0.200000X-0.275000X0.200000X0.275000X-0.200000X0.275000X0*%
%ADD20R,2.600000X2.600000*%
%ADD21C,2.600000*%
%ADD22R,2.900000X5.400000*%
%ADD23RoundRect,0.200000X0.275000X-0.200000X0.275000X0.200000X-0.275000X0.200000X-0.275000X-0.200000X0*%
%ADD24RoundRect,0.200000X0.200000X0.275000X-0.200000X0.275000X-0.200000X-0.275000X0.200000X-0.275000X0*%
%ADD25RoundRect,0.225000X0.250000X-0.225000X0.250000X0.225000X-0.250000X0.225000X-0.250000X-0.225000X0*%
%ADD26RoundRect,0.250000X0.650000X-0.325000X0.650000X0.325000X-0.650000X0.325000X-0.650000X-0.325000X0*%
%ADD27RoundRect,0.225000X-0.225000X-0.250000X0.225000X-0.250000X0.225000X0.250000X-0.225000X0.250000X0*%
%ADD28RoundRect,0.225000X-0.250000X0.225000X-0.250000X-0.225000X0.250000X-0.225000X0.250000X0.225000X0*%
%ADD29RoundRect,0.225000X0.225000X0.375000X-0.225000X0.375000X-0.225000X-0.375000X0.225000X-0.375000X0*%
%ADD30RoundRect,0.243750X-0.456250X0.243750X-0.456250X-0.243750X0.456250X-0.243750X0.456250X0.243750X0*%
%ADD31RoundRect,0.250000X0.550000X-1.500000X0.550000X1.500000X-0.550000X1.500000X-0.550000X-1.500000X0*%
%ADD32RoundRect,0.250000X-0.250000X-0.475000X0.250000X-0.475000X0.250000X0.475000X-0.250000X0.475000X0*%
%ADD33RoundRect,0.225000X-0.225000X-0.375000X0.225000X-0.375000X0.225000X0.375000X-0.225000X0.375000X0*%
%ADD34RoundRect,0.225000X0.225000X0.250000X-0.225000X0.250000X-0.225000X-0.250000X0.225000X-0.250000X0*%
%ADD35RoundRect,0.250000X0.250000X0.475000X-0.250000X0.475000X-0.250000X-0.475000X0.250000X-0.475000X0*%
%ADD36RoundRect,0.225000X-0.375000X0.225000X-0.375000X-0.225000X0.375000X-0.225000X0.375000X0.225000X0*%
%ADD37RoundRect,0.200000X0.200000X-0.250000X0.200000X0.250000X-0.200000X0.250000X-0.200000X-0.250000X0*%
%ADD38RoundRect,0.250000X-0.650000X0.325000X-0.650000X-0.325000X0.650000X-0.325000X0.650000X0.325000X0*%
%ADD39RoundRect,0.062500X0.062500X-0.350000X0.062500X0.350000X-0.062500X0.350000X-0.062500X-0.350000X0*%
%ADD40RoundRect,0.062500X0.350000X-0.062500X0.350000X0.062500X-0.350000X0.062500X-0.350000X-0.062500X0*%
%ADD41RoundRect,0.250000X-1.450000X0.312500X-1.450000X-0.312500X1.450000X-0.312500X1.450000X0.312500X0*%
G04 APERTURE END LIST*
D10*
X67420902Y-26906000D02*
G75*
G03*
X67420902Y-26906000I-55902J0D01*
G01*
X76720902Y-30981000D02*
G75*
G03*
X76720902Y-30981000I-55902J0D01*
G01*
X37715000Y-22456000D02*
G75*
G03*
X37715000Y-22456000I-50000J0D01*
G01*
X51615000Y-22056000D02*
G75*
G03*
X51615000Y-22056000I-50000J0D01*
G01*
D11*
X47422143Y-38579866D02*
X48565001Y-38579866D01*
X47993572Y-38960819D02*
X47993572Y-38198914D01*
X50065001Y-38960819D02*
X49207858Y-38960819D01*
X49636429Y-38960819D02*
X49636429Y-37960819D01*
X49636429Y-37960819D02*
X49493572Y-38103676D01*
X49493572Y-38103676D02*
X49350715Y-38198914D01*
X49350715Y-38198914D02*
X49207858Y-38246533D01*
X50636429Y-38056057D02*
X50707857Y-38008438D01*
X50707857Y-38008438D02*
X50850715Y-37960819D01*
X50850715Y-37960819D02*
X51207857Y-37960819D01*
X51207857Y-37960819D02*
X51350715Y-38008438D01*
X51350715Y-38008438D02*
X51422143Y-38056057D01*
X51422143Y-38056057D02*
X51493572Y-38151295D01*
X51493572Y-38151295D02*
X51493572Y-38246533D01*
X51493572Y-38246533D02*
X51422143Y-38389390D01*
X51422143Y-38389390D02*
X50565000Y-38960819D01*
X50565000Y-38960819D02*
X51493572Y-38960819D01*
X51922143Y-37960819D02*
X52422143Y-38960819D01*
X52422143Y-38960819D02*
X52922143Y-37960819D01*
X69572143Y-38579866D02*
X70715001Y-38579866D01*
X72215001Y-38960819D02*
X71357858Y-38960819D01*
X71786429Y-38960819D02*
X71786429Y-37960819D01*
X71786429Y-37960819D02*
X71643572Y-38103676D01*
X71643572Y-38103676D02*
X71500715Y-38198914D01*
X71500715Y-38198914D02*
X71357858Y-38246533D01*
X72786429Y-38056057D02*
X72857857Y-38008438D01*
X72857857Y-38008438D02*
X73000715Y-37960819D01*
X73000715Y-37960819D02*
X73357857Y-37960819D01*
X73357857Y-37960819D02*
X73500715Y-38008438D01*
X73500715Y-38008438D02*
X73572143Y-38056057D01*
X73572143Y-38056057D02*
X73643572Y-38151295D01*
X73643572Y-38151295D02*
X73643572Y-38246533D01*
X73643572Y-38246533D02*
X73572143Y-38389390D01*
X73572143Y-38389390D02*
X72715000Y-38960819D01*
X72715000Y-38960819D02*
X73643572Y-38960819D01*
X74072143Y-37960819D02*
X74572143Y-38960819D01*
X74572143Y-38960819D02*
X75072143Y-37960819D01*
X43867438Y-42267904D02*
X43819819Y-42363142D01*
X43819819Y-42363142D02*
X43819819Y-42505999D01*
X43819819Y-42505999D02*
X43867438Y-42648856D01*
X43867438Y-42648856D02*
X43962676Y-42744094D01*
X43962676Y-42744094D02*
X44057914Y-42791713D01*
X44057914Y-42791713D02*
X44248390Y-42839332D01*
X44248390Y-42839332D02*
X44391247Y-42839332D01*
X44391247Y-42839332D02*
X44581723Y-42791713D01*
X44581723Y-42791713D02*
X44676961Y-42744094D01*
X44676961Y-42744094D02*
X44772200Y-42648856D01*
X44772200Y-42648856D02*
X44819819Y-42505999D01*
X44819819Y-42505999D02*
X44819819Y-42410761D01*
X44819819Y-42410761D02*
X44772200Y-42267904D01*
X44772200Y-42267904D02*
X44724580Y-42220285D01*
X44724580Y-42220285D02*
X44391247Y-42220285D01*
X44391247Y-42220285D02*
X44391247Y-42410761D01*
X44819819Y-41791713D02*
X43819819Y-41791713D01*
X43819819Y-41791713D02*
X44819819Y-41220285D01*
X44819819Y-41220285D02*
X43819819Y-41220285D01*
X44819819Y-40744094D02*
X43819819Y-40744094D01*
X43819819Y-40744094D02*
X43819819Y-40505999D01*
X43819819Y-40505999D02*
X43867438Y-40363142D01*
X43867438Y-40363142D02*
X43962676Y-40267904D01*
X43962676Y-40267904D02*
X44057914Y-40220285D01*
X44057914Y-40220285D02*
X44248390Y-40172666D01*
X44248390Y-40172666D02*
X44391247Y-40172666D01*
X44391247Y-40172666D02*
X44581723Y-40220285D01*
X44581723Y-40220285D02*
X44676961Y-40267904D01*
X44676961Y-40267904D02*
X44772200Y-40363142D01*
X44772200Y-40363142D02*
X44819819Y-40505999D01*
X44819819Y-40505999D02*
X44819819Y-40744094D01*
X66117438Y-42267904D02*
X66069819Y-42363142D01*
X66069819Y-42363142D02*
X66069819Y-42505999D01*
X66069819Y-42505999D02*
X66117438Y-42648856D01*
X66117438Y-42648856D02*
X66212676Y-42744094D01*
X66212676Y-42744094D02*
X66307914Y-42791713D01*
X66307914Y-42791713D02*
X66498390Y-42839332D01*
X66498390Y-42839332D02*
X66641247Y-42839332D01*
X66641247Y-42839332D02*
X66831723Y-42791713D01*
X66831723Y-42791713D02*
X66926961Y-42744094D01*
X66926961Y-42744094D02*
X67022200Y-42648856D01*
X67022200Y-42648856D02*
X67069819Y-42505999D01*
X67069819Y-42505999D02*
X67069819Y-42410761D01*
X67069819Y-42410761D02*
X67022200Y-42267904D01*
X67022200Y-42267904D02*
X66974580Y-42220285D01*
X66974580Y-42220285D02*
X66641247Y-42220285D01*
X66641247Y-42220285D02*
X66641247Y-42410761D01*
X67069819Y-41791713D02*
X66069819Y-41791713D01*
X66069819Y-41791713D02*
X67069819Y-41220285D01*
X67069819Y-41220285D02*
X66069819Y-41220285D01*
X67069819Y-40744094D02*
X66069819Y-40744094D01*
X66069819Y-40744094D02*
X66069819Y-40505999D01*
X66069819Y-40505999D02*
X66117438Y-40363142D01*
X66117438Y-40363142D02*
X66212676Y-40267904D01*
X66212676Y-40267904D02*
X66307914Y-40220285D01*
X66307914Y-40220285D02*
X66498390Y-40172666D01*
X66498390Y-40172666D02*
X66641247Y-40172666D01*
X66641247Y-40172666D02*
X66831723Y-40220285D01*
X66831723Y-40220285D02*
X66926961Y-40267904D01*
X66926961Y-40267904D02*
X67022200Y-40363142D01*
X67022200Y-40363142D02*
X67069819Y-40505999D01*
X67069819Y-40505999D02*
X67069819Y-40744094D01*
X30103095Y-33058438D02*
X30007857Y-33010819D01*
X30007857Y-33010819D02*
X29865000Y-33010819D01*
X29865000Y-33010819D02*
X29722143Y-33058438D01*
X29722143Y-33058438D02*
X29626905Y-33153676D01*
X29626905Y-33153676D02*
X29579286Y-33248914D01*
X29579286Y-33248914D02*
X29531667Y-33439390D01*
X29531667Y-33439390D02*
X29531667Y-33582247D01*
X29531667Y-33582247D02*
X29579286Y-33772723D01*
X29579286Y-33772723D02*
X29626905Y-33867961D01*
X29626905Y-33867961D02*
X29722143Y-33963200D01*
X29722143Y-33963200D02*
X29865000Y-34010819D01*
X29865000Y-34010819D02*
X29960238Y-34010819D01*
X29960238Y-34010819D02*
X30103095Y-33963200D01*
X30103095Y-33963200D02*
X30150714Y-33915580D01*
X30150714Y-33915580D02*
X30150714Y-33582247D01*
X30150714Y-33582247D02*
X29960238Y-33582247D01*
X30579286Y-34010819D02*
X30579286Y-33010819D01*
X30579286Y-33010819D02*
X31150714Y-34010819D01*
X31150714Y-34010819D02*
X31150714Y-33010819D01*
X31626905Y-34010819D02*
X31626905Y-33010819D01*
X31626905Y-33010819D02*
X31865000Y-33010819D01*
X31865000Y-33010819D02*
X32007857Y-33058438D01*
X32007857Y-33058438D02*
X32103095Y-33153676D01*
X32103095Y-33153676D02*
X32150714Y-33248914D01*
X32150714Y-33248914D02*
X32198333Y-33439390D01*
X32198333Y-33439390D02*
X32198333Y-33582247D01*
X32198333Y-33582247D02*
X32150714Y-33772723D01*
X32150714Y-33772723D02*
X32103095Y-33867961D01*
X32103095Y-33867961D02*
X32007857Y-33963200D01*
X32007857Y-33963200D02*
X31865000Y-34010819D01*
X31865000Y-34010819D02*
X31626905Y-34010819D01*
X29531667Y-28010819D02*
X29865000Y-29010819D01*
X29865000Y-29010819D02*
X30198333Y-28010819D01*
X31103095Y-28915580D02*
X31055476Y-28963200D01*
X31055476Y-28963200D02*
X30912619Y-29010819D01*
X30912619Y-29010819D02*
X30817381Y-29010819D01*
X30817381Y-29010819D02*
X30674524Y-28963200D01*
X30674524Y-28963200D02*
X30579286Y-28867961D01*
X30579286Y-28867961D02*
X30531667Y-28772723D01*
X30531667Y-28772723D02*
X30484048Y-28582247D01*
X30484048Y-28582247D02*
X30484048Y-28439390D01*
X30484048Y-28439390D02*
X30531667Y-28248914D01*
X30531667Y-28248914D02*
X30579286Y-28153676D01*
X30579286Y-28153676D02*
X30674524Y-28058438D01*
X30674524Y-28058438D02*
X30817381Y-28010819D01*
X30817381Y-28010819D02*
X30912619Y-28010819D01*
X30912619Y-28010819D02*
X31055476Y-28058438D01*
X31055476Y-28058438D02*
X31103095Y-28106057D01*
X32103095Y-28915580D02*
X32055476Y-28963200D01*
X32055476Y-28963200D02*
X31912619Y-29010819D01*
X31912619Y-29010819D02*
X31817381Y-29010819D01*
X31817381Y-29010819D02*
X31674524Y-28963200D01*
X31674524Y-28963200D02*
X31579286Y-28867961D01*
X31579286Y-28867961D02*
X31531667Y-28772723D01*
X31531667Y-28772723D02*
X31484048Y-28582247D01*
X31484048Y-28582247D02*
X31484048Y-28439390D01*
X31484048Y-28439390D02*
X31531667Y-28248914D01*
X31531667Y-28248914D02*
X31579286Y-28153676D01*
X31579286Y-28153676D02*
X31674524Y-28058438D01*
X31674524Y-28058438D02*
X31817381Y-28010819D01*
X31817381Y-28010819D02*
X31912619Y-28010819D01*
X31912619Y-28010819D02*
X32055476Y-28058438D01*
X32055476Y-28058438D02*
X32103095Y-28106057D01*
X49034048Y-43179866D02*
X49795953Y-43179866D01*
X49415000Y-43560819D02*
X49415000Y-42798914D01*
X71259048Y-43179866D02*
X72020953Y-43179866D01*
X71640000Y-43560819D02*
X71640000Y-42798914D01*
X73584048Y-26104866D02*
X74345953Y-26104866D01*
X73965000Y-26485819D02*
X73965000Y-25723914D01*
X64384048Y-29404866D02*
X65145953Y-29404866D01*
X64765000Y-29785819D02*
X64765000Y-29023914D01*
X35984048Y-23379866D02*
X36745953Y-23379866D01*
X36365000Y-23760819D02*
X36365000Y-22998914D01*
X26809048Y-43179866D02*
X27570953Y-43179866D01*
X27190000Y-43560819D02*
X27190000Y-42798914D01*
X26136428Y-38579866D02*
X27279286Y-38579866D01*
X26707857Y-38960819D02*
X26707857Y-38198914D01*
X28707857Y-37960819D02*
X27993571Y-37960819D01*
X27993571Y-37960819D02*
X27922143Y-38437009D01*
X27922143Y-38437009D02*
X27993571Y-38389390D01*
X27993571Y-38389390D02*
X28136429Y-38341771D01*
X28136429Y-38341771D02*
X28493571Y-38341771D01*
X28493571Y-38341771D02*
X28636429Y-38389390D01*
X28636429Y-38389390D02*
X28707857Y-38437009D01*
X28707857Y-38437009D02*
X28779286Y-38532247D01*
X28779286Y-38532247D02*
X28779286Y-38770342D01*
X28779286Y-38770342D02*
X28707857Y-38865580D01*
X28707857Y-38865580D02*
X28636429Y-38913200D01*
X28636429Y-38913200D02*
X28493571Y-38960819D01*
X28493571Y-38960819D02*
X28136429Y-38960819D01*
X28136429Y-38960819D02*
X27993571Y-38913200D01*
X27993571Y-38913200D02*
X27922143Y-38865580D01*
X29207857Y-37960819D02*
X29707857Y-38960819D01*
X29707857Y-38960819D02*
X30207857Y-37960819D01*
X47569819Y-34825048D02*
X48284104Y-34825048D01*
X48284104Y-34825048D02*
X48426961Y-34872667D01*
X48426961Y-34872667D02*
X48522200Y-34967905D01*
X48522200Y-34967905D02*
X48569819Y-35110762D01*
X48569819Y-35110762D02*
X48569819Y-35206000D01*
X48569819Y-33872667D02*
X48569819Y-34348857D01*
X48569819Y-34348857D02*
X47569819Y-34348857D01*
X48474580Y-32967905D02*
X48522200Y-33015524D01*
X48522200Y-33015524D02*
X48569819Y-33158381D01*
X48569819Y-33158381D02*
X48569819Y-33253619D01*
X48569819Y-33253619D02*
X48522200Y-33396476D01*
X48522200Y-33396476D02*
X48426961Y-33491714D01*
X48426961Y-33491714D02*
X48331723Y-33539333D01*
X48331723Y-33539333D02*
X48141247Y-33586952D01*
X48141247Y-33586952D02*
X47998390Y-33586952D01*
X47998390Y-33586952D02*
X47807914Y-33539333D01*
X47807914Y-33539333D02*
X47712676Y-33491714D01*
X47712676Y-33491714D02*
X47617438Y-33396476D01*
X47617438Y-33396476D02*
X47569819Y-33253619D01*
X47569819Y-33253619D02*
X47569819Y-33158381D01*
X47569819Y-33158381D02*
X47617438Y-33015524D01*
X47617438Y-33015524D02*
X47665057Y-32967905D01*
X47569819Y-32253619D02*
X48284104Y-32253619D01*
X48284104Y-32253619D02*
X48426961Y-32301238D01*
X48426961Y-32301238D02*
X48522200Y-32396476D01*
X48522200Y-32396476D02*
X48569819Y-32539333D01*
X48569819Y-32539333D02*
X48569819Y-32634571D01*
X48569819Y-31301238D02*
X48569819Y-31777428D01*
X48569819Y-31777428D02*
X47569819Y-31777428D01*
X48474580Y-30396476D02*
X48522200Y-30444095D01*
X48522200Y-30444095D02*
X48569819Y-30586952D01*
X48569819Y-30586952D02*
X48569819Y-30682190D01*
X48569819Y-30682190D02*
X48522200Y-30825047D01*
X48522200Y-30825047D02*
X48426961Y-30920285D01*
X48426961Y-30920285D02*
X48331723Y-30967904D01*
X48331723Y-30967904D02*
X48141247Y-31015523D01*
X48141247Y-31015523D02*
X47998390Y-31015523D01*
X47998390Y-31015523D02*
X47807914Y-30967904D01*
X47807914Y-30967904D02*
X47712676Y-30920285D01*
X47712676Y-30920285D02*
X47617438Y-30825047D01*
X47617438Y-30825047D02*
X47569819Y-30682190D01*
X47569819Y-30682190D02*
X47569819Y-30586952D01*
X47569819Y-30586952D02*
X47617438Y-30444095D01*
X47617438Y-30444095D02*
X47665057Y-30396476D01*
X47569819Y-29682190D02*
X48284104Y-29682190D01*
X48284104Y-29682190D02*
X48426961Y-29729809D01*
X48426961Y-29729809D02*
X48522200Y-29825047D01*
X48522200Y-29825047D02*
X48569819Y-29967904D01*
X48569819Y-29967904D02*
X48569819Y-30063142D01*
X48569819Y-28729809D02*
X48569819Y-29205999D01*
X48569819Y-29205999D02*
X47569819Y-29205999D01*
X48474580Y-27825047D02*
X48522200Y-27872666D01*
X48522200Y-27872666D02*
X48569819Y-28015523D01*
X48569819Y-28015523D02*
X48569819Y-28110761D01*
X48569819Y-28110761D02*
X48522200Y-28253618D01*
X48522200Y-28253618D02*
X48426961Y-28348856D01*
X48426961Y-28348856D02*
X48331723Y-28396475D01*
X48331723Y-28396475D02*
X48141247Y-28444094D01*
X48141247Y-28444094D02*
X47998390Y-28444094D01*
X47998390Y-28444094D02*
X47807914Y-28396475D01*
X47807914Y-28396475D02*
X47712676Y-28348856D01*
X47712676Y-28348856D02*
X47617438Y-28253618D01*
X47617438Y-28253618D02*
X47569819Y-28110761D01*
X47569819Y-28110761D02*
X47569819Y-28015523D01*
X47569819Y-28015523D02*
X47617438Y-27872666D01*
X47617438Y-27872666D02*
X47665057Y-27825047D01*
X47569819Y-27110761D02*
X48284104Y-27110761D01*
X48284104Y-27110761D02*
X48426961Y-27158380D01*
X48426961Y-27158380D02*
X48522200Y-27253618D01*
X48522200Y-27253618D02*
X48569819Y-27396475D01*
X48569819Y-27396475D02*
X48569819Y-27491713D01*
X48569819Y-26158380D02*
X48569819Y-26634570D01*
X48569819Y-26634570D02*
X47569819Y-26634570D01*
X48474580Y-25253618D02*
X48522200Y-25301237D01*
X48522200Y-25301237D02*
X48569819Y-25444094D01*
X48569819Y-25444094D02*
X48569819Y-25539332D01*
X48569819Y-25539332D02*
X48522200Y-25682189D01*
X48522200Y-25682189D02*
X48426961Y-25777427D01*
X48426961Y-25777427D02*
X48331723Y-25825046D01*
X48331723Y-25825046D02*
X48141247Y-25872665D01*
X48141247Y-25872665D02*
X47998390Y-25872665D01*
X47998390Y-25872665D02*
X47807914Y-25825046D01*
X47807914Y-25825046D02*
X47712676Y-25777427D01*
X47712676Y-25777427D02*
X47617438Y-25682189D01*
X47617438Y-25682189D02*
X47569819Y-25539332D01*
X47569819Y-25539332D02*
X47569819Y-25444094D01*
X47569819Y-25444094D02*
X47617438Y-25301237D01*
X47617438Y-25301237D02*
X47665057Y-25253618D01*
X60119819Y-34197847D02*
X60119819Y-34674037D01*
X60119819Y-34674037D02*
X59119819Y-34674037D01*
X60119819Y-33340704D02*
X60119819Y-33912132D01*
X60119819Y-33626418D02*
X59119819Y-33626418D01*
X59119819Y-33626418D02*
X59262676Y-33721656D01*
X59262676Y-33721656D02*
X59357914Y-33816894D01*
X59357914Y-33816894D02*
X59405533Y-33912132D01*
X59119819Y-32721656D02*
X59119819Y-32626418D01*
X59119819Y-32626418D02*
X59167438Y-32531180D01*
X59167438Y-32531180D02*
X59215057Y-32483561D01*
X59215057Y-32483561D02*
X59310295Y-32435942D01*
X59310295Y-32435942D02*
X59500771Y-32388323D01*
X59500771Y-32388323D02*
X59738866Y-32388323D01*
X59738866Y-32388323D02*
X59929342Y-32435942D01*
X59929342Y-32435942D02*
X60024580Y-32483561D01*
X60024580Y-32483561D02*
X60072200Y-32531180D01*
X60072200Y-32531180D02*
X60119819Y-32626418D01*
X60119819Y-32626418D02*
X60119819Y-32721656D01*
X60119819Y-32721656D02*
X60072200Y-32816894D01*
X60072200Y-32816894D02*
X60024580Y-32864513D01*
X60024580Y-32864513D02*
X59929342Y-32912132D01*
X59929342Y-32912132D02*
X59738866Y-32959751D01*
X59738866Y-32959751D02*
X59500771Y-32959751D01*
X59500771Y-32959751D02*
X59310295Y-32912132D01*
X59310295Y-32912132D02*
X59215057Y-32864513D01*
X59215057Y-32864513D02*
X59167438Y-32816894D01*
X59167438Y-32816894D02*
X59119819Y-32721656D01*
X60119819Y-31435942D02*
X60119819Y-32007370D01*
X60119819Y-31721656D02*
X59119819Y-31721656D01*
X59119819Y-31721656D02*
X59262676Y-31816894D01*
X59262676Y-31816894D02*
X59357914Y-31912132D01*
X59357914Y-31912132D02*
X59405533Y-32007370D01*
D10*
X52987500Y-18806242D02*
X52987500Y-19280758D01*
X51942500Y-18806242D02*
X51942500Y-19280758D01*
X71976252Y-32666000D02*
X70553748Y-32666000D01*
X71976252Y-30846000D02*
X70553748Y-30846000D01*
X82075000Y-19896000D02*
X80725000Y-19896000D01*
X82075000Y-19896000D02*
X82075000Y-25816000D01*
X76355000Y-19896000D02*
X77705000Y-19896000D01*
X76355000Y-19896000D02*
X76355000Y-25816000D01*
X82075000Y-25816000D02*
X80725000Y-25816000D01*
X76355000Y-25816000D02*
X77705000Y-25816000D01*
X77515000Y-30956000D02*
X73915000Y-30956000D01*
X73915000Y-30956000D02*
X73915000Y-34556000D01*
X77515000Y-34556000D02*
X77515000Y-30956000D01*
X73915000Y-34556000D02*
X77515000Y-34556000D01*
D11*
X49658600Y-22706400D02*
X49658600Y-22656400D01*
X49658600Y-22706400D02*
X45508600Y-22706400D01*
X49658600Y-22656400D02*
X51058600Y-22656400D01*
X49658600Y-17556400D02*
X49658600Y-17701400D01*
X49658600Y-17556400D02*
X45508600Y-17556400D01*
X45508600Y-22706400D02*
X45508600Y-22561400D01*
X45508600Y-17556400D02*
X45508600Y-17701400D01*
D10*
X61640242Y-22433500D02*
X62114758Y-22433500D01*
X61640242Y-23478500D02*
X62114758Y-23478500D01*
X20105000Y-25756000D02*
X19465000Y-25756000D01*
X19465000Y-25756000D02*
X19465000Y-26156000D01*
X28825000Y-25996000D02*
X19705000Y-25996000D01*
X28825000Y-25996000D02*
X28825000Y-36116000D01*
X21265000Y-25996000D02*
X21265000Y-36116000D01*
X20165000Y-25996000D02*
X20165000Y-36116000D01*
X19705000Y-25996000D02*
X19705000Y-36116000D01*
X23484000Y-27008000D02*
X23377000Y-26902000D01*
X23218000Y-27274000D02*
X23111000Y-27168000D01*
X26419000Y-29944000D02*
X26312000Y-29837000D01*
X26153000Y-30210000D02*
X26046000Y-30103000D01*
X23773000Y-32298000D02*
X23377000Y-31903000D01*
X23491000Y-32549000D02*
X23111000Y-32169000D01*
X26419000Y-34944000D02*
X26039000Y-34564000D01*
X26153000Y-35210000D02*
X25757000Y-34815000D01*
X28825000Y-36116000D02*
X19705000Y-36116000D01*
X26945000Y-28556000D02*
G75*
G03*
X26945000Y-28556000I-2180000J0D01*
G01*
X26945000Y-33556000D02*
G75*
G03*
X26945000Y-33556000I-2180000J0D01*
G01*
X41591200Y-23607000D02*
X41591200Y-27157000D01*
X41591200Y-23607000D02*
X54611200Y-23607000D01*
X41591200Y-36627000D02*
X41591200Y-33077000D01*
X41591200Y-36627000D02*
X54611200Y-36627000D01*
X54611200Y-23607000D02*
X54611200Y-27157000D01*
X54611200Y-36627000D02*
X54611200Y-33077000D01*
X67692500Y-19243258D02*
X67692500Y-18768742D01*
X68737500Y-19243258D02*
X68737500Y-18768742D01*
X77290000Y-46166000D02*
X77290000Y-46806000D01*
X77290000Y-46806000D02*
X77690000Y-46806000D01*
X77530000Y-37446000D02*
X77530000Y-46566000D01*
X77530000Y-37446000D02*
X87650000Y-37446000D01*
X77530000Y-45006000D02*
X87650000Y-45006000D01*
X77530000Y-46106000D02*
X87650000Y-46106000D01*
X77530000Y-46566000D02*
X87650000Y-46566000D01*
X78542000Y-42787000D02*
X78436000Y-42894000D01*
X78808000Y-43053000D02*
X78702000Y-43160000D01*
X81478000Y-39852000D02*
X81371000Y-39959000D01*
X81744000Y-40118000D02*
X81637000Y-40225000D01*
X83832000Y-42498000D02*
X83437000Y-42894000D01*
X84083000Y-42780000D02*
X83703000Y-43160000D01*
X86478000Y-39852000D02*
X86098000Y-40232000D01*
X86744000Y-40118000D02*
X86349000Y-40514000D01*
X87650000Y-37446000D02*
X87650000Y-46566000D01*
X82270000Y-41506000D02*
G75*
G03*
X82270000Y-41506000I-2180000J0D01*
G01*
X87270000Y-41506000D02*
G75*
G03*
X87270000Y-41506000I-2180000J0D01*
G01*
X71515242Y-27483500D02*
X71989758Y-27483500D01*
X71515242Y-28528500D02*
X71989758Y-28528500D01*
X44364758Y-17128500D02*
X43890242Y-17128500D01*
X44364758Y-16083500D02*
X43890242Y-16083500D01*
X66105000Y-19146580D02*
X66105000Y-18865420D01*
X67125000Y-19146580D02*
X67125000Y-18865420D01*
X66505000Y-34517252D02*
X66505000Y-33094748D01*
X68325000Y-34517252D02*
X68325000Y-33094748D01*
X53111920Y-21546000D02*
X53393080Y-21546000D01*
X53111920Y-22566000D02*
X53393080Y-22566000D01*
X71925000Y-18865420D02*
X71925000Y-19146580D01*
X70905000Y-18865420D02*
X70905000Y-19146580D01*
X41075000Y-25356000D02*
X41075000Y-23356000D01*
X41075000Y-25356000D02*
X37065000Y-25356000D01*
X41075000Y-23356000D02*
X37065000Y-23356000D01*
X29100000Y-39821000D02*
X27180000Y-39821000D01*
X27180000Y-39821000D02*
X27180000Y-42506000D01*
X29100000Y-42506000D02*
X29100000Y-39821000D01*
X35217500Y-35443500D02*
X35217500Y-34656000D01*
X34823750Y-35049750D02*
X35611250Y-35049750D01*
X34719437Y-34416000D02*
X36005000Y-34416000D01*
X34719437Y-34416000D02*
X33655000Y-33351563D01*
X39410563Y-34416000D02*
X38125000Y-34416000D01*
X39410563Y-34416000D02*
X40475000Y-33351563D01*
X33655000Y-33351563D02*
X33655000Y-27596000D01*
X40475000Y-33351563D02*
X40475000Y-27596000D01*
X33655000Y-27596000D02*
X36005000Y-27596000D01*
X40475000Y-27596000D02*
X38125000Y-27596000D01*
X40555000Y-20867252D02*
X40555000Y-19444748D01*
X42375000Y-20867252D02*
X42375000Y-19444748D01*
X64055000Y-22709080D02*
X64055000Y-22427920D01*
X65075000Y-22709080D02*
X65075000Y-22427920D01*
X47439758Y-17128500D02*
X46965242Y-17128500D01*
X47439758Y-16083500D02*
X46965242Y-16083500D01*
X32840000Y-46166000D02*
X32840000Y-46806000D01*
X32840000Y-46806000D02*
X33240000Y-46806000D01*
X33080000Y-37446000D02*
X33080000Y-46566000D01*
X33080000Y-37446000D02*
X43200000Y-37446000D01*
X33080000Y-45006000D02*
X43200000Y-45006000D01*
X33080000Y-46106000D02*
X43200000Y-46106000D01*
X33080000Y-46566000D02*
X43200000Y-46566000D01*
X34092000Y-42787000D02*
X33986000Y-42894000D01*
X34358000Y-43053000D02*
X34252000Y-43160000D01*
X37028000Y-39852000D02*
X36921000Y-39959000D01*
X37294000Y-40118000D02*
X37187000Y-40225000D01*
X39382000Y-42498000D02*
X38987000Y-42894000D01*
X39633000Y-42780000D02*
X39253000Y-43160000D01*
X42028000Y-39852000D02*
X41648000Y-40232000D01*
X42294000Y-40118000D02*
X41899000Y-40514000D01*
X43200000Y-37446000D02*
X43200000Y-46566000D01*
X37820000Y-41506000D02*
G75*
G03*
X37820000Y-41506000I-2180000J0D01*
G01*
X42820000Y-41506000D02*
G75*
G03*
X42820000Y-41506000I-2180000J0D01*
G01*
X69875000Y-28652920D02*
X69875000Y-28934080D01*
X68855000Y-28652920D02*
X68855000Y-28934080D01*
X76653748Y-26621000D02*
X77176252Y-26621000D01*
X76653748Y-28091000D02*
X77176252Y-28091000D01*
X55065000Y-46166000D02*
X55065000Y-46806000D01*
X55065000Y-46806000D02*
X55465000Y-46806000D01*
X55305000Y-37446000D02*
X55305000Y-46566000D01*
X55305000Y-37446000D02*
X65425000Y-37446000D01*
X55305000Y-45006000D02*
X65425000Y-45006000D01*
X55305000Y-46106000D02*
X65425000Y-46106000D01*
X55305000Y-46566000D02*
X65425000Y-46566000D01*
X56317000Y-42787000D02*
X56211000Y-42894000D01*
X56583000Y-43053000D02*
X56477000Y-43160000D01*
X59253000Y-39852000D02*
X59146000Y-39959000D01*
X59519000Y-40118000D02*
X59412000Y-40225000D01*
X61607000Y-42498000D02*
X61212000Y-42894000D01*
X61858000Y-42780000D02*
X61478000Y-43160000D01*
X64253000Y-39852000D02*
X63873000Y-40232000D01*
X64519000Y-40118000D02*
X64124000Y-40514000D01*
X65425000Y-37446000D02*
X65425000Y-46566000D01*
X60045000Y-41506000D02*
G75*
G03*
X60045000Y-41506000I-2180000J0D01*
G01*
X65045000Y-41506000D02*
G75*
G03*
X65045000Y-41506000I-2180000J0D01*
G01*
X51325000Y-39821000D02*
X49405000Y-39821000D01*
X49405000Y-39821000D02*
X49405000Y-42506000D01*
X51325000Y-42506000D02*
X51325000Y-39821000D01*
X60055000Y-27262800D02*
X60055000Y-29262800D01*
X60055000Y-27262800D02*
X64065000Y-27262800D01*
X60055000Y-29262800D02*
X64065000Y-29262800D01*
X64418080Y-19866000D02*
X64136920Y-19866000D01*
X64418080Y-18846000D02*
X64136920Y-18846000D01*
X58851252Y-26791000D02*
X58328748Y-26791000D01*
X58851252Y-25321000D02*
X58328748Y-25321000D01*
X29567500Y-41743258D02*
X29567500Y-41268742D01*
X30612500Y-41743258D02*
X30612500Y-41268742D01*
X51817500Y-41743258D02*
X51817500Y-41268742D01*
X52862500Y-41743258D02*
X52862500Y-41268742D01*
X75965000Y-21396000D02*
X73965000Y-21396000D01*
X75965000Y-21396000D02*
X75965000Y-25406000D01*
X73965000Y-21396000D02*
X73965000Y-25406000D01*
X36215000Y-22356000D02*
X39815000Y-22356000D01*
X39815000Y-22356000D02*
X39815000Y-18756000D01*
X36215000Y-18756000D02*
X36215000Y-22356000D01*
X39815000Y-18756000D02*
X36215000Y-18756000D01*
X63187500Y-25018742D02*
X63187500Y-25493258D01*
X62142500Y-25018742D02*
X62142500Y-25493258D01*
X60630000Y-25396580D02*
X60630000Y-25115420D01*
X61650000Y-25396580D02*
X61650000Y-25115420D01*
X60405000Y-36038800D02*
X61755000Y-36038800D01*
X60405000Y-36038800D02*
X60405000Y-30118800D01*
X66125000Y-36038800D02*
X64775000Y-36038800D01*
X66125000Y-36038800D02*
X66125000Y-30118800D01*
X60405000Y-30118800D02*
X61755000Y-30118800D01*
X66125000Y-30118800D02*
X64775000Y-30118800D01*
X58340242Y-23683500D02*
X58814758Y-23683500D01*
X58340242Y-24728500D02*
X58814758Y-24728500D01*
X73550000Y-39821000D02*
X71630000Y-39821000D01*
X71630000Y-39821000D02*
X71630000Y-42506000D01*
X73550000Y-42506000D02*
X73550000Y-39821000D01*
X48175000Y-40844748D02*
X48175000Y-42267252D01*
X46355000Y-40844748D02*
X46355000Y-42267252D01*
X69292500Y-19243258D02*
X69292500Y-18768742D01*
X70337500Y-19243258D02*
X70337500Y-18768742D01*
X51440242Y-16083500D02*
X51914758Y-16083500D01*
X51440242Y-17128500D02*
X51914758Y-17128500D01*
X70725000Y-26316000D02*
X70250000Y-26316000D01*
X66505000Y-25841000D02*
X66505000Y-26316000D01*
X70725000Y-25841000D02*
X70725000Y-26316000D01*
X66505000Y-22571000D02*
X66505000Y-22096000D01*
X70725000Y-22571000D02*
X70725000Y-22096000D01*
X66505000Y-22096000D02*
X66980000Y-22096000D01*
X70725000Y-22096000D02*
X70250000Y-22096000D01*
X74017500Y-41743258D02*
X74017500Y-41268742D01*
X75062500Y-41743258D02*
X75062500Y-41268742D01*
X35257000Y-19459748D02*
X35257000Y-22232252D01*
X31837000Y-19459748D02*
X31837000Y-22232252D01*
X80387500Y-28443742D02*
X80387500Y-28918258D01*
X79342500Y-28443742D02*
X79342500Y-28918258D01*
%LPC*%
D12*
X24765000Y-20031000D03*
X91015000Y-41431000D03*
D13*
X52465000Y-18218500D03*
X52465000Y-19868500D03*
D14*
X72740000Y-31756000D03*
X69790000Y-31756000D03*
D15*
X22565000Y-18556000D03*
D16*
X79215000Y-20806000D03*
X79215000Y-24906000D03*
D15*
X92565000Y-18556000D03*
D17*
X76665000Y-31756000D03*
X74765000Y-31756000D03*
X75715000Y-33756000D03*
D18*
X50283600Y-22036400D03*
X50283600Y-20766400D03*
X50283600Y-19496400D03*
X50283600Y-18226400D03*
X44883600Y-18226400D03*
X44883600Y-19496400D03*
X44883600Y-20766400D03*
X44883600Y-22036400D03*
D19*
X61052500Y-22956000D03*
X62702500Y-22956000D03*
D20*
X24765000Y-28556000D03*
D21*
X24765000Y-33556000D03*
D22*
X43151200Y-30117000D03*
X53051200Y-30117000D03*
D23*
X68215000Y-19831000D03*
X68215000Y-18181000D03*
D20*
X80090000Y-41506000D03*
D21*
X85090000Y-41506000D03*
D19*
X70927500Y-28006000D03*
X72577500Y-28006000D03*
D24*
X44952500Y-16606000D03*
X43302500Y-16606000D03*
D25*
X66615000Y-19781000D03*
X66615000Y-18231000D03*
D26*
X67415000Y-35281000D03*
X67415000Y-32331000D03*
D27*
X52477500Y-22056000D03*
X54027500Y-22056000D03*
D28*
X71415000Y-18231000D03*
X71415000Y-19781000D03*
D29*
X40365000Y-24356000D03*
X37065000Y-24356000D03*
D30*
X28140000Y-40568500D03*
X28140000Y-42443500D03*
D31*
X37065000Y-33706000D03*
X37065000Y-28306000D03*
D26*
X41465000Y-21631000D03*
X41465000Y-18681000D03*
D25*
X64565000Y-23343500D03*
X64565000Y-21793500D03*
D15*
X22565000Y-43556000D03*
D24*
X48027500Y-16606000D03*
X46377500Y-16606000D03*
D20*
X35640000Y-41506000D03*
D21*
X40640000Y-41506000D03*
D28*
X69365000Y-28018500D03*
X69365000Y-29568500D03*
D32*
X75965000Y-27356000D03*
X77865000Y-27356000D03*
D20*
X57865000Y-41506000D03*
D21*
X62865000Y-41506000D03*
D15*
X92565000Y-43556000D03*
D30*
X50365000Y-40568500D03*
X50365000Y-42443500D03*
D33*
X60765000Y-28262800D03*
X64065000Y-28262800D03*
D34*
X65052500Y-19356000D03*
X63502500Y-19356000D03*
D35*
X59540000Y-26056000D03*
X57640000Y-26056000D03*
D23*
X30090000Y-42331000D03*
X30090000Y-40681000D03*
X52340000Y-42331000D03*
X52340000Y-40681000D03*
D36*
X74965000Y-22106000D03*
X74965000Y-25406000D03*
D37*
X37065000Y-21556000D03*
X38965000Y-21556000D03*
X38015000Y-19556000D03*
D13*
X62665000Y-24431000D03*
X62665000Y-26081000D03*
D25*
X61140000Y-26031000D03*
X61140000Y-24481000D03*
D16*
X63265000Y-35128800D03*
X63265000Y-31028800D03*
D19*
X57752500Y-24206000D03*
X59402500Y-24206000D03*
D30*
X72590000Y-40568500D03*
X72590000Y-42443500D03*
D38*
X47265000Y-40081000D03*
X47265000Y-43031000D03*
D23*
X69815000Y-19831000D03*
X69815000Y-18181000D03*
D19*
X50852500Y-16606000D03*
X52502500Y-16606000D03*
D39*
X67365000Y-26143500D03*
X67865000Y-26143500D03*
X68365000Y-26143500D03*
X68865000Y-26143500D03*
X69365000Y-26143500D03*
X69865000Y-26143500D03*
D40*
X70552500Y-25456000D03*
X70552500Y-24956000D03*
X70552500Y-24456000D03*
X70552500Y-23956000D03*
X70552500Y-23456000D03*
X70552500Y-22956000D03*
D39*
X69865000Y-22268500D03*
X69365000Y-22268500D03*
X68865000Y-22268500D03*
X68365000Y-22268500D03*
X67865000Y-22268500D03*
X67365000Y-22268500D03*
D40*
X66677500Y-22956000D03*
X66677500Y-23456000D03*
X66677500Y-23956000D03*
X66677500Y-24456000D03*
X66677500Y-24956000D03*
X66677500Y-25456000D03*
D20*
X68615000Y-24206000D03*
D23*
X74540000Y-42331000D03*
X74540000Y-40681000D03*
D41*
X33547000Y-18708500D03*
X33547000Y-22983500D03*
D13*
X79865000Y-27856000D03*
X79865000Y-29506000D03*
%LPD*%
M02*
