G04 #@! TF.GenerationSoftware,KiCad,Pcbnew,7.0.8*
G04 #@! TF.CreationDate,2023-10-23T09:59:53+02:00*
G04 #@! TF.ProjectId,dual-psu,6475616c-2d70-4737-952e-6b696361645f,rev?*
G04 #@! TF.SameCoordinates,Original*
G04 #@! TF.FileFunction,Copper,L4,Bot*
G04 #@! TF.FilePolarity,Positive*
%FSLAX46Y46*%
G04 Gerber Fmt 4.6, Leading zero omitted, Abs format (unit mm)*
G04 Created by KiCad (PCBNEW 7.0.8) date 2023-10-23 09:59:53*
%MOMM*%
%LPD*%
G01*
G04 APERTURE LIST*
G04 #@! TA.AperFunction,SMDPad,CuDef*
%ADD10R,2.950000X4.500000*%
G04 #@! TD*
G04 #@! TA.AperFunction,ComponentPad*
%ADD11R,2.600000X2.600000*%
G04 #@! TD*
G04 #@! TA.AperFunction,ComponentPad*
%ADD12C,2.600000*%
G04 #@! TD*
G04 #@! TA.AperFunction,ViaPad*
%ADD13C,0.600000*%
G04 #@! TD*
G04 #@! TA.AperFunction,ViaPad*
%ADD14C,0.800000*%
G04 #@! TD*
G04 #@! TA.AperFunction,ViaPad*
%ADD15C,1.000000*%
G04 #@! TD*
G04 #@! TA.AperFunction,Conductor*
%ADD16C,0.750000*%
G04 #@! TD*
G04 #@! TA.AperFunction,Conductor*
%ADD17C,0.500000*%
G04 #@! TD*
G04 APERTURE END LIST*
D10*
X47583600Y-20131400D03*
D11*
X24765000Y-28556000D03*
D12*
X24765000Y-33556000D03*
D11*
X80090000Y-41506000D03*
D12*
X85090000Y-41506000D03*
D11*
X35640000Y-41506000D03*
D12*
X40640000Y-41506000D03*
D11*
X57865000Y-41506000D03*
D12*
X62865000Y-41506000D03*
D13*
X67765000Y-24206000D03*
X67765000Y-23356000D03*
X68615000Y-23356000D03*
X69465000Y-23356000D03*
X69465000Y-24206000D03*
X69465000Y-25056000D03*
X68615000Y-25056000D03*
X67765000Y-25056000D03*
D14*
X56715000Y-25506000D03*
X56890000Y-24206000D03*
X60190000Y-22956000D03*
X63640000Y-21781000D03*
X62590000Y-19356000D03*
X66590000Y-17331000D03*
X78815000Y-27356000D03*
X80790000Y-27881000D03*
X80940000Y-25156000D03*
X80940000Y-24256000D03*
X77515000Y-24256000D03*
X77515000Y-25156000D03*
X68715000Y-32906000D03*
X68815000Y-31756000D03*
X52340000Y-43181000D03*
X72590000Y-43381000D03*
X30090000Y-43331000D03*
X29765000Y-16256000D03*
X32265000Y-16256000D03*
X34765000Y-16256000D03*
X37265000Y-16256000D03*
X59765000Y-16256000D03*
X62265000Y-16256000D03*
X64765000Y-16256000D03*
X67265000Y-16256000D03*
X69765000Y-16256000D03*
X72265000Y-16256000D03*
X74765000Y-16256000D03*
X77265000Y-16256000D03*
X79765000Y-16256000D03*
X82265000Y-16256000D03*
X84765000Y-16256000D03*
X87265000Y-16256000D03*
X89765000Y-16256000D03*
X24765000Y-16256000D03*
X20265000Y-26756000D03*
X20265000Y-41756000D03*
X20265000Y-39256000D03*
X20265000Y-36756000D03*
X20265000Y-34256000D03*
X20265000Y-29256000D03*
X20265000Y-24256000D03*
X20265000Y-21756000D03*
X32265000Y-45756000D03*
X34765000Y-45756000D03*
X52265000Y-45756000D03*
X72265000Y-45756000D03*
X82265000Y-45756000D03*
X39765000Y-45756000D03*
X42265000Y-45756000D03*
X64765000Y-45756000D03*
X59765000Y-45756000D03*
X47265000Y-45756000D03*
X49765000Y-45756000D03*
X54765000Y-45756000D03*
X67265000Y-45756000D03*
X27265000Y-45756000D03*
X74765000Y-45756000D03*
X37265000Y-45756000D03*
X44765000Y-45756000D03*
X69765000Y-45756000D03*
X57265000Y-45756000D03*
X87265000Y-45756000D03*
X62265000Y-45756000D03*
X79765000Y-45756000D03*
X84765000Y-45756000D03*
X89765000Y-45756000D03*
X77265000Y-45756000D03*
X29765000Y-45756000D03*
X94765000Y-21756000D03*
X94765000Y-31756000D03*
X94765000Y-24256000D03*
X94765000Y-29256000D03*
X94765000Y-34256000D03*
X94765000Y-26756000D03*
X94765000Y-39256000D03*
X94765000Y-36756000D03*
X94765000Y-41756000D03*
X66915000Y-28706000D03*
X68015000Y-28706000D03*
X66915000Y-29756000D03*
X68015000Y-29756000D03*
X66915000Y-30806000D03*
X68015000Y-30806000D03*
X29765000Y-19256000D03*
X29765000Y-21756000D03*
X29765000Y-24256000D03*
X27265000Y-24256000D03*
X24765000Y-24256000D03*
X27265000Y-21756000D03*
X27265000Y-19256000D03*
X24765000Y-21756000D03*
X24765000Y-36756000D03*
X24765000Y-39256000D03*
X32265000Y-31756000D03*
X57265000Y-19256000D03*
X59765000Y-19256000D03*
X59765000Y-21756000D03*
X57265000Y-21756000D03*
X84765000Y-19256000D03*
X87265000Y-19256000D03*
X82265000Y-26756000D03*
X92265000Y-34256000D03*
X87265000Y-34256000D03*
X84765000Y-34256000D03*
X84765000Y-36756000D03*
X89765000Y-34256000D03*
X89765000Y-36756000D03*
X87265000Y-36756000D03*
X92265000Y-36756000D03*
X92265000Y-39256000D03*
X89765000Y-39256000D03*
X69765000Y-41756000D03*
X32265000Y-36756000D03*
X89765000Y-19256000D03*
X84765000Y-26756000D03*
X92265000Y-26756000D03*
X84765000Y-29256000D03*
X87265000Y-21756000D03*
X89765000Y-21756000D03*
X92265000Y-21756000D03*
X92265000Y-31756000D03*
X39765000Y-16256000D03*
X57265000Y-16256000D03*
X54765000Y-16256000D03*
X43815000Y-19506000D03*
X41465000Y-19806000D03*
X41465000Y-17706000D03*
X42765000Y-18756000D03*
X46565000Y-18306000D03*
X48665000Y-18306000D03*
X46565000Y-19506000D03*
X48665000Y-19506000D03*
X48665000Y-20806000D03*
X46565000Y-20806000D03*
X46565000Y-22056000D03*
X48665000Y-22056000D03*
X48865000Y-16606000D03*
X50015000Y-16606000D03*
X38315000Y-28306000D03*
X35815000Y-28306000D03*
X37065000Y-26106000D03*
X37065000Y-30506000D03*
X36165000Y-24356000D03*
X37965000Y-24356000D03*
X37065000Y-22456000D03*
X56715000Y-26706000D03*
X70915000Y-31756000D03*
X46415000Y-44056000D03*
X48115000Y-44056000D03*
X67265000Y-39256000D03*
X69765000Y-43706000D03*
X69765000Y-39256000D03*
X60815000Y-39256000D03*
X64915000Y-39256000D03*
X76265000Y-39256000D03*
X77665000Y-36106000D03*
X77665000Y-34256000D03*
X22465000Y-24256000D03*
X22465000Y-21756000D03*
X22465000Y-36756000D03*
X22465000Y-39256000D03*
X24765000Y-41756000D03*
X77665000Y-30906000D03*
X35865000Y-21556000D03*
X33515000Y-20756000D03*
X82823000Y-21862000D03*
X82315000Y-31768000D03*
X82315000Y-29228000D03*
X84855000Y-21862000D03*
X92221000Y-29228000D03*
X82315000Y-18560000D03*
X89935000Y-29228000D03*
X27265000Y-16256000D03*
X87395000Y-24148000D03*
X89935000Y-31768000D03*
X89935000Y-26688000D03*
X84855000Y-24148000D03*
X87395000Y-31768000D03*
X82823000Y-24148000D03*
D13*
X68615000Y-24206000D03*
D14*
X92221000Y-24148000D03*
X89935000Y-24148000D03*
X87395000Y-26688000D03*
X82315000Y-34308000D03*
X87395000Y-29228000D03*
X84855000Y-31768000D03*
X24765000Y-45756000D03*
X74965000Y-24456000D03*
X72365000Y-19793500D03*
D15*
X52015000Y-34256000D03*
D14*
X73215000Y-30206000D03*
X72190000Y-30206000D03*
D15*
X53515000Y-34256000D03*
D14*
X72190000Y-29181000D03*
D15*
X52015000Y-35756000D03*
D14*
X73215000Y-29181000D03*
D15*
X53515000Y-35756000D03*
D13*
X71665000Y-24556000D03*
X71665000Y-23756000D03*
X69365000Y-27456000D03*
D16*
X74965000Y-22393500D02*
X72365000Y-19793500D01*
X74965000Y-24456000D02*
X74965000Y-22393500D01*
D17*
X69365000Y-27456000D02*
X69365000Y-26856000D01*
X71665000Y-24556000D02*
X71665000Y-23756000D01*
X69365000Y-26856000D02*
X71665000Y-24556000D01*
G04 #@! TA.AperFunction,Conductor*
G36*
X72858109Y-28772557D02*
G01*
X72882326Y-28777373D01*
X73032106Y-28822808D01*
X73054925Y-28832261D01*
X73192958Y-28906041D01*
X73213490Y-28919759D01*
X73334482Y-29019054D01*
X73351945Y-29036517D01*
X73451238Y-29157507D01*
X73464958Y-29178041D01*
X73538738Y-29316074D01*
X73548191Y-29338894D01*
X73593624Y-29488667D01*
X73598442Y-29512892D01*
X73614696Y-29677915D01*
X73615000Y-29684094D01*
X73615000Y-35552905D01*
X73614696Y-35559084D01*
X73597001Y-35738738D01*
X73592183Y-35762962D01*
X73542482Y-35926808D01*
X73533029Y-35949629D01*
X73452318Y-36100627D01*
X73438595Y-36121165D01*
X73329979Y-36253514D01*
X73312514Y-36270979D01*
X73180165Y-36379595D01*
X73159627Y-36393318D01*
X73008629Y-36474029D01*
X72985808Y-36483482D01*
X72821962Y-36533183D01*
X72797738Y-36538001D01*
X72618085Y-36555696D01*
X72611906Y-36556000D01*
X52268094Y-36556000D01*
X52261915Y-36555696D01*
X52082261Y-36538001D01*
X52058037Y-36533183D01*
X51894191Y-36483482D01*
X51871372Y-36474030D01*
X51823011Y-36448180D01*
X51720372Y-36393318D01*
X51699834Y-36379595D01*
X51567485Y-36270979D01*
X51550020Y-36253514D01*
X51441404Y-36121165D01*
X51427681Y-36100627D01*
X51414064Y-36075153D01*
X51346967Y-35949622D01*
X51337520Y-35926815D01*
X51287815Y-35762959D01*
X51282998Y-35738737D01*
X51265304Y-35559084D01*
X51265000Y-35552905D01*
X51265000Y-34509094D01*
X51265304Y-34502915D01*
X51282998Y-34323262D01*
X51287814Y-34299042D01*
X51337521Y-34135181D01*
X51346965Y-34112380D01*
X51427682Y-33961369D01*
X51441398Y-33940842D01*
X51550025Y-33808479D01*
X51567479Y-33791025D01*
X51699842Y-33682398D01*
X51720369Y-33668682D01*
X51871380Y-33587965D01*
X51894181Y-33578521D01*
X52058042Y-33528814D01*
X52082257Y-33523998D01*
X52214385Y-33510985D01*
X52261915Y-33506304D01*
X52268094Y-33506000D01*
X53760867Y-33506000D01*
X53769090Y-33506538D01*
X53877964Y-33520871D01*
X53909731Y-33529383D01*
X53999675Y-33566639D01*
X54028160Y-33583085D01*
X54105393Y-33642349D01*
X54128650Y-33665606D01*
X54187914Y-33742839D01*
X54204361Y-33771326D01*
X54241615Y-33861265D01*
X54250128Y-33893037D01*
X54265000Y-34006000D01*
X54265000Y-34506000D01*
X70764991Y-34506000D01*
X70765000Y-34506000D01*
X71765000Y-34506000D01*
X71765000Y-32074005D01*
X71771167Y-32035068D01*
X71800674Y-31944255D01*
X71820460Y-31756000D01*
X71800674Y-31567744D01*
X71771167Y-31476930D01*
X71765000Y-31437994D01*
X71765000Y-29684094D01*
X71765304Y-29677915D01*
X71781557Y-29512893D01*
X71781558Y-29512892D01*
X71781557Y-29512888D01*
X71786373Y-29488675D01*
X71831809Y-29338889D01*
X71841261Y-29316074D01*
X71858833Y-29283197D01*
X71915044Y-29178035D01*
X71928756Y-29157513D01*
X72028059Y-29036511D01*
X72045511Y-29019059D01*
X72166513Y-28919756D01*
X72187035Y-28906044D01*
X72325074Y-28832261D01*
X72347889Y-28822809D01*
X72497675Y-28777373D01*
X72521888Y-28772557D01*
X72677654Y-28757216D01*
X72702346Y-28757216D01*
X72858109Y-28772557D01*
G37*
G04 #@! TD.AperFunction*
G04 #@! TA.AperFunction,Conductor*
G36*
X95900000Y-15045462D02*
G01*
X95954538Y-15100000D01*
X95974500Y-15174500D01*
X95974500Y-46825500D01*
X95954538Y-46900000D01*
X95900000Y-46954538D01*
X95825500Y-46974500D01*
X19174500Y-46974500D01*
X19100000Y-46954538D01*
X19045462Y-46900000D01*
X19025500Y-46825500D01*
X19025500Y-43623773D01*
X20710788Y-43623773D01*
X20740412Y-43893005D01*
X20740414Y-43893018D01*
X20808928Y-44155088D01*
X20862722Y-44281675D01*
X20914870Y-44404390D01*
X20914875Y-44404399D01*
X21055981Y-44635610D01*
X21055984Y-44635614D01*
X21229247Y-44843812D01*
X21229259Y-44843824D01*
X21430990Y-45024575D01*
X21430999Y-45024583D01*
X21543954Y-45099313D01*
X21656910Y-45174044D01*
X21902176Y-45289020D01*
X22161569Y-45367060D01*
X22429561Y-45406500D01*
X22429568Y-45406500D01*
X22632629Y-45406500D01*
X22632631Y-45406500D01*
X22835156Y-45391677D01*
X23099553Y-45332780D01*
X23352558Y-45236014D01*
X23588777Y-45103441D01*
X23803177Y-44937888D01*
X23991186Y-44742881D01*
X24148799Y-44522579D01*
X24272656Y-44281675D01*
X24360118Y-44025305D01*
X24409319Y-43758933D01*
X24419212Y-43488235D01*
X24389586Y-43218982D01*
X24321072Y-42956912D01*
X24277281Y-42853863D01*
X33839500Y-42853863D01*
X33839502Y-42853888D01*
X33845908Y-42913478D01*
X33845909Y-42913484D01*
X33896202Y-43048329D01*
X33896204Y-43048333D01*
X33982452Y-43163544D01*
X33982455Y-43163547D01*
X34097666Y-43249795D01*
X34097670Y-43249797D01*
X34232517Y-43300091D01*
X34292114Y-43306499D01*
X34292118Y-43306499D01*
X34292127Y-43306500D01*
X36987872Y-43306499D01*
X37047483Y-43300091D01*
X37143447Y-43264298D01*
X37182329Y-43249797D01*
X37182333Y-43249795D01*
X37239938Y-43206671D01*
X37297546Y-43163546D01*
X37360017Y-43080096D01*
X37360451Y-43079516D01*
X40127143Y-43079516D01*
X40128544Y-43080095D01*
X40381077Y-43140723D01*
X40640000Y-43161101D01*
X40898922Y-43140723D01*
X41151452Y-43080096D01*
X41151457Y-43080095D01*
X41152854Y-43079516D01*
X40927202Y-42853863D01*
X56064500Y-42853863D01*
X56064502Y-42853888D01*
X56070908Y-42913478D01*
X56070909Y-42913484D01*
X56121202Y-43048329D01*
X56121204Y-43048333D01*
X56207452Y-43163544D01*
X56207455Y-43163547D01*
X56322666Y-43249795D01*
X56322670Y-43249797D01*
X56457517Y-43300091D01*
X56517114Y-43306499D01*
X56517118Y-43306499D01*
X56517127Y-43306500D01*
X59212872Y-43306499D01*
X59272483Y-43300091D01*
X59368447Y-43264298D01*
X59407329Y-43249797D01*
X59407333Y-43249795D01*
X59464938Y-43206671D01*
X59522546Y-43163546D01*
X59585017Y-43080096D01*
X59585451Y-43079516D01*
X62352143Y-43079516D01*
X62353544Y-43080095D01*
X62606077Y-43140723D01*
X62865000Y-43161101D01*
X63123922Y-43140723D01*
X63376452Y-43080096D01*
X63376457Y-43080095D01*
X63377854Y-43079516D01*
X63152202Y-42853863D01*
X78289500Y-42853863D01*
X78289502Y-42853888D01*
X78295908Y-42913478D01*
X78295909Y-42913484D01*
X78346202Y-43048329D01*
X78346204Y-43048333D01*
X78432452Y-43163544D01*
X78432455Y-43163547D01*
X78547666Y-43249795D01*
X78547670Y-43249797D01*
X78682517Y-43300091D01*
X78742114Y-43306499D01*
X78742118Y-43306499D01*
X78742127Y-43306500D01*
X81437872Y-43306499D01*
X81497483Y-43300091D01*
X81593447Y-43264298D01*
X81632329Y-43249797D01*
X81632333Y-43249795D01*
X81689938Y-43206671D01*
X81747546Y-43163546D01*
X81810017Y-43080096D01*
X81810451Y-43079516D01*
X84577143Y-43079516D01*
X84578544Y-43080095D01*
X84831077Y-43140723D01*
X85090000Y-43161101D01*
X85348922Y-43140723D01*
X85601452Y-43080096D01*
X85601457Y-43080095D01*
X85602854Y-43079516D01*
X85090000Y-42566660D01*
X84577143Y-43079516D01*
X81810451Y-43079516D01*
X81833795Y-43048333D01*
X81833797Y-43048329D01*
X81867893Y-42956912D01*
X81884091Y-42913483D01*
X81885823Y-42897370D01*
X81890499Y-42853885D01*
X81890499Y-42853882D01*
X81890500Y-42853873D01*
X81890499Y-41506000D01*
X83434898Y-41506000D01*
X83455276Y-41764922D01*
X83515903Y-42017453D01*
X83515906Y-42017462D01*
X83516482Y-42018854D01*
X83516483Y-42018854D01*
X84029338Y-41505999D01*
X83988201Y-41464862D01*
X84436127Y-41464862D01*
X84446439Y-41628766D01*
X84497188Y-41784956D01*
X84585186Y-41923619D01*
X84704903Y-42036040D01*
X84848817Y-42115158D01*
X85007886Y-42156000D01*
X85130894Y-42156000D01*
X85252933Y-42140583D01*
X85405629Y-42080126D01*
X85538492Y-41983595D01*
X85643175Y-41857055D01*
X85713100Y-41708457D01*
X85743873Y-41547138D01*
X85741285Y-41505999D01*
X86150660Y-41505999D01*
X86663516Y-42018854D01*
X86664095Y-42017457D01*
X86664096Y-42017452D01*
X86724723Y-41764922D01*
X86745101Y-41506000D01*
X86735656Y-41385991D01*
X90184844Y-41385991D01*
X90194577Y-41565495D01*
X90194577Y-41565499D01*
X90194578Y-41565501D01*
X90218988Y-41653416D01*
X90242672Y-41738720D01*
X90242672Y-41738721D01*
X90326881Y-41897556D01*
X90326882Y-41897558D01*
X90429912Y-42018854D01*
X90443265Y-42034574D01*
X90586382Y-42143369D01*
X90749541Y-42218854D01*
X90925113Y-42257500D01*
X90925118Y-42257500D01*
X90928863Y-42257500D01*
X90931421Y-42258185D01*
X90933145Y-42258373D01*
X90933116Y-42258639D01*
X91003363Y-42277462D01*
X91057901Y-42332000D01*
X91077863Y-42406500D01*
X91057901Y-42481000D01*
X91050043Y-42493197D01*
X90981201Y-42589419D01*
X90857344Y-42830324D01*
X90857344Y-42830325D01*
X90769886Y-43086680D01*
X90769880Y-43086703D01*
X90720681Y-43353060D01*
X90710788Y-43623773D01*
X90740412Y-43893005D01*
X90740414Y-43893018D01*
X90808928Y-44155088D01*
X90862722Y-44281675D01*
X90914870Y-44404390D01*
X90914875Y-44404399D01*
X91055981Y-44635610D01*
X91055984Y-44635614D01*
X91229247Y-44843812D01*
X91229259Y-44843824D01*
X91430990Y-45024575D01*
X91430999Y-45024583D01*
X91543954Y-45099313D01*
X91656910Y-45174044D01*
X91902176Y-45289020D01*
X92161569Y-45367060D01*
X92429561Y-45406500D01*
X92429568Y-45406500D01*
X92632629Y-45406500D01*
X92632631Y-45406500D01*
X92835156Y-45391677D01*
X93099553Y-45332780D01*
X93352558Y-45236014D01*
X93588777Y-45103441D01*
X93803177Y-44937888D01*
X93991186Y-44742881D01*
X94148799Y-44522579D01*
X94272656Y-44281675D01*
X94360118Y-44025305D01*
X94409319Y-43758933D01*
X94419212Y-43488235D01*
X94389586Y-43218982D01*
X94321072Y-42956912D01*
X94215130Y-42707610D01*
X94142999Y-42589419D01*
X94074018Y-42476389D01*
X94074015Y-42476385D01*
X93900752Y-42268187D01*
X93900740Y-42268175D01*
X93699009Y-42087424D01*
X93699000Y-42087416D01*
X93473090Y-41937956D01*
X93227825Y-41822980D01*
X93082369Y-41779219D01*
X92968431Y-41744940D01*
X92968427Y-41744939D01*
X92968426Y-41744939D01*
X92700446Y-41705501D01*
X92700445Y-41705500D01*
X92700439Y-41705500D01*
X92497369Y-41705500D01*
X92294844Y-41720323D01*
X92294836Y-41720324D01*
X92030449Y-41779219D01*
X92030439Y-41779222D01*
X92021937Y-41782474D01*
X91945221Y-41790439D01*
X91874801Y-41758979D01*
X91829545Y-41696524D01*
X91821580Y-41619808D01*
X91821587Y-41619760D01*
X91845155Y-41476010D01*
X91835422Y-41296499D01*
X91787327Y-41123277D01*
X91703119Y-40964444D01*
X91703117Y-40964442D01*
X91703117Y-40964441D01*
X91586737Y-40827428D01*
X91586736Y-40827427D01*
X91586735Y-40827426D01*
X91510068Y-40769145D01*
X91443620Y-40718632D01*
X91443616Y-40718630D01*
X91280459Y-40643146D01*
X91104887Y-40604500D01*
X90970184Y-40604500D01*
X90970183Y-40604500D01*
X90836275Y-40619063D01*
X90836273Y-40619064D01*
X90665916Y-40676463D01*
X90665909Y-40676467D01*
X90511878Y-40769145D01*
X90450349Y-40827428D01*
X90381358Y-40892780D01*
X90280471Y-41041577D01*
X90280469Y-41041579D01*
X90280469Y-41041581D01*
X90213930Y-41208583D01*
X90184845Y-41385990D01*
X90184844Y-41385991D01*
X86735656Y-41385991D01*
X86724723Y-41247077D01*
X86664095Y-40994544D01*
X86663515Y-40993143D01*
X86150660Y-41505999D01*
X85741285Y-41505999D01*
X85733561Y-41383234D01*
X85682812Y-41227044D01*
X85594814Y-41088381D01*
X85475097Y-40975960D01*
X85331183Y-40896842D01*
X85172114Y-40856000D01*
X85049106Y-40856000D01*
X84927067Y-40871417D01*
X84774371Y-40931874D01*
X84641508Y-41028405D01*
X84536825Y-41154945D01*
X84466900Y-41303543D01*
X84436127Y-41464862D01*
X83988201Y-41464862D01*
X83516483Y-40993144D01*
X83515901Y-40994553D01*
X83455276Y-41247077D01*
X83434898Y-41506000D01*
X81890499Y-41506000D01*
X81890499Y-40158128D01*
X81884091Y-40098517D01*
X81869588Y-40059633D01*
X81833797Y-39963670D01*
X81833795Y-39963666D01*
X81810451Y-39932483D01*
X84577144Y-39932483D01*
X85089999Y-40445338D01*
X85602854Y-39932483D01*
X85602854Y-39932482D01*
X85601462Y-39931906D01*
X85601453Y-39931903D01*
X85348922Y-39871276D01*
X85090000Y-39850898D01*
X84831077Y-39871276D01*
X84578553Y-39931901D01*
X84577144Y-39932483D01*
X81810451Y-39932483D01*
X81747547Y-39848455D01*
X81747544Y-39848452D01*
X81632333Y-39762204D01*
X81632329Y-39762202D01*
X81497482Y-39711908D01*
X81437876Y-39705500D01*
X78742136Y-39705500D01*
X78742111Y-39705502D01*
X78682521Y-39711908D01*
X78682515Y-39711909D01*
X78547670Y-39762202D01*
X78547666Y-39762204D01*
X78432455Y-39848452D01*
X78432452Y-39848455D01*
X78346204Y-39963666D01*
X78346202Y-39963670D01*
X78295908Y-40098517D01*
X78289500Y-40158114D01*
X78289500Y-42853863D01*
X63152202Y-42853863D01*
X62865000Y-42566660D01*
X62352143Y-43079516D01*
X59585451Y-43079516D01*
X59608795Y-43048333D01*
X59608797Y-43048329D01*
X59642893Y-42956912D01*
X59659091Y-42913483D01*
X59660823Y-42897370D01*
X59665499Y-42853885D01*
X59665499Y-42853882D01*
X59665500Y-42853873D01*
X59665499Y-41506000D01*
X61209898Y-41506000D01*
X61230276Y-41764922D01*
X61290903Y-42017453D01*
X61290906Y-42017462D01*
X61291482Y-42018854D01*
X61291483Y-42018854D01*
X61804338Y-41505999D01*
X61763201Y-41464862D01*
X62211127Y-41464862D01*
X62221439Y-41628766D01*
X62272188Y-41784956D01*
X62360186Y-41923619D01*
X62479903Y-42036040D01*
X62623817Y-42115158D01*
X62782886Y-42156000D01*
X62905894Y-42156000D01*
X63027933Y-42140583D01*
X63180629Y-42080126D01*
X63313492Y-41983595D01*
X63418175Y-41857055D01*
X63488100Y-41708457D01*
X63518873Y-41547138D01*
X63516285Y-41505999D01*
X63925660Y-41505999D01*
X64438516Y-42018854D01*
X64439095Y-42017457D01*
X64439096Y-42017452D01*
X64499723Y-41764922D01*
X64520101Y-41506000D01*
X64499723Y-41247077D01*
X64439095Y-40994544D01*
X64438515Y-40993143D01*
X63925660Y-41505999D01*
X63516285Y-41505999D01*
X63508561Y-41383234D01*
X63457812Y-41227044D01*
X63369814Y-41088381D01*
X63250097Y-40975960D01*
X63106183Y-40896842D01*
X62947114Y-40856000D01*
X62824106Y-40856000D01*
X62702067Y-40871417D01*
X62549371Y-40931874D01*
X62416508Y-41028405D01*
X62311825Y-41154945D01*
X62241900Y-41303543D01*
X62211127Y-41464862D01*
X61763201Y-41464862D01*
X61291483Y-40993144D01*
X61290901Y-40994553D01*
X61230276Y-41247077D01*
X61209898Y-41506000D01*
X59665499Y-41506000D01*
X59665499Y-40158128D01*
X59659091Y-40098517D01*
X59644588Y-40059633D01*
X59608797Y-39963670D01*
X59608795Y-39963666D01*
X59585451Y-39932483D01*
X62352144Y-39932483D01*
X62864999Y-40445338D01*
X63377854Y-39932483D01*
X63377854Y-39932482D01*
X63376462Y-39931906D01*
X63376453Y-39931903D01*
X63123922Y-39871276D01*
X62865000Y-39850898D01*
X62606077Y-39871276D01*
X62353553Y-39931901D01*
X62352144Y-39932483D01*
X59585451Y-39932483D01*
X59522547Y-39848455D01*
X59522544Y-39848452D01*
X59407333Y-39762204D01*
X59407329Y-39762202D01*
X59272482Y-39711908D01*
X59212876Y-39705500D01*
X56517136Y-39705500D01*
X56517111Y-39705502D01*
X56457521Y-39711908D01*
X56457515Y-39711909D01*
X56322670Y-39762202D01*
X56322666Y-39762204D01*
X56207455Y-39848452D01*
X56207452Y-39848455D01*
X56121204Y-39963666D01*
X56121202Y-39963670D01*
X56070908Y-40098517D01*
X56064500Y-40158114D01*
X56064500Y-42853863D01*
X40927202Y-42853863D01*
X40640000Y-42566660D01*
X40127143Y-43079516D01*
X37360451Y-43079516D01*
X37383795Y-43048333D01*
X37383797Y-43048329D01*
X37417893Y-42956912D01*
X37434091Y-42913483D01*
X37435823Y-42897370D01*
X37440499Y-42853885D01*
X37440499Y-42853882D01*
X37440500Y-42853873D01*
X37440499Y-41506000D01*
X38984898Y-41506000D01*
X39005276Y-41764922D01*
X39065903Y-42017453D01*
X39065906Y-42017462D01*
X39066482Y-42018854D01*
X39066483Y-42018854D01*
X39579338Y-41505999D01*
X39538201Y-41464862D01*
X39986127Y-41464862D01*
X39996439Y-41628766D01*
X40047188Y-41784956D01*
X40135186Y-41923619D01*
X40254903Y-42036040D01*
X40398817Y-42115158D01*
X40557886Y-42156000D01*
X40680894Y-42156000D01*
X40802933Y-42140583D01*
X40955629Y-42080126D01*
X41088492Y-41983595D01*
X41193175Y-41857055D01*
X41263100Y-41708457D01*
X41293873Y-41547138D01*
X41291285Y-41505999D01*
X41700660Y-41505999D01*
X42213516Y-42018854D01*
X42214095Y-42017457D01*
X42214096Y-42017452D01*
X42274723Y-41764922D01*
X42295101Y-41506000D01*
X42274723Y-41247077D01*
X42214095Y-40994544D01*
X42213515Y-40993143D01*
X41700660Y-41505999D01*
X41291285Y-41505999D01*
X41283561Y-41383234D01*
X41232812Y-41227044D01*
X41144814Y-41088381D01*
X41025097Y-40975960D01*
X40881183Y-40896842D01*
X40722114Y-40856000D01*
X40599106Y-40856000D01*
X40477067Y-40871417D01*
X40324371Y-40931874D01*
X40191508Y-41028405D01*
X40086825Y-41154945D01*
X40016900Y-41303543D01*
X39986127Y-41464862D01*
X39538201Y-41464862D01*
X39066483Y-40993144D01*
X39065901Y-40994553D01*
X39005276Y-41247077D01*
X38984898Y-41506000D01*
X37440499Y-41506000D01*
X37440499Y-40158128D01*
X37434091Y-40098517D01*
X37419588Y-40059633D01*
X37383797Y-39963670D01*
X37383795Y-39963666D01*
X37360451Y-39932483D01*
X40127144Y-39932483D01*
X40639999Y-40445338D01*
X41152854Y-39932483D01*
X41152854Y-39932482D01*
X41151462Y-39931906D01*
X41151453Y-39931903D01*
X40898922Y-39871276D01*
X40640000Y-39850898D01*
X40381077Y-39871276D01*
X40128553Y-39931901D01*
X40127144Y-39932483D01*
X37360451Y-39932483D01*
X37297547Y-39848455D01*
X37297544Y-39848452D01*
X37182333Y-39762204D01*
X37182329Y-39762202D01*
X37047482Y-39711908D01*
X36987876Y-39705500D01*
X34292136Y-39705500D01*
X34292111Y-39705502D01*
X34232521Y-39711908D01*
X34232515Y-39711909D01*
X34097670Y-39762202D01*
X34097666Y-39762204D01*
X33982455Y-39848452D01*
X33982452Y-39848455D01*
X33896204Y-39963666D01*
X33896202Y-39963670D01*
X33845908Y-40098517D01*
X33839500Y-40158114D01*
X33839500Y-42853863D01*
X24277281Y-42853863D01*
X24215130Y-42707610D01*
X24142999Y-42589419D01*
X24074018Y-42476389D01*
X24074015Y-42476385D01*
X23900752Y-42268187D01*
X23900740Y-42268175D01*
X23699009Y-42087424D01*
X23699000Y-42087416D01*
X23473090Y-41937956D01*
X23227825Y-41822980D01*
X23082369Y-41779219D01*
X22968431Y-41744940D01*
X22968427Y-41744939D01*
X22968426Y-41744939D01*
X22700446Y-41705501D01*
X22700445Y-41705500D01*
X22700439Y-41705500D01*
X22497369Y-41705500D01*
X22294844Y-41720323D01*
X22294836Y-41720324D01*
X22030449Y-41779219D01*
X22030439Y-41779222D01*
X21777440Y-41875986D01*
X21777438Y-41875987D01*
X21541224Y-42008558D01*
X21541217Y-42008562D01*
X21326830Y-42174105D01*
X21326826Y-42174108D01*
X21138810Y-42369123D01*
X20981201Y-42589419D01*
X20857344Y-42830324D01*
X20857344Y-42830325D01*
X20769886Y-43086680D01*
X20769880Y-43086703D01*
X20720681Y-43353060D01*
X20710788Y-43623773D01*
X19025500Y-43623773D01*
X19025500Y-35559118D01*
X50759500Y-35559118D01*
X50759805Y-35571540D01*
X50760719Y-35590111D01*
X50761631Y-35602466D01*
X50781148Y-35800628D01*
X50784787Y-35825168D01*
X50789616Y-35849450D01*
X50794444Y-35873729D01*
X50800479Y-35897821D01*
X50857389Y-36085429D01*
X50865751Y-36108801D01*
X50865751Y-36108799D01*
X50884695Y-36154534D01*
X50895306Y-36176969D01*
X50895310Y-36176976D01*
X50895310Y-36176977D01*
X50920381Y-36223881D01*
X50987718Y-36349858D01*
X51000471Y-36371137D01*
X51027985Y-36412317D01*
X51027985Y-36412316D01*
X51042767Y-36432248D01*
X51042767Y-36432247D01*
X51042775Y-36432258D01*
X51167136Y-36583792D01*
X51183803Y-36602182D01*
X51218817Y-36637196D01*
X51237207Y-36653863D01*
X51388741Y-36778224D01*
X51388752Y-36778232D01*
X51388751Y-36778232D01*
X51403132Y-36788897D01*
X51408676Y-36793009D01*
X51408679Y-36793011D01*
X51408678Y-36793011D01*
X51449838Y-36820513D01*
X51449843Y-36820516D01*
X51449849Y-36820520D01*
X51471136Y-36833279D01*
X51597111Y-36900615D01*
X51644015Y-36925686D01*
X51644016Y-36925686D01*
X51644023Y-36925690D01*
X51666460Y-36936302D01*
X51666462Y-36936303D01*
X51712206Y-36955251D01*
X51712205Y-36955251D01*
X51726116Y-36960228D01*
X51735579Y-36963614D01*
X51735584Y-36963615D01*
X51735591Y-36963618D01*
X51923174Y-37020519D01*
X51947258Y-37026552D01*
X51995820Y-37036210D01*
X52020352Y-37039849D01*
X52020354Y-37039849D01*
X52020365Y-37039851D01*
X52218531Y-37059369D01*
X52230887Y-37060281D01*
X52249459Y-37061195D01*
X52261881Y-37061500D01*
X72618119Y-37061500D01*
X72630541Y-37061195D01*
X72649113Y-37060281D01*
X72661469Y-37059369D01*
X72859634Y-37039851D01*
X72859644Y-37039849D01*
X72859647Y-37039849D01*
X72884179Y-37036210D01*
X72932741Y-37026552D01*
X72956825Y-37020519D01*
X73144421Y-36963614D01*
X73161824Y-36957386D01*
X73167801Y-36955248D01*
X73167798Y-36955249D01*
X73194597Y-36944148D01*
X73213544Y-36936300D01*
X73235979Y-36925689D01*
X73235986Y-36925685D01*
X73235987Y-36925685D01*
X73408848Y-36833287D01*
X73408847Y-36833287D01*
X73408863Y-36833279D01*
X73430150Y-36820520D01*
X73430155Y-36820516D01*
X73430161Y-36820513D01*
X73471321Y-36793011D01*
X73471320Y-36793011D01*
X73471323Y-36793009D01*
X73476866Y-36788897D01*
X73491248Y-36778232D01*
X73491247Y-36778232D01*
X73491258Y-36778224D01*
X73642792Y-36653863D01*
X73661182Y-36637196D01*
X73696196Y-36602182D01*
X73712863Y-36583792D01*
X73837224Y-36432258D01*
X73837232Y-36432247D01*
X73837232Y-36432248D01*
X73852011Y-36412320D01*
X73852011Y-36412321D01*
X73879513Y-36371161D01*
X73879520Y-36371150D01*
X73892279Y-36349863D01*
X73984689Y-36176979D01*
X73995300Y-36154544D01*
X74001369Y-36139891D01*
X74014248Y-36108801D01*
X74016386Y-36102824D01*
X74022614Y-36085421D01*
X74079520Y-35897821D01*
X74085551Y-35873744D01*
X74085554Y-35873732D01*
X74095210Y-35825179D01*
X74095210Y-35825177D01*
X74095212Y-35825168D01*
X74098851Y-35800634D01*
X74118369Y-35602468D01*
X74119281Y-35590112D01*
X74120195Y-35571540D01*
X74120500Y-35559118D01*
X74120500Y-29677881D01*
X74120195Y-29665459D01*
X74119281Y-29646887D01*
X74118369Y-29634531D01*
X74100292Y-29450997D01*
X74097222Y-29430304D01*
X74101674Y-29377452D01*
X74099050Y-29376895D01*
X74100672Y-29369261D01*
X74100674Y-29369256D01*
X74120460Y-29181000D01*
X74100674Y-28992744D01*
X74042179Y-28812716D01*
X73947533Y-28648784D01*
X73947532Y-28648783D01*
X73947530Y-28648779D01*
X73820872Y-28508113D01*
X73667727Y-28396847D01*
X73494805Y-28319857D01*
X73494803Y-28319856D01*
X73374091Y-28294198D01*
X73309648Y-28280500D01*
X73309646Y-28280500D01*
X73120354Y-28280500D01*
X73120350Y-28280500D01*
X73077677Y-28289570D01*
X73010498Y-28288361D01*
X73003846Y-28286695D01*
X72993099Y-28284003D01*
X72993096Y-28284002D01*
X72960878Y-28277595D01*
X72944540Y-28274346D01*
X72920000Y-28270707D01*
X72739543Y-28252934D01*
X72739544Y-28252934D01*
X72733346Y-28252629D01*
X72714755Y-28251716D01*
X72665245Y-28251716D01*
X72640457Y-28252934D01*
X72552820Y-28261565D01*
X72459983Y-28270708D01*
X72459984Y-28270708D01*
X72450837Y-28272065D01*
X72435445Y-28274348D01*
X72386891Y-28284006D01*
X72386882Y-28284008D01*
X72386878Y-28284009D01*
X72386868Y-28284011D01*
X72380956Y-28285491D01*
X72313797Y-28286695D01*
X72284650Y-28280500D01*
X72284646Y-28280500D01*
X72095354Y-28280500D01*
X72095352Y-28280500D01*
X72030909Y-28294198D01*
X71910197Y-28319856D01*
X71910195Y-28319856D01*
X71910194Y-28319857D01*
X71737272Y-28396847D01*
X71584127Y-28508113D01*
X71457469Y-28648779D01*
X71362822Y-28812714D01*
X71362819Y-28812721D01*
X71304325Y-28992745D01*
X71284540Y-29180999D01*
X71298864Y-29317292D01*
X71295217Y-29369062D01*
X71295167Y-29369261D01*
X71293006Y-29377891D01*
X71283348Y-29426445D01*
X71281065Y-29441837D01*
X71279709Y-29450983D01*
X71279707Y-29450994D01*
X71261631Y-29634531D01*
X71261631Y-29634535D01*
X71260719Y-29646890D01*
X71259805Y-29665459D01*
X71259500Y-29677881D01*
X71259500Y-31437991D01*
X71265724Y-31517071D01*
X71271890Y-31556007D01*
X71290409Y-31633142D01*
X71290410Y-31633144D01*
X71298657Y-31658529D01*
X71305132Y-31688992D01*
X71310538Y-31740422D01*
X71310538Y-31771574D01*
X71305132Y-31823006D01*
X71298657Y-31853468D01*
X71290851Y-31877494D01*
X71290408Y-31878860D01*
X71271891Y-31955991D01*
X71271891Y-31955994D01*
X71271890Y-31955994D01*
X71268044Y-31980275D01*
X71267787Y-31981906D01*
X71265724Y-31994930D01*
X71259500Y-32074008D01*
X71259500Y-33851500D01*
X71239538Y-33926000D01*
X71185000Y-33980538D01*
X71110500Y-34000500D01*
X54904807Y-34000500D01*
X54830307Y-33980538D01*
X54775769Y-33926000D01*
X54757082Y-33870949D01*
X54749705Y-33814922D01*
X54749143Y-33810650D01*
X54749083Y-33810353D01*
X54742689Y-33778198D01*
X54737399Y-33758457D01*
X54725608Y-33714450D01*
X54724821Y-33712133D01*
X54724187Y-33710264D01*
X54714969Y-33683108D01*
X54665049Y-33562591D01*
X54650411Y-33532907D01*
X54650408Y-33532901D01*
X54650409Y-33532902D01*
X54617415Y-33475757D01*
X54617414Y-33475756D01*
X54599028Y-33448239D01*
X54599026Y-33448236D01*
X54568259Y-33408140D01*
X54519620Y-33344753D01*
X54497790Y-33319861D01*
X54451138Y-33273209D01*
X54426246Y-33251379D01*
X54322759Y-33171970D01*
X54309096Y-33162841D01*
X54295252Y-33153590D01*
X54295251Y-33153590D01*
X54295244Y-33153585D01*
X54265304Y-33136299D01*
X54238100Y-33120592D01*
X54208412Y-33105951D01*
X54208413Y-33105952D01*
X54208411Y-33105951D01*
X54087889Y-33056029D01*
X54056549Y-33045391D01*
X54056550Y-33045391D01*
X53992824Y-33028315D01*
X53992823Y-33028314D01*
X53960355Y-33021856D01*
X53960356Y-33021856D01*
X53960353Y-33021855D01*
X53960350Y-33021855D01*
X53901098Y-33014054D01*
X53826855Y-33004281D01*
X53823607Y-33003961D01*
X53810361Y-33002657D01*
X53785630Y-33001039D01*
X53769124Y-33000500D01*
X52261881Y-33000500D01*
X52249459Y-33000805D01*
X52230888Y-33001719D01*
X52218534Y-33002631D01*
X52020365Y-33022148D01*
X52020358Y-33022149D01*
X52020356Y-33022149D01*
X51995830Y-33025786D01*
X51947268Y-33035444D01*
X51947269Y-33035444D01*
X51923177Y-33041479D01*
X51910281Y-33045391D01*
X51735569Y-33098389D01*
X51735562Y-33098391D01*
X51735557Y-33098393D01*
X51714435Y-33105951D01*
X51712205Y-33106749D01*
X51666475Y-33125690D01*
X51644035Y-33136303D01*
X51471133Y-33228721D01*
X51471130Y-33228723D01*
X51471131Y-33228722D01*
X51467601Y-33230838D01*
X51449843Y-33241482D01*
X51449842Y-33241483D01*
X51408677Y-33268988D01*
X51408676Y-33268989D01*
X51388758Y-33283761D01*
X51388759Y-33283761D01*
X51388748Y-33283769D01*
X51237201Y-33408140D01*
X51218811Y-33424808D01*
X51183808Y-33459811D01*
X51167140Y-33478201D01*
X51042769Y-33629748D01*
X51042761Y-33629759D01*
X51042761Y-33629758D01*
X51028787Y-33648599D01*
X51027986Y-33649680D01*
X51000482Y-33690843D01*
X50987721Y-33712133D01*
X50895303Y-33885035D01*
X50884690Y-33907475D01*
X50865749Y-33953205D01*
X50865745Y-33953214D01*
X50865745Y-33953216D01*
X50857391Y-33976563D01*
X50857391Y-33976562D01*
X50800476Y-34164184D01*
X50800476Y-34164185D01*
X50794442Y-34188277D01*
X50784786Y-34236840D01*
X50781148Y-34261374D01*
X50761631Y-34459533D01*
X50760719Y-34471888D01*
X50759805Y-34490459D01*
X50759500Y-34502881D01*
X50759500Y-35559118D01*
X19025500Y-35559118D01*
X19025500Y-35129516D01*
X24252143Y-35129516D01*
X24253544Y-35130095D01*
X24506077Y-35190723D01*
X24765000Y-35211101D01*
X25023922Y-35190723D01*
X25276452Y-35130096D01*
X25276457Y-35130095D01*
X25277854Y-35129516D01*
X24765000Y-34616660D01*
X24252143Y-35129516D01*
X19025500Y-35129516D01*
X19025500Y-33556000D01*
X23109898Y-33556000D01*
X23130276Y-33814922D01*
X23190903Y-34067453D01*
X23190906Y-34067462D01*
X23191482Y-34068854D01*
X23191483Y-34068854D01*
X23704338Y-33555999D01*
X23663201Y-33514862D01*
X24111127Y-33514862D01*
X24121439Y-33678766D01*
X24172188Y-33834956D01*
X24260186Y-33973619D01*
X24379903Y-34086040D01*
X24523817Y-34165158D01*
X24682886Y-34206000D01*
X24805894Y-34206000D01*
X24927933Y-34190583D01*
X25080629Y-34130126D01*
X25213492Y-34033595D01*
X25318175Y-33907055D01*
X25388100Y-33758457D01*
X25418873Y-33597138D01*
X25416285Y-33555999D01*
X25825660Y-33555999D01*
X26338516Y-34068854D01*
X26339095Y-34067457D01*
X26339096Y-34067452D01*
X26399723Y-33814922D01*
X26420101Y-33556000D01*
X26399723Y-33297077D01*
X26339095Y-33044544D01*
X26338515Y-33043143D01*
X25825660Y-33555999D01*
X25416285Y-33555999D01*
X25408561Y-33433234D01*
X25357812Y-33277044D01*
X25269814Y-33138381D01*
X25150097Y-33025960D01*
X25006183Y-32946842D01*
X24847114Y-32906000D01*
X24724106Y-32906000D01*
X24602067Y-32921417D01*
X24449371Y-32981874D01*
X24316508Y-33078405D01*
X24211825Y-33204945D01*
X24141900Y-33353543D01*
X24111127Y-33514862D01*
X23663201Y-33514862D01*
X23191483Y-33043144D01*
X23190901Y-33044553D01*
X23130276Y-33297077D01*
X23109898Y-33556000D01*
X19025500Y-33556000D01*
X19025500Y-31982483D01*
X24252144Y-31982483D01*
X24764999Y-32495338D01*
X25277854Y-31982483D01*
X25277854Y-31982482D01*
X25276462Y-31981906D01*
X25276453Y-31981903D01*
X25023922Y-31921276D01*
X24765000Y-31900898D01*
X24506077Y-31921276D01*
X24253553Y-31981901D01*
X24252144Y-31982483D01*
X19025500Y-31982483D01*
X19025500Y-29903863D01*
X22964500Y-29903863D01*
X22964502Y-29903888D01*
X22970908Y-29963478D01*
X22970909Y-29963484D01*
X23021202Y-30098329D01*
X23021204Y-30098333D01*
X23107452Y-30213544D01*
X23107455Y-30213547D01*
X23222666Y-30299795D01*
X23222670Y-30299797D01*
X23357517Y-30350091D01*
X23417114Y-30356499D01*
X23417118Y-30356499D01*
X23417127Y-30356500D01*
X26112872Y-30356499D01*
X26172483Y-30350091D01*
X26268447Y-30314298D01*
X26307329Y-30299797D01*
X26307333Y-30299795D01*
X26364938Y-30256671D01*
X26422546Y-30213546D01*
X26508796Y-30098331D01*
X26559091Y-29963483D01*
X26560823Y-29947370D01*
X26565499Y-29903885D01*
X26565499Y-29903882D01*
X26565500Y-29903873D01*
X26565499Y-27456001D01*
X68559435Y-27456001D01*
X68579631Y-27635252D01*
X68579631Y-27635254D01*
X68579632Y-27635255D01*
X68639211Y-27805522D01*
X68735184Y-27958262D01*
X68862738Y-28085816D01*
X69015478Y-28181789D01*
X69185745Y-28241368D01*
X69275372Y-28251466D01*
X69364999Y-28261565D01*
X69365000Y-28261565D01*
X69365001Y-28261565D01*
X69409813Y-28256515D01*
X69544255Y-28241368D01*
X69714522Y-28181789D01*
X69867262Y-28085816D01*
X69994816Y-27958262D01*
X70090789Y-27805522D01*
X70150368Y-27635255D01*
X70170565Y-27456000D01*
X70150368Y-27276745D01*
X70143768Y-27257885D01*
X70138006Y-27180974D01*
X70171471Y-27111484D01*
X70179036Y-27103330D01*
X71969725Y-25312640D01*
X72010439Y-25283754D01*
X72014510Y-25281793D01*
X72014522Y-25281789D01*
X72167262Y-25185816D01*
X72294816Y-25058262D01*
X72390789Y-24905522D01*
X72450368Y-24735255D01*
X72470565Y-24556000D01*
X72450368Y-24376745D01*
X72441117Y-24350307D01*
X72423861Y-24300990D01*
X72415500Y-24251780D01*
X72415500Y-24060219D01*
X72423861Y-24011009D01*
X72435066Y-23978983D01*
X72450368Y-23935255D01*
X72470565Y-23756000D01*
X72450368Y-23576745D01*
X72390789Y-23406478D01*
X72294816Y-23253738D01*
X72167262Y-23126184D01*
X72014522Y-23030211D01*
X71844255Y-22970632D01*
X71844254Y-22970631D01*
X71844253Y-22970631D01*
X71665001Y-22950435D01*
X71664999Y-22950435D01*
X71485747Y-22970631D01*
X71315477Y-23030211D01*
X71162738Y-23126184D01*
X71035184Y-23253738D01*
X70939211Y-23406477D01*
X70879631Y-23576747D01*
X70859435Y-23755998D01*
X70859435Y-23756001D01*
X70879631Y-23935253D01*
X70879632Y-23935256D01*
X70906139Y-24011009D01*
X70914500Y-24060219D01*
X70914500Y-24183413D01*
X70894538Y-24257913D01*
X70870859Y-24288772D01*
X68880646Y-26278984D01*
X68864269Y-26293137D01*
X68846470Y-26306389D01*
X68813245Y-26345984D01*
X68808862Y-26350768D01*
X68803415Y-26356216D01*
X68803403Y-26356230D01*
X68783059Y-26381959D01*
X68733697Y-26440787D01*
X68728930Y-26448035D01*
X68728684Y-26447873D01*
X68726192Y-26451786D01*
X68726442Y-26451941D01*
X68721890Y-26459320D01*
X68689423Y-26528942D01*
X68654960Y-26597566D01*
X68651992Y-26605720D01*
X68651712Y-26605618D01*
X68650190Y-26609997D01*
X68650472Y-26610091D01*
X68647743Y-26618324D01*
X68641800Y-26647104D01*
X68632207Y-26693565D01*
X68620985Y-26740915D01*
X68614498Y-26768285D01*
X68613492Y-26776899D01*
X68613196Y-26776864D01*
X68612725Y-26781468D01*
X68613023Y-26781494D01*
X68612266Y-26790145D01*
X68614500Y-26866916D01*
X68614500Y-27151780D01*
X68606139Y-27200990D01*
X68579632Y-27276743D01*
X68579631Y-27276746D01*
X68559435Y-27455998D01*
X68559435Y-27456001D01*
X26565499Y-27456001D01*
X26565499Y-27208128D01*
X26559091Y-27148517D01*
X26542233Y-27103317D01*
X26508797Y-27013670D01*
X26508795Y-27013666D01*
X26422547Y-26898455D01*
X26422544Y-26898452D01*
X26307333Y-26812204D01*
X26307329Y-26812202D01*
X26172482Y-26761908D01*
X26112876Y-26755500D01*
X23417136Y-26755500D01*
X23417111Y-26755502D01*
X23357521Y-26761908D01*
X23357515Y-26761909D01*
X23222670Y-26812202D01*
X23222666Y-26812204D01*
X23107455Y-26898452D01*
X23107452Y-26898455D01*
X23021204Y-27013666D01*
X23021202Y-27013670D01*
X22970908Y-27148517D01*
X22964500Y-27208114D01*
X22964500Y-29903863D01*
X19025500Y-29903863D01*
X19025500Y-18623773D01*
X20710788Y-18623773D01*
X20740411Y-18893000D01*
X20740414Y-18893019D01*
X20770826Y-19009347D01*
X20808928Y-19155088D01*
X20878427Y-19318632D01*
X20914870Y-19404390D01*
X20914875Y-19404399D01*
X21055981Y-19635610D01*
X21055984Y-19635614D01*
X21229247Y-19843812D01*
X21229259Y-19843824D01*
X21430990Y-20024575D01*
X21430999Y-20024583D01*
X21458004Y-20042449D01*
X21656910Y-20174044D01*
X21902176Y-20289020D01*
X22161569Y-20367060D01*
X22429561Y-20406500D01*
X22429568Y-20406500D01*
X22632629Y-20406500D01*
X22632631Y-20406500D01*
X22835156Y-20391677D01*
X23099553Y-20332780D01*
X23352558Y-20236014D01*
X23588777Y-20103441D01*
X23702562Y-20015579D01*
X23773726Y-19985849D01*
X23850224Y-19995683D01*
X23911557Y-20042449D01*
X23941289Y-20113616D01*
X23942405Y-20125444D01*
X23944577Y-20165496D01*
X23944578Y-20165500D01*
X23992672Y-20338720D01*
X23992672Y-20338721D01*
X24076881Y-20497556D01*
X24076882Y-20497558D01*
X24193262Y-20634571D01*
X24193265Y-20634574D01*
X24336382Y-20743369D01*
X24499541Y-20818854D01*
X24675113Y-20857500D01*
X24675118Y-20857500D01*
X24809807Y-20857500D01*
X24809816Y-20857500D01*
X24943721Y-20842937D01*
X25027468Y-20814719D01*
X25114083Y-20785536D01*
X25114090Y-20785532D01*
X25268121Y-20692854D01*
X25268120Y-20692854D01*
X25268126Y-20692851D01*
X25398642Y-20569220D01*
X25499529Y-20420423D01*
X25566070Y-20253416D01*
X25595155Y-20076010D01*
X25585422Y-19896499D01*
X25556824Y-19793500D01*
X71459540Y-19793500D01*
X71479325Y-19981754D01*
X71483851Y-19995683D01*
X71537821Y-20161784D01*
X71580677Y-20236013D01*
X71632469Y-20325720D01*
X71759127Y-20466386D01*
X71759129Y-20466388D01*
X71898165Y-20567403D01*
X71915944Y-20582588D01*
X74045859Y-22712503D01*
X74084423Y-22779298D01*
X74089500Y-22817862D01*
X74089500Y-24212831D01*
X74082208Y-24258873D01*
X74079325Y-24267743D01*
X74059540Y-24456000D01*
X74079325Y-24644254D01*
X74137819Y-24824278D01*
X74137821Y-24824284D01*
X74137822Y-24824285D01*
X74232469Y-24988220D01*
X74359127Y-25128886D01*
X74359129Y-25128888D01*
X74512270Y-25240151D01*
X74685197Y-25317144D01*
X74826315Y-25347139D01*
X74870352Y-25356500D01*
X74870354Y-25356500D01*
X75059648Y-25356500D01*
X75099004Y-25348134D01*
X75244803Y-25317144D01*
X75417730Y-25240151D01*
X75570871Y-25128888D01*
X75643195Y-25048563D01*
X75697530Y-24988220D01*
X75697531Y-24988218D01*
X75697533Y-24988216D01*
X75792179Y-24824284D01*
X75850674Y-24644256D01*
X75870460Y-24456000D01*
X75850674Y-24267744D01*
X75847792Y-24258873D01*
X75840500Y-24212831D01*
X75840500Y-22432100D01*
X75840746Y-22426050D01*
X75845339Y-22369652D01*
X75834085Y-22287059D01*
X75834085Y-22287058D01*
X75825073Y-22204184D01*
X75825071Y-22204177D01*
X75823336Y-22196291D01*
X75823431Y-22196269D01*
X75821677Y-22188782D01*
X75821582Y-22188806D01*
X75819632Y-22180968D01*
X75819631Y-22180966D01*
X75819631Y-22180963D01*
X75790880Y-22102706D01*
X75764267Y-22023720D01*
X75764264Y-22023715D01*
X75760874Y-22016386D01*
X75760962Y-22016345D01*
X75757636Y-22009404D01*
X75757549Y-22009448D01*
X75753962Y-22002216D01*
X75753961Y-22002212D01*
X75709059Y-21931963D01*
X75666089Y-21860546D01*
X75666086Y-21860543D01*
X75666085Y-21860541D01*
X75661199Y-21854113D01*
X75661277Y-21854053D01*
X75656540Y-21847992D01*
X75656463Y-21848055D01*
X75651402Y-21841759D01*
X75651400Y-21841756D01*
X75592447Y-21782803D01*
X75535132Y-21722295D01*
X75528976Y-21717067D01*
X75529039Y-21716992D01*
X75515200Y-21705556D01*
X73147745Y-19338101D01*
X73124065Y-19307240D01*
X73097533Y-19261284D01*
X72970871Y-19120612D01*
X72817730Y-19009349D01*
X72817729Y-19009348D01*
X72817727Y-19009347D01*
X72644805Y-18932357D01*
X72644803Y-18932356D01*
X72538360Y-18909731D01*
X72459648Y-18893000D01*
X72459646Y-18893000D01*
X72270354Y-18893000D01*
X72270352Y-18893000D01*
X72170392Y-18914247D01*
X72085197Y-18932356D01*
X72085195Y-18932356D01*
X72085194Y-18932357D01*
X71912272Y-19009347D01*
X71759127Y-19120613D01*
X71632469Y-19261279D01*
X71537822Y-19425214D01*
X71537819Y-19425221D01*
X71479325Y-19605245D01*
X71459540Y-19793500D01*
X25556824Y-19793500D01*
X25537327Y-19723277D01*
X25453119Y-19564444D01*
X25453117Y-19564442D01*
X25453117Y-19564441D01*
X25336737Y-19427428D01*
X25336736Y-19427427D01*
X25336735Y-19427426D01*
X25260073Y-19369149D01*
X25193620Y-19318632D01*
X25193616Y-19318630D01*
X25030459Y-19243146D01*
X24854887Y-19204500D01*
X24720184Y-19204500D01*
X24720183Y-19204500D01*
X24586277Y-19219063D01*
X24542119Y-19233942D01*
X24465145Y-19238812D01*
X24396048Y-19204542D01*
X24353343Y-19140316D01*
X24348473Y-19063342D01*
X24353526Y-19044629D01*
X24360112Y-19025322D01*
X24360113Y-19025319D01*
X24360118Y-19025305D01*
X24409319Y-18758933D01*
X24414259Y-18623773D01*
X90710788Y-18623773D01*
X90740411Y-18893000D01*
X90740414Y-18893019D01*
X90770826Y-19009347D01*
X90808928Y-19155088D01*
X90878427Y-19318632D01*
X90914870Y-19404390D01*
X90914875Y-19404399D01*
X91055981Y-19635610D01*
X91055984Y-19635614D01*
X91229247Y-19843812D01*
X91229259Y-19843824D01*
X91430990Y-20024575D01*
X91430999Y-20024583D01*
X91458004Y-20042449D01*
X91656910Y-20174044D01*
X91902176Y-20289020D01*
X92161569Y-20367060D01*
X92429561Y-20406500D01*
X92429568Y-20406500D01*
X92632629Y-20406500D01*
X92632631Y-20406500D01*
X92835156Y-20391677D01*
X93099553Y-20332780D01*
X93352558Y-20236014D01*
X93588777Y-20103441D01*
X93803177Y-19937888D01*
X93991186Y-19742881D01*
X94148799Y-19522579D01*
X94272656Y-19281675D01*
X94360118Y-19025305D01*
X94409319Y-18758933D01*
X94419212Y-18488235D01*
X94389586Y-18218982D01*
X94321072Y-17956912D01*
X94215130Y-17707610D01*
X94142999Y-17589419D01*
X94074018Y-17476389D01*
X94074015Y-17476385D01*
X93900752Y-17268187D01*
X93900740Y-17268175D01*
X93699009Y-17087424D01*
X93699000Y-17087416D01*
X93473090Y-16937956D01*
X93227825Y-16822980D01*
X93082369Y-16779219D01*
X92968431Y-16744940D01*
X92968427Y-16744939D01*
X92968426Y-16744939D01*
X92700446Y-16705501D01*
X92700445Y-16705500D01*
X92700439Y-16705500D01*
X92497369Y-16705500D01*
X92294844Y-16720323D01*
X92294836Y-16720324D01*
X92030449Y-16779219D01*
X92030439Y-16779222D01*
X91777440Y-16875986D01*
X91777438Y-16875987D01*
X91541224Y-17008558D01*
X91541217Y-17008562D01*
X91326830Y-17174105D01*
X91326826Y-17174108D01*
X91138810Y-17369123D01*
X90981201Y-17589419D01*
X90857344Y-17830324D01*
X90857344Y-17830325D01*
X90769886Y-18086680D01*
X90769880Y-18086703D01*
X90720681Y-18353060D01*
X90710788Y-18623773D01*
X24414259Y-18623773D01*
X24419212Y-18488235D01*
X24389586Y-18218982D01*
X24321072Y-17956912D01*
X24215130Y-17707610D01*
X24142999Y-17589419D01*
X24074018Y-17476389D01*
X24074015Y-17476385D01*
X23900752Y-17268187D01*
X23900740Y-17268175D01*
X23699009Y-17087424D01*
X23699000Y-17087416D01*
X23473090Y-16937956D01*
X23227825Y-16822980D01*
X23082369Y-16779219D01*
X22968431Y-16744940D01*
X22968427Y-16744939D01*
X22968426Y-16744939D01*
X22700446Y-16705501D01*
X22700445Y-16705500D01*
X22700439Y-16705500D01*
X22497369Y-16705500D01*
X22294844Y-16720323D01*
X22294836Y-16720324D01*
X22030449Y-16779219D01*
X22030439Y-16779222D01*
X21777440Y-16875986D01*
X21777438Y-16875987D01*
X21541224Y-17008558D01*
X21541217Y-17008562D01*
X21326830Y-17174105D01*
X21326826Y-17174108D01*
X21138810Y-17369123D01*
X20981201Y-17589419D01*
X20857344Y-17830324D01*
X20857344Y-17830325D01*
X20769886Y-18086680D01*
X20769880Y-18086703D01*
X20720681Y-18353060D01*
X20710788Y-18623773D01*
X19025500Y-18623773D01*
X19025500Y-15174500D01*
X19045462Y-15100000D01*
X19100000Y-15045462D01*
X19174500Y-15025500D01*
X95825500Y-15025500D01*
X95900000Y-15045462D01*
G37*
G04 #@! TD.AperFunction*
M02*
